<svg width="145" height="36" viewBox="0 0 145 36" fill="none" xmlns="http://www.w3.org/2000/svg">
<g clip-path="url(#clip0_117_4205)">
<path d="M71.9485 8.10243H65.5604V25.3908H63.9917V8.10243H57.6197V6.77628H71.9485V8.10243ZM77.8515 25.6658C76.6709 25.6658 75.6035 25.3747 74.6655 24.7925C73.7275 24.2102 72.9674 23.4016 72.4499 22.3666C71.9162 21.3315 71.6574 20.1671 71.6574 18.8895V18.3396C71.6574 17.0135 71.9162 15.8167 72.4337 14.7493C72.9512 13.6819 73.6628 12.841 74.5847 12.2426C75.5065 11.6442 76.5092 11.3208 77.5766 11.3208C79.2585 11.3208 80.5847 11.8868 81.5712 13.035C82.5577 14.1833 83.0429 15.752 83.0429 17.7412V18.5984H73.1615V18.8895C73.1615 20.4582 73.6143 21.7682 74.5038 22.8032C75.4095 23.8544 76.5415 24.372 77.9 24.372C78.7248 24.372 79.4364 24.2264 80.0671 23.9191C80.6979 23.628 81.2639 23.1429 81.7814 22.4798L82.7356 23.2075C81.6359 24.841 80.0024 25.6658 77.8515 25.6658ZM77.5766 12.6146C76.4283 12.6146 75.458 13.035 74.6655 13.876C73.8731 14.717 73.4041 15.8491 73.2262 17.2722H81.5227V17.1105C81.4741 15.7844 81.1022 14.7008 80.3906 13.8598C79.679 13.0189 78.741 12.6146 77.5766 12.6146ZM87.5712 24.1132H96.5631V25.407H85.679V24.2749L94.0725 12.8895H85.9378V11.5633H95.9971V12.7116L87.5712 24.1132ZM98.7626 18.2749C98.7626 16.9488 99.0213 15.752 99.5388 14.6846C100.056 13.6173 100.784 12.7925 101.722 12.1941C102.66 11.5957 103.728 11.3046 104.924 11.3046C106.768 11.3046 108.256 11.9515 109.404 13.2453C110.552 14.5391 111.118 16.2534 111.118 18.3881V18.7116C111.118 20.0539 110.86 21.2507 110.342 22.3181C109.825 23.3854 109.097 24.2102 108.159 24.7925C107.221 25.3747 106.153 25.6658 104.957 25.6658C103.129 25.6658 101.625 25.0189 100.477 23.7251C99.3286 22.4313 98.7626 20.717 98.7626 18.5822V18.2749ZM100.299 18.6954C100.299 20.345 100.736 21.7035 101.577 22.7709C102.434 23.8383 103.55 24.3558 104.94 24.3558C106.315 24.3558 107.447 23.8221 108.304 22.7709C109.161 21.7035 109.582 20.3127 109.582 18.566V18.2749C109.582 17.2237 109.388 16.2534 109 15.3639C108.612 14.4906 108.062 13.8113 107.35 13.3261C106.639 12.841 105.83 12.5984 104.924 12.5984C103.566 12.5984 102.45 13.1321 101.577 14.1995C100.719 15.2668 100.283 16.6739 100.283 18.4043L100.299 18.6954ZM122.568 21.8814C122.568 21.1213 122.261 20.5067 121.647 20.0539C121.032 19.6011 120.126 19.2291 118.881 18.9704C117.636 18.7116 116.698 18.4043 116.019 18.0809C115.339 17.7412 114.838 17.3369 114.515 16.8518C114.191 16.3666 114.013 15.7844 114.013 15.089C114.013 13.9892 114.466 13.0997 115.388 12.3881C116.294 11.6766 117.474 11.3208 118.897 11.3208C120.434 11.3208 121.679 11.7089 122.617 12.469C123.555 13.2291 124.024 14.2318 124.024 15.4609H122.488C122.488 14.6523 122.148 13.973 121.469 13.4394C120.79 12.9057 119.932 12.6307 118.897 12.6307C117.895 12.6307 117.086 12.8571 116.471 13.2938C115.857 13.7466 115.55 14.3288 115.55 15.0404C115.55 15.7358 115.808 16.2695 116.31 16.6415C116.811 17.0135 117.749 17.3693 119.091 17.6927C120.434 18.0162 121.436 18.3396 122.116 18.6954C122.779 19.0512 123.28 19.4879 123.604 19.9892C123.927 20.4906 124.089 21.1051 124.089 21.8167C124.089 22.9811 123.62 23.9191 122.682 24.6146C121.744 25.31 120.515 25.6658 118.994 25.6658C117.377 25.6658 116.067 25.2776 115.081 24.5013C114.078 23.7251 113.577 22.7385 113.577 21.5418H115.113C115.178 22.4313 115.55 23.1267 116.245 23.628C116.94 24.1294 117.862 24.372 119.011 24.372C120.078 24.372 120.935 24.1294 121.598 23.6766C122.245 23.1914 122.568 22.593 122.568 21.8814ZM46.3151 26.442C45.9432 19.8598 37.6628 16.8679 36.8704 16.5606C36.838 16.5445 36.838 16.5121 36.8542 16.4798L45.3933 7.90836V6.98652C45.3933 6.84097 45.2639 6.71159 45.1184 6.71159H29.3825V0L23.5766 1.21294V2.08625H23.9C23.9 2.08625 25.3232 2.08625 25.3232 3.50943V6.69542H20.8273C20.7464 6.69542 20.6655 6.77628 20.6655 6.85714V8.87871H25.3394V19.8598C25.3394 23.3046 27.555 25.6981 31.4364 25.3747C32.2612 25.31 33.0213 24.9865 33.6682 24.566C33.9593 24.372 34.1372 24.0647 34.1372 23.7089V22.6253C32.8758 23.4663 31.8084 23.4178 31.8084 23.4178C29.3502 23.4178 29.3987 20.2965 29.3987 20.2965V8.87871H40.7194L32.5685 17.0943C32.5523 18.1779 32.5361 19.0189 32.5361 19.035C32.5361 19.0674 32.5523 19.0836 32.5847 19.0836C40.0564 20.345 42.0779 25.1806 42.0779 26.5876C42.0779 26.5876 42.8866 33.4286 36.0456 33.8976C36.0456 33.8976 31.5658 34.0916 30.7733 32.2965C30.741 32.2318 30.7733 32.1671 30.838 32.1348C31.582 31.7951 32.0833 31.1321 32.0833 30.2426C32.0833 28.9164 31.2747 27.8329 29.5766 27.8329C28.2019 27.8329 27.0698 28.9164 27.0698 30.2426C27.0698 30.2426 26.4229 36 36.0294 35.8383C46.9944 35.6442 46.3151 26.442 46.3151 26.442Z" fill="#0D61FF"/>
</g>
<defs>
<clipPath id="clip0_117_4205">
<rect width="103.448" height="36" fill="white" transform="translate(20.6528)"/>
</clipPath>
</defs>
</svg>
