<svg width="145" height="36" viewBox="0 0 145 36" fill="none" xmlns="http://www.w3.org/2000/svg">
<g clip-path="url(#clip0_117_4208)">
<path fill-rule="evenodd" clip-rule="evenodd" d="M17.6812 24.3328C16.4241 25.1086 14.9346 25.5576 13.3377 25.5576C11.6812 25.5576 10.1403 25.0745 8.85452 24.2446L5.40357 27.6153C7.5961 29.2755 10.3488 30.2638 13.3377 30.2638C16.2677 30.2638 18.9706 29.3141 21.1414 27.7127L17.6812 24.3328ZM23.7301 25.1703C25.3433 23.0596 26.2985 20.4409 26.2985 17.6044C26.2985 14.685 25.2867 11.9963 23.5869 9.8548L20.136 13.2255C20.9856 14.4813 21.4803 15.9865 21.4803 17.6044C21.4803 19.1385 21.0356 20.5711 20.2653 21.786L23.7301 25.1703ZM9.05651 10.838C10.3004 10.0855 11.7671 9.6512 13.3377 9.6512C14.8484 9.6512 16.2629 10.053 17.4755 10.7533L20.9512 7.35838C18.8136 5.84042 16.1827 4.94507 13.3377 4.94507C10.4337 4.94507 7.75262 5.87799 5.5917 7.45375L9.05651 10.838ZM6.44907 13.362L2.98872 9.98214C1.34921 12.1025 0.376953 14.7425 0.376953 17.6044C0.376953 20.3832 1.29362 22.953 2.84772 25.0409L6.32339 21.646C5.60653 20.4616 5.19514 19.0799 5.19514 17.6044C5.19514 16.0447 5.65481 14.5897 6.44907 13.362Z" fill="#EAECF9"/>
<path d="M39.7603 16.7404C39.7603 14.4427 40.3489 12.6767 41.5452 11.4234C42.7415 10.1512 44.3366 9.52454 46.2925 9.52454C47.8686 9.52454 49.1978 9.92331 50.2802 10.7208C51.3625 11.4994 52.0272 12.5438 52.236 13.8161H50.0903C49.7295 12.3159 48.2673 11.3665 46.3494 11.3665C45.0392 11.3665 43.9758 11.7652 43.1593 12.5438C42.3428 13.3223 41.944 14.3667 41.944 15.639V17.8037C41.944 19.038 42.3238 20.0255 43.1023 20.804C43.8809 21.5826 44.8873 21.9623 46.1596 21.9623C47.3748 21.9623 48.3623 21.5826 49.1408 20.842C49.9194 20.1014 50.3181 19.095 50.3371 17.8607H45.6658V16.1327H52.6348V23.5384H50.9448L50.7549 21.2597H50.622C49.6915 22.8738 47.9445 23.7283 45.8367 23.7283C43.9378 23.7283 42.4567 23.1017 41.3743 21.8484C40.2919 20.5951 39.7603 18.8861 39.7603 16.7404ZM53.4296 9.69544H63.8356V11.5374H59.658V23.5384H57.6072V11.5374H53.4296V9.69544ZM72.1359 23.5384H70.0661V9.69544H76.1995C79.1049 9.69544 80.6237 11.3475 80.6237 14.1579C80.6237 16.9682 79.0669 18.6203 76.1995 18.6203H72.1359V23.5384ZM72.1359 11.5943V16.8543H76.0476C77.5667 16.8543 78.4402 16.0378 78.4402 14.8035V13.4932C78.4402 12.2779 77.5857 11.5943 76.2185 11.5943H72.1359ZM84.416 13.5502H87.872V15.1833H84.6439V23.5384H82.688V15.2592C82.688 14.2718 83.0488 13.5502 84.416 13.5502ZM88.4559 18.5443C88.4559 16.9303 88.8927 15.677 89.7662 14.7465C90.6396 13.8161 91.817 13.3603 93.2981 13.3603C94.7413 13.3603 95.8996 13.8161 96.7921 14.7465C97.6846 15.658 98.1403 16.9303 98.1403 18.5443C98.1403 20.1204 97.7036 21.3927 96.8491 22.3231C95.9945 23.2536 94.7982 23.7283 93.2981 23.7283C91.798 23.7283 90.6207 23.2726 89.7472 22.3421C88.8927 21.4117 88.4559 20.1394 88.4559 18.5443ZM90.4498 17.8037V19.3608C90.4498 21.1078 91.6461 22.0953 93.2981 22.0953C94.9502 22.0953 96.1275 21.0888 96.1275 19.3608V17.8037C96.1275 16.1137 94.9502 15.0124 93.2981 15.0124C91.6081 15.0124 90.4498 16.1137 90.4498 17.8037ZM104.935 15.1833H102.865V21.9433H104.935V23.5384H102.581C101.479 23.5384 100.929 23.0067 100.929 21.9244V15.1833H99.1246V13.5502H100.929V10.3031H102.865V13.5502H104.935V15.1833ZM106.332 18.5443C106.332 16.9303 106.769 15.677 107.643 14.7465C108.516 13.8161 109.694 13.3603 111.175 13.3603C112.618 13.3603 113.776 13.8161 114.669 14.7465C115.561 15.658 116.017 16.9303 116.017 18.5443C116.017 20.1204 115.58 21.3927 114.726 22.3231C113.871 23.2536 112.675 23.7283 111.175 23.7283C109.675 23.7283 108.497 23.2726 107.624 22.3421C106.769 21.4117 106.332 20.1394 106.332 18.5443ZM108.326 17.8037V19.3608C108.326 21.1078 109.523 22.0953 111.175 22.0953C112.827 22.0953 114.004 21.0888 114.004 19.3608V17.8037C114.004 16.1137 112.827 15.0124 111.175 15.0124C109.485 15.0124 108.326 16.1137 108.326 17.8037ZM125.067 20.0634H127.004C126.7 22.3421 124.991 23.7283 122.503 23.7283C121.003 23.7283 119.845 23.2726 118.99 22.3421C118.155 21.4117 117.737 20.1394 117.737 18.5633C117.737 16.9303 118.174 15.658 119.047 14.7465C119.94 13.8161 121.098 13.3603 122.56 13.3603C124.934 13.3603 126.662 14.7655 126.985 16.9113H125.029C124.725 15.639 123.775 15.0124 122.484 15.0124C120.813 15.0124 119.731 16.1707 119.731 17.8417V19.3988C119.731 21.0509 120.832 22.0953 122.484 22.0953C123.87 22.0953 124.839 21.3357 125.067 20.0634ZM128.493 18.5443C128.493 16.9303 128.929 15.677 129.803 14.7465C130.676 13.8161 131.854 13.3603 133.335 13.3603C134.778 13.3603 135.936 13.8161 136.829 14.7465C137.721 15.658 138.177 16.9303 138.177 18.5443C138.177 20.1204 137.74 21.3927 136.886 22.3231C136.031 23.2536 134.835 23.7283 133.335 23.7283C131.835 23.7283 130.657 23.2726 129.784 22.3421C128.929 21.4117 128.493 20.1394 128.493 18.5443ZM130.487 17.8037V19.3608C130.487 21.1078 131.683 22.0953 133.335 22.0953C134.987 22.0953 136.164 21.0888 136.164 19.3608V17.8037C136.164 16.1137 134.987 15.0124 133.335 15.0124C131.645 15.0124 130.487 16.1137 130.487 17.8037ZM142.408 23.5384H140.472V9.56251H142.408V23.5384Z" fill="#EAECF9"/>
</g>
<defs>
<clipPath id="clip0_117_4208">
<rect width="144" height="30.8571" fill="white" transform="translate(0.376953 2.57141)"/>
</clipPath>
</defs>
</svg>
