<svg xmlns="http://www.w3.org/2000/svg" width="27" height="24" viewBox="0 0 27 24" fill="none">
  <path fill-rule="evenodd" clip-rule="evenodd" d="M22.644 22.3867V22.384L22.668 22.3267L26.6667 2.16665V2.10265C26.6667 1.59999 26.48 1.16132 26.0774 0.898652C25.724 0.667985 25.3174 0.651985 25.032 0.673319C24.7664 0.69734 24.5044 0.751007 24.2507 0.833319C24.1425 0.868192 24.0358 0.907334 23.9307 0.950652L23.9134 0.957318L1.62004 9.70265L1.61338 9.70532C1.5456 9.72846 1.47926 9.75562 1.41471 9.78665C1.25616 9.85789 1.10404 9.94264 0.960043 10.04C0.673376 10.2373 0.128043 10.7013 0.220043 11.4373C0.296043 12.048 0.716043 12.4347 1.00004 12.636C1.16768 12.7535 1.3479 12.8518 1.53738 12.9293L1.58004 12.948L1.59338 12.952L1.60271 12.956L5.50404 14.2693C5.49071 14.5133 5.51471 14.7627 5.58004 15.0093L7.53338 22.4213C7.64009 22.8253 7.87067 23.1858 8.19274 23.4521C8.51481 23.7183 8.91219 23.877 9.32908 23.9058C9.74596 23.9347 10.1614 23.8322 10.5171 23.6128C10.8727 23.3934 11.1507 23.0681 11.312 22.6827L14.3627 19.4213L19.6014 23.4373L19.676 23.4693C20.152 23.6773 20.596 23.7427 21.0027 23.688C21.4094 23.632 21.732 23.4613 21.9747 23.268C22.2554 23.0404 22.4791 22.7505 22.628 22.4213L22.6387 22.3987L22.6427 22.3907L22.644 22.3867ZM7.51338 14.5C7.49174 14.4177 7.49689 14.3307 7.52806 14.2516C7.55922 14.1725 7.6148 14.1054 7.68671 14.06L20.9147 5.65999C20.9147 5.65999 21.6934 5.18665 21.6654 5.65999C21.6654 5.65999 21.804 5.74265 21.3867 6.13065C20.992 6.49999 11.9587 15.2213 11.044 16.104C10.9932 16.1534 10.9576 16.2163 10.9414 16.2853L9.46671 21.912L7.51338 14.4987V14.5Z" fill="currentColor"/>
</svg>