<svg width="145" height="36" viewBox="0 0 145 36" fill="none" xmlns="http://www.w3.org/2000/svg">
<g clip-path="url(#clip0_117_4214)">
<mask id="mask0_117_4214" style="mask-type:luminance" maskUnits="userSpaceOnUse" x="0" y="4" width="145" height="28">
<path d="M144.377 4.42932H0.376953V31.5707H144.377V4.42932Z" fill="white"/>
</mask>
<g mask="url(#mask0_117_4214)">
<path d="M27.2808 4.42932H31.1985V12.9618H39.2545V4.42932H43.1722V24.9405H39.2545V16.353H31.1985V24.9405H27.2808V4.42932Z" fill="white"/>
<path d="M47.7039 31.5706V28.2343H50.6558L51.4836 24.9249H49.552L44.751 11.1144H48.7795L52.1453 21.6165H52.255L54.932 11.1144H58.9323L53.4425 31.5706H47.7039Z" fill="white"/>
<path d="M64.4556 25.1831V31.4734H60.5933V11.0161H72.7875V25.182H64.4556V25.1831ZM64.4556 21.8467H69.0632V14.2986H64.4556V21.8467Z" fill="white"/>
<path d="M86.1146 16.0215V20.0696H78.3061V22.6403H85.5069V25.6212H74.6089V16.5416C74.6089 13.0685 76.8993 11.017 80.4586 11.017C84.0171 11.017 86.1146 12.9856 86.1146 16.0215ZM78.3061 16.3769V17.3342H82.6096V16.3219C82.6096 15.0361 81.7546 14.1616 80.4571 14.1616C79.1603 14.1616 78.3046 14.9823 78.3046 16.3769H78.3061Z" fill="white"/>
<path d="M94.6704 11.0161V14.3805H91.6358V25.1831H87.7734V11.0161H94.6704Z" fill="white"/>
<path d="M96.3364 4.76904H111.235V8.95293H101.192V21.0414H106.876V17.4036H103.813V13.2467H111.677V25.2802H96.3364V4.76904Z" fill="white"/>
<path d="M128.2 18.361H118.046V25.2802H113.19V4.76904H128.2V18.361ZM123.344 8.95293H118.046V14.231H123.344V8.95293Z" fill="white"/>
<path d="M134.665 8.95293H129.837V4.76904H144.377V8.95293H139.522V25.2802H134.665V8.95293Z" fill="white"/>
<path d="M11.4446 25.1642C17.1892 25.1642 21.8462 20.5481 21.8462 14.8537C21.8462 9.15938 17.1892 4.54321 11.4446 4.54321C5.69992 4.54321 1.04297 9.15938 1.04297 14.8537C1.04297 20.5481 5.69992 25.1642 11.4446 25.1642Z" fill="url(#paint0_linear_117_4214)"/>
<path d="M11.4446 25.1642C17.1892 25.1642 21.8462 20.5481 21.8462 14.8537C21.8462 9.15938 17.1892 4.54321 11.4446 4.54321C5.69992 4.54321 1.04297 9.15938 1.04297 14.8537C1.04297 20.5481 5.69992 25.1642 11.4446 25.1642Z" fill="url(#paint1_linear_117_4214)"/>
<mask id="mask1_117_4214" style="mask-type:luminance" maskUnits="userSpaceOnUse" x="1" y="4" width="21" height="22">
<path d="M11.4446 25.1642C17.1892 25.1642 21.8462 20.5481 21.8462 14.8537C21.8462 9.15938 17.1892 4.54321 11.4446 4.54321C5.69992 4.54321 1.04297 9.15938 1.04297 14.8537C1.04297 20.5481 5.69992 25.1642 11.4446 25.1642Z" fill="white"/>
</mask>
<g mask="url(#mask1_117_4214)">
<path style="mix-blend-mode:multiply" opacity="0.3" d="M18.7112 26.3299L1.92815 26.2615C1.08983 26.2584 0.376953 25.6658 0.376953 24.9373V7.36358C0.376953 6.63518 1.08983 6.08706 1.92815 6.1368L4.7201 6.30466C6.36851 8.22874 7.31239 10.8191 6.80229 13.7306C6.71763 14.2186 6.78766 14.66 6.97581 15.0672C7.27058 15.7106 7.86743 16.267 8.63991 16.7882C9.0413 17.0597 9.49283 17.3218 9.97157 17.5808C11.0743 18.1756 12.337 18.7558 13.5506 19.4086C13.9917 19.6458 14.4255 19.8935 14.8447 20.1535C15.0391 20.2747 15.2314 20.3991 15.4175 20.5276C15.9046 20.8602 16.3614 21.2166 16.7701 21.6041C17.1496 21.9637 17.4893 22.3511 17.7736 22.7718C18.4342 23.7468 18.8053 24.9041 18.7112 26.3299Z" fill="url(#paint2_linear_117_4214)"/>
</g>
<path d="M5.26607 12.4583H17.4749C18.6269 12.4583 19.5614 13.3856 19.5614 14.5263C19.5614 16.323 18.0896 17.7819 16.277 17.7819H6.46396C4.65144 17.7819 3.17969 16.323 3.17969 14.5263C3.17969 13.3845 4.11521 12.4583 5.26607 12.4583Z" fill="url(#paint3_linear_117_4214)"/>
<path d="M9.59878 15.8942C9.70327 15.746 9.76811 15.5792 9.76811 15.3999C9.76811 14.8176 9.1462 14.3462 8.37892 14.3462C7.61169 14.3462 6.98975 14.8176 6.98975 15.3999C6.98975 15.5802 7.05455 15.746 7.15908 15.8942H9.59983H9.59878Z" fill="#D8DEE8"/>
<path d="M16.5974 15.8942C16.7019 15.746 16.7667 15.5792 16.7667 15.3999C16.7667 14.8176 16.1448 14.3462 15.3765 14.3462C14.6082 14.3462 13.9873 14.8176 13.9873 15.3999C13.9873 15.5802 14.0521 15.746 14.1566 15.8942H16.5974Z" fill="#D8DEE8"/>
</g>
</g>
<defs>
<linearGradient id="paint0_linear_117_4214" x1="1.04297" y1="14.8537" x2="21.8462" y2="14.8537" gradientUnits="userSpaceOnUse">
<stop stop-color="#AA80F9"/>
<stop offset="1" stop-color="#6165D7"/>
</linearGradient>
<linearGradient id="paint1_linear_117_4214" x1="1.04297" y1="14.8537" x2="21.8462" y2="14.8537" gradientUnits="userSpaceOnUse">
<stop stop-color="#AA80F9"/>
<stop offset="1" stop-color="#6165D7"/>
</linearGradient>
<linearGradient id="paint2_linear_117_4214" x1="17.5467" y1="0.586264" x2="-6.31469" y2="49.5437" gradientUnits="userSpaceOnUse">
<stop stop-color="#AA80F9"/>
<stop offset="1" stop-color="#6165D7"/>
</linearGradient>
<linearGradient id="paint3_linear_117_4214" x1="3.17969" y1="15.1201" x2="19.5614" y2="15.1201" gradientUnits="userSpaceOnUse">
<stop stop-color="#444B8C"/>
<stop offset="1" stop-color="#26264F"/>
</linearGradient>
<clipPath id="clip0_117_4214">
<rect width="144" height="27.1414" fill="white" transform="translate(0.376953 4.42932)"/>
</clipPath>
</defs>
</svg>
