<svg xmlns="http://www.w3.org/2000/svg" width="151" height="36" viewBox="0 0 151 36" fill="none" class="[&amp;_path]:!fill-foreground"><path fill-rule="evenodd" clip-rule="evenodd" d="M22.3749 7.64802L27.8354 11.6009L29.9208 17.996L27.8354 24.3912L22.3749 28.3441L15.7278 28.3441L10.2315 24.3912L8.13233 17.996L10.2315 11.6009L15.7278 7.64802L22.3749 7.64802ZM13.216 0H13.1297L3.62966 6.87489L0 18L3.62966 29.1251L13.1297 36H13.216H24.8703H25.034L34.5965 29.1251L38.25 18L34.5965 6.87489L25.034 0H24.8703H13.216ZM142.102 10.5165C141.196 12.2108 140.241 13.9051 139.239 15.5994C138.236 13.9051 137.294 12.2108 136.411 10.5165C135.528 8.82218 134.705 7.11593 133.941 5.39775H127.462C128.822 8.07047 130.23 10.6716 131.686 13.2012C133.165 15.7307 134.717 18.2602 136.339 20.7898V30.204H141.923V20.7182C143.546 18.1887 145.085 15.671 146.541 13.1654C147.997 10.6597 149.405 8.07047 150.765 5.39775H144.608C143.844 7.11593 143.009 8.82218 142.102 10.5165ZM108.578 30.204V5.39775H125.187V10.0869H114.162V15.2773H123.97V19.9665H114.162V30.204H108.578ZM102.837 5.39775H97.2525V30.204H102.837V5.39775ZM76.4439 25.6579C76.7064 25.6818 77.0047 25.7056 77.3388 25.7295H78.5916C81.3836 25.7295 83.4478 25.0255 84.7842 23.6176C86.1444 22.2096 86.8245 20.2647 86.8245 17.7829C86.8245 15.1818 86.1802 13.213 84.8916 11.8767C83.603 10.5403 81.5626 9.87212 78.7706 9.87212C78.3888 9.87212 77.995 9.88405 77.5893 9.90792C77.1836 9.90792 76.8018 9.93178 76.4439 9.97951V25.6579ZM92.5876 17.7829C92.5876 19.9306 92.2535 21.8039 91.5853 23.4028C90.9172 25.0017 89.9626 26.3261 88.7217 27.3761C87.5047 28.4261 86.0132 29.2136 84.2473 29.7386C82.4814 30.2636 80.5007 30.5261 78.3052 30.5261C77.303 30.5261 76.1336 30.4784 74.7973 30.3829C73.4609 30.3113 72.1484 30.1443 70.8598 29.8818V5.71985C72.1484 5.48121 73.4848 5.3261 74.8689 5.25451C76.2768 5.15905 77.4819 5.11133 78.4842 5.11133C80.6081 5.11133 82.5291 5.34996 84.2473 5.82723C85.9893 6.30451 87.4808 7.05621 88.7217 8.08235C89.9626 9.10848 90.9172 10.421 91.5853 12.0198C92.2535 13.6187 92.5876 15.5397 92.5876 17.7829ZM62.8062 7.11587C60.8255 5.77951 57.9738 5.11133 54.2511 5.11133C53.225 5.11133 52.0556 5.15905 50.7431 5.25451C49.4545 5.34996 48.2017 5.51701 46.9846 5.75564V30.2039H52.5687V21.1477H55.325C55.8022 21.7204 56.2795 22.3647 56.7568 23.0806C57.234 23.7727 57.7113 24.5125 58.1886 25.3C58.6897 26.0875 59.167 26.8988 59.6204 27.734C60.0977 28.5693 60.563 29.3926 61.0164 30.2039H67.2806C66.8511 29.2971 66.3857 28.3784 65.8846 27.4477C65.3835 26.4931 64.8585 25.5863 64.3096 24.7272C63.7846 23.8443 63.2477 23.0091 62.6988 22.2216C62.15 21.4102 61.625 20.6943 61.1238 20.0738C62.6272 19.4534 63.7727 18.6062 64.5602 17.5323C65.3715 16.4346 65.7772 15.0147 65.7772 13.2727C65.7772 10.4806 64.7869 8.42837 62.8062 7.11587ZM53.4636 9.90792C53.7977 9.88405 54.1676 9.87212 54.5732 9.87212C56.363 9.87212 57.7113 10.1346 58.6181 10.6596C59.5488 11.1608 60.0142 12.0198 60.0142 13.2369C60.0142 14.5017 59.5607 15.3966 58.6539 15.9216C57.7471 16.4466 56.2437 16.7091 54.1437 16.7091H52.5687V9.97951C52.8551 9.95564 53.1534 9.93178 53.4636 9.90792Z" fill="url(#paint0_linear_910_10274)"></path><defs><linearGradient id="paint0_linear_910_10274" x1="-6.16765" y1="-3.6" x2="149.05" y2="68.4325" gradientUnits="userSpaceOnUse"><stop stop-color="#F4977C"></stop><stop offset="1" stop-color="#D7AF6A"></stop></linearGradient></defs></svg>