<svg width="145" height="36" viewBox="0 0 145 36" fill="none" xmlns="http://www.w3.org/2000/svg">
<g clip-path="url(#clip0_117_4192)">
<path d="M71.0869 3.375V26.01C71.0869 26.295 70.8619 26.52 70.5769 26.52H68.3869C68.2369 26.52 68.0719 26.445 67.9819 26.325L59.1019 14.865V35.475C59.1019 35.76 58.8769 35.985 58.5919 35.985H6.72191C6.43691 35.985 6.21191 35.76 6.21191 35.475V0.51C6.21191 0.225 6.43691 0 6.72191 0H61.5169C61.8019 0 62.0269 0.225 62.0269 0.51V2.85C62.0269 3.135 61.8019 3.36 61.5169 3.36H9.57191V32.625H55.7119V9.99C55.7119 9.705 55.9369 9.48 56.2219 9.48H58.6969C58.8469 9.48 59.0119 9.555 59.1019 9.675L67.7119 20.775V0.51C67.7119 0.225 67.9369 0 68.2219 0H138.017C138.302 0 138.527 0.225 138.527 0.51V35.475C138.527 35.76 138.302 35.985 138.017 35.985H65.2819C64.9969 35.985 64.7719 35.76 64.7719 35.475V33.135C64.7719 32.85 64.9969 32.625 65.2819 32.625H135.167V3.375H71.0869ZM82.2469 18.06V18.015C82.2469 13.065 86.2519 9.18 91.3669 9.18C94.3069 9.18 96.0619 9.9 97.5919 11.025C97.8319 11.205 97.8769 11.55 97.6819 11.775L96.1969 13.53C96.0319 13.74 95.7169 13.77 95.5069 13.62C94.3219 12.75 93.1069 12.225 91.2469 12.225C88.2769 12.225 85.8619 14.79 85.8619 17.955V18C85.8619 21.375 88.2469 23.82 91.5319 23.82C93.0319 23.82 94.3669 23.445 95.3869 22.725L95.4919 22.65V18.435C95.4919 18.15 95.7169 17.925 96.0019 17.925H98.2669C98.5519 17.925 98.7769 18.15 98.7769 18.435V23.94C98.7769 24.105 98.7019 24.255 98.5819 24.345C96.5437 25.975 94.0067 26.8542 91.3969 26.835C86.0119 26.835 82.2619 23.22 82.2619 18.06H82.2469ZM17.0569 9.99V26.01C17.0569 26.295 17.2819 26.52 17.5669 26.52H28.8769C29.1619 26.52 29.3869 26.295 29.3869 26.01V24.045C29.3869 23.76 29.1619 23.535 28.8769 23.535H20.4769V9.99C20.4769 9.705 20.2519 9.48 19.9669 9.48H17.5819C17.2969 9.48 17.0719 9.705 17.0719 9.99H17.0569ZM43.0819 9.48H40.6969C40.4119 9.48 40.1869 9.705 40.1869 9.99V26.01C40.1869 26.295 40.4119 26.52 40.6969 26.52H43.0819C43.3669 26.52 43.5919 26.295 43.5919 26.01V9.99C43.5919 9.705 43.3669 9.48 43.0819 9.48ZM118.667 9.18C113.462 9.18 109.397 13.05 109.397 18V18.045C109.397 23.04 113.357 26.82 118.607 26.82C123.857 26.82 127.877 22.95 127.877 18V17.955C127.877 12.96 123.917 9.18 118.667 9.18ZM124.292 18.045C124.292 21.315 121.877 23.775 118.667 23.775C115.457 23.775 112.997 21.24 112.997 18V17.955C112.997 14.685 115.412 12.225 118.622 12.225C121.832 12.225 124.292 14.76 124.292 18V18.045Z" fill="white"/>
</g>
<defs>
<clipPath id="clip0_117_4192">
<rect width="132.33" height="36" fill="white" transform="translate(6.21191)"/>
</clipPath>
</defs>
</svg>
