<svg width="282" height="131" viewBox="0 0 282 131" fill="none" xmlns="http://www.w3.org/2000/svg">
<path fill-rule="evenodd" clip-rule="evenodd" d="M282 0H0V131H95.353C85.9249 131 81.2109 131 78.282 128.071C75.353 125.142 75.353 120.428 75.353 111V95C75.353 85.5719 75.353 80.8579 78.282 77.9289C81.2109 75 85.9249 75 95.353 75H111.353C120.781 75 125.495 75 128.424 77.9289C131.353 80.8579 131.353 85.5719 131.353 95V111C131.353 120.428 131.353 125.142 128.424 128.071C125.495 131 120.781 131 111.353 131H282V0ZM171 76H186C190.742 76 194.198 76.0021 196.839 76.3572C199.452 76.7084 201.116 77.3883 202.364 78.636C203.612 79.8837 204.292 81.5483 204.643 84.1605C204.998 86.8015 205 90.2577 205 95V110C205 114.742 204.998 118.198 204.643 120.839C204.292 123.452 203.612 125.116 202.364 126.364C201.116 127.612 199.452 128.292 196.839 128.643C194.198 128.998 190.742 129 186 129H171C166.258 129 162.802 128.998 160.161 128.643C157.548 128.292 155.884 127.612 154.636 126.364C153.388 125.116 152.708 123.452 152.357 120.839C152.002 118.198 152 114.742 152 110V95C152 90.2577 152.002 86.8015 152.357 84.1605C152.708 81.5483 153.388 79.8837 154.636 78.636C155.884 77.3883 157.548 76.7084 160.161 76.3572C162.802 76.0021 166.258 76 171 76ZM151 95C151 85.5719 151 80.8579 153.929 77.9289C156.858 75 161.572 75 171 75H186C195.428 75 200.142 75 203.071 77.9289C206 80.8579 206 85.5719 206 95V110C206 119.428 206 124.142 203.071 127.071C200.142 130 195.428 130 186 130H171C161.572 130 156.858 130 153.929 127.071C151 124.142 151 119.428 151 110V95ZM261 76H246C241.258 76 237.802 76.0021 235.161 76.3572C232.548 76.7084 230.884 77.3883 229.636 78.636C228.388 79.8837 227.708 81.5483 227.357 84.1605C227.002 86.8015 227 90.2577 227 95V110C227 114.742 227.002 118.198 227.357 120.839C227.708 123.452 228.388 125.116 229.636 126.364C230.884 127.612 232.548 128.292 235.161 128.643C237.802 128.998 241.258 129 246 129H261C265.742 129 269.198 128.998 271.839 128.643C274.452 128.292 276.116 127.612 277.364 126.364C278.612 125.116 279.292 123.452 279.643 120.839C279.998 118.198 280 114.742 280 110V95C280 90.2577 279.998 86.8015 279.643 84.1605C279.292 81.5483 278.612 79.8837 277.364 78.636C276.116 77.3883 274.452 76.7084 271.839 76.3572C269.198 76.0021 265.742 76 261 76ZM228.929 77.9289C226 80.8579 226 85.5719 226 95V110C226 119.428 226 124.142 228.929 127.071C231.858 130 236.572 130 246 130H261C270.428 130 275.142 130 278.071 127.071C281 124.142 281 119.428 281 110V95C281 85.5719 281 80.8579 278.071 77.9289C275.142 75 270.428 75 261 75H246C236.572 75 231.858 75 228.929 77.9289ZM246 2H261C265.742 2 269.198 2.00212 271.839 2.3572C274.452 2.70841 276.116 3.38834 277.364 4.63604C278.612 5.88374 279.292 7.54828 279.643 10.1605C279.998 12.8015 280 16.2577 280 21V36C280 40.7423 279.998 44.1985 279.643 46.8395C279.292 49.4517 278.612 51.1163 277.364 52.364C276.116 53.6117 274.452 54.2916 271.839 54.6428C269.198 54.9979 265.742 55 261 55H246C241.258 55 237.802 54.9979 235.161 54.6428C232.548 54.2916 230.884 53.6117 229.636 52.364C228.388 51.1163 227.708 49.4517 227.357 46.8395C227.002 44.1985 227 40.7423 227 36V21C227 16.2577 227.002 12.8015 227.357 10.1605C227.708 7.54828 228.388 5.88374 229.636 4.63604C230.884 3.38834 232.548 2.70841 235.161 2.3572C237.802 2.00212 241.258 2 246 2ZM226 21C226 11.5719 226 6.85786 228.929 3.92893C231.858 1 236.572 1 246 1H261C270.428 1 275.142 1 278.071 3.92893C281 6.85786 281 11.5719 281 21V36C281 45.4281 281 50.1421 278.071 53.0711C275.142 56 270.428 56 261 56H246C236.572 56 231.858 56 228.929 53.0711C226 50.1421 226 45.4281 226 36V21ZM111.353 76H95.353C90.6107 76 87.1546 76.0021 84.5136 76.3572C81.9013 76.7084 80.2368 77.3883 78.9891 78.636C77.7414 79.8837 77.0614 81.5483 76.7102 84.1605C76.3551 86.8015 76.353 90.2577 76.353 95V111C76.353 115.742 76.3551 119.198 76.7102 121.839C77.0614 124.452 77.7414 126.116 78.9891 127.364C80.2368 128.612 81.9013 129.292 84.5136 129.643C87.1546 129.998 90.6107 130 95.353 130H111.353C116.095 130 119.551 129.998 122.192 129.643C124.805 129.292 126.469 128.612 127.717 127.364C128.965 126.116 129.645 124.452 129.996 121.839C130.351 119.198 130.353 115.742 130.353 111V95C130.353 90.2577 130.351 86.8015 129.996 84.1605C129.645 81.5483 128.965 79.8837 127.717 78.636C126.469 77.3883 124.805 76.7084 122.192 76.3572C119.551 76.0021 116.095 76 111.353 76ZM21 76H36C40.7423 76 44.1985 76.0021 46.8395 76.3572C49.4517 76.7084 51.1163 77.3883 52.364 78.636C53.6117 79.8837 54.2916 81.5483 54.6428 84.1605C54.9979 86.8015 55 90.2577 55 95V110C55 114.742 54.9979 118.198 54.6428 120.839C54.2916 123.452 53.6117 125.116 52.364 126.364C51.1163 127.612 49.4517 128.292 46.8395 128.643C44.1985 128.998 40.7423 129 36 129H21C16.2577 129 12.8015 128.998 10.1605 128.643C7.54828 128.292 5.88374 127.612 4.63604 126.364C3.38834 125.116 2.70841 123.452 2.3572 120.839C2.00212 118.198 2 114.742 2 110V95C2 90.2577 2.00212 86.8015 2.3572 84.1605C2.70841 81.5483 3.38834 79.8837 4.63604 78.636C5.88374 77.3883 7.54828 76.7084 10.1605 76.3572C12.8015 76.0021 16.2577 76 21 76ZM1 95C1 85.5719 1 80.8579 3.92893 77.9289C6.85786 75 11.5719 75 21 75H36C45.4281 75 50.1421 75 53.0711 77.9289C56 80.8579 56 85.5719 56 95V110C56 119.428 56 124.142 53.0711 127.071C50.1421 130 45.4281 130 36 130H21C11.5719 130 6.85786 130 3.92893 127.071C1 124.142 1 119.428 1 110V95ZM111 2H96C91.2577 2 87.8015 2.00212 85.1605 2.3572C82.5483 2.70841 80.8837 3.38834 79.636 4.63604C78.3883 5.88374 77.7084 7.54828 77.3572 10.1605C77.0021 12.8015 77 16.2577 77 21V36C77 40.7423 77.0021 44.1985 77.3572 46.8395C77.7084 49.4517 78.3883 51.1163 79.636 52.364C80.8837 53.6117 82.5483 54.2916 85.1605 54.6428C87.8015 54.9979 91.2577 55 96 55H111C115.742 55 119.198 54.9979 121.839 54.6428C124.452 54.2916 126.116 53.6117 127.364 52.364C128.612 51.1163 129.292 49.4517 129.643 46.8395C129.998 44.1985 130 40.7423 130 36V21C130 16.2577 129.998 12.8015 129.643 10.1605C129.292 7.54828 128.612 5.88374 127.364 4.63604C126.116 3.38834 124.452 2.70841 121.839 2.3572C119.198 2.00212 115.742 2 111 2ZM78.9289 3.92893C76 6.85786 76 11.5719 76 21V36C76 45.4281 76 50.1421 78.9289 53.0711C81.8579 56 86.5719 56 96 56H111C120.428 56 125.142 56 128.071 53.0711C131 50.1421 131 45.4281 131 36V21C131 11.5719 131 6.85786 128.071 3.92893C125.142 1 120.428 1 111 1H96C86.5719 1 81.8579 1 78.9289 3.92893ZM21 2H36C40.7423 2 44.1985 2.00212 46.8395 2.3572C49.4517 2.70841 51.1163 3.38834 52.364 4.63604C53.6117 5.88374 54.2916 7.54828 54.6428 10.1605C54.9979 12.8015 55 16.2577 55 21V36C55 40.7423 54.9979 44.1985 54.6428 46.8395C54.2916 49.4517 53.6117 51.1163 52.364 52.364C51.1163 53.6117 49.4517 54.2916 46.8395 54.6428C44.1985 54.9979 40.7423 55 36 55H21C16.2577 55 12.8015 54.9979 10.1605 54.6428C7.54828 54.2916 5.88374 53.6117 4.63604 52.364C3.38834 51.1163 2.70841 49.4517 2.3572 46.8395C2.00212 44.1985 2 40.7423 2 36V21C2 16.2577 2.00212 12.8015 2.3572 10.1605C2.70841 7.54828 3.38834 5.88374 4.63604 4.63604C5.88374 3.38834 7.54828 2.70841 10.1605 2.3572C12.8015 2.00212 16.2577 2 21 2ZM1 21C1 11.5719 1 6.85786 3.92893 3.92893C6.85786 1 11.5719 1 21 1H36C45.4281 1 50.1421 1 53.0711 3.92893C56 6.85786 56 11.5719 56 21V36C56 45.4281 56 50.1421 53.0711 53.0711C50.1421 56 45.4281 56 36 56H21C11.5719 56 6.85786 56 3.92893 53.0711C1 50.1421 1 45.4281 1 36V21Z" fill="black"/>
<path d="M239.549 100V91.36H240.359L243.755 98.626L247.133 91.36H247.955V99.994H247.115V93.328L244.037 100H243.467L240.395 93.328V100H239.549ZM252.381 100.18C251.749 100.18 251.201 100.04 250.737 99.76C250.277 99.48 249.919 99.086 249.663 98.578C249.407 98.07 249.279 97.474 249.279 96.79C249.279 96.082 249.405 95.47 249.657 94.954C249.909 94.438 250.263 94.04 250.719 93.76C251.179 93.48 251.721 93.34 252.345 93.34C252.985 93.34 253.531 93.488 253.983 93.784C254.435 94.076 254.777 94.496 255.009 95.044C255.241 95.592 255.347 96.246 255.327 97.006H254.427V96.694C254.411 95.854 254.229 95.22 253.881 94.792C253.537 94.364 253.033 94.15 252.369 94.15C251.673 94.15 251.139 94.376 250.767 94.828C250.399 95.28 250.215 95.924 250.215 96.76C250.215 97.576 250.399 98.21 250.767 98.662C251.139 99.11 251.665 99.334 252.345 99.334C252.809 99.334 253.213 99.228 253.557 99.016C253.905 98.8 254.179 98.49 254.379 98.086L255.201 98.404C254.945 98.968 254.567 99.406 254.067 99.718C253.571 100.026 253.009 100.18 252.381 100.18ZM249.903 97.006V96.268H254.853V97.006H249.903ZM260.186 100C259.822 100.076 259.462 100.106 259.106 100.09C258.754 100.074 258.438 99.998 258.158 99.862C257.882 99.726 257.672 99.514 257.528 99.226C257.412 98.986 257.348 98.744 257.336 98.5C257.328 98.252 257.324 97.97 257.324 97.654V91.72H258.2V97.618C258.2 97.89 258.202 98.118 258.206 98.302C258.214 98.482 258.256 98.642 258.332 98.782C258.476 99.05 258.704 99.21 259.016 99.262C259.332 99.314 259.722 99.302 260.186 99.226V100ZM255.938 94.276V93.52H260.186V94.276H255.938ZM263.317 100.18C262.829 100.18 262.419 100.092 262.087 99.916C261.759 99.74 261.513 99.506 261.349 99.214C261.185 98.922 261.103 98.604 261.103 98.26C261.103 97.908 261.173 97.608 261.313 97.36C261.457 97.108 261.651 96.902 261.895 96.742C262.143 96.582 262.429 96.46 262.753 96.376C263.081 96.296 263.443 96.226 263.839 96.166C264.239 96.102 264.629 96.048 265.009 96.004C265.393 95.956 265.729 95.91 266.017 95.866L265.705 96.058C265.717 95.418 265.593 94.944 265.333 94.636C265.073 94.328 264.621 94.174 263.977 94.174C263.533 94.174 263.157 94.274 262.849 94.474C262.545 94.674 262.331 94.99 262.207 95.422L261.349 95.17C261.497 94.59 261.795 94.14 262.243 93.82C262.691 93.5 263.273 93.34 263.989 93.34C264.581 93.34 265.083 93.452 265.495 93.676C265.911 93.896 266.205 94.216 266.377 94.636C266.457 94.824 266.509 95.034 266.533 95.266C266.557 95.498 266.569 95.734 266.569 95.974V100H265.783V98.374L266.011 98.47C265.791 99.026 265.449 99.45 264.985 99.742C264.521 100.034 263.965 100.18 263.317 100.18ZM263.419 99.418C263.831 99.418 264.191 99.344 264.499 99.196C264.807 99.048 265.055 98.846 265.243 98.59C265.431 98.33 265.553 98.038 265.609 97.714C265.657 97.506 265.683 97.278 265.687 97.03C265.691 96.778 265.693 96.59 265.693 96.466L266.029 96.64C265.729 96.68 265.403 96.72 265.051 96.76C264.703 96.8 264.359 96.846 264.019 96.898C263.683 96.95 263.379 97.012 263.107 97.084C262.923 97.136 262.745 97.21 262.573 97.306C262.401 97.398 262.259 97.522 262.147 97.678C262.039 97.834 261.985 98.028 261.985 98.26C261.985 98.448 262.031 98.63 262.123 98.806C262.219 98.982 262.371 99.128 262.579 99.244C262.791 99.36 263.071 99.418 263.419 99.418ZM240.446 114L238.094 107.52H238.988L240.902 112.848L242.804 107.52H243.71L241.358 114H240.446ZM247.295 114.18C246.663 114.18 246.115 114.04 245.651 113.76C245.191 113.48 244.833 113.086 244.577 112.578C244.321 112.07 244.193 111.474 244.193 110.79C244.193 110.082 244.319 109.47 244.571 108.954C244.823 108.438 245.177 108.04 245.633 107.76C246.093 107.48 246.635 107.34 247.259 107.34C247.899 107.34 248.445 107.488 248.897 107.784C249.349 108.076 249.691 108.496 249.923 109.044C250.155 109.592 250.261 110.246 250.241 111.006H249.341V110.694C249.325 109.854 249.143 109.22 248.795 108.792C248.451 108.364 247.947 108.15 247.283 108.15C246.587 108.15 246.053 108.376 245.681 108.828C245.313 109.28 245.129 109.924 245.129 110.76C245.129 111.576 245.313 112.21 245.681 112.662C246.053 113.11 246.579 113.334 247.259 113.334C247.723 113.334 248.127 113.228 248.471 113.016C248.819 112.8 249.093 112.49 249.293 112.086L250.115 112.404C249.859 112.968 249.481 113.406 248.981 113.718C248.485 114.026 247.923 114.18 247.295 114.18ZM244.817 111.006V110.268H249.767V111.006H244.817ZM251.572 114V107.52H252.364V109.08L252.208 108.876C252.28 108.684 252.374 108.508 252.49 108.348C252.606 108.184 252.732 108.05 252.868 107.946C253.036 107.798 253.232 107.686 253.456 107.61C253.68 107.53 253.906 107.484 254.134 107.472C254.362 107.456 254.57 107.472 254.758 107.52V108.348C254.522 108.288 254.264 108.274 253.984 108.306C253.704 108.338 253.446 108.45 253.21 108.642C252.994 108.81 252.832 109.012 252.724 109.248C252.616 109.48 252.544 109.728 252.508 109.992C252.472 110.252 252.454 110.51 252.454 110.766V114H251.572ZM258.08 114.174C257.32 114.174 256.694 114.01 256.202 113.682C255.714 113.354 255.414 112.898 255.302 112.314L256.202 112.164C256.298 112.532 256.516 112.826 256.856 113.046C257.2 113.262 257.624 113.37 258.128 113.37C258.62 113.37 259.008 113.268 259.292 113.064C259.576 112.856 259.718 112.574 259.718 112.218C259.718 112.018 259.672 111.856 259.58 111.732C259.492 111.604 259.31 111.486 259.034 111.378C258.758 111.27 258.346 111.142 257.798 110.994C257.21 110.834 256.75 110.674 256.418 110.514C256.086 110.354 255.85 110.17 255.71 109.962C255.57 109.75 255.5 109.492 255.5 109.188C255.5 108.82 255.604 108.498 255.812 108.222C256.02 107.942 256.308 107.726 256.676 107.574C257.044 107.418 257.472 107.34 257.96 107.34C258.448 107.34 258.884 107.42 259.268 107.58C259.656 107.736 259.968 107.956 260.204 108.24C260.44 108.524 260.58 108.854 260.624 109.23L259.724 109.392C259.664 109.012 259.474 108.712 259.154 108.492C258.838 108.268 258.436 108.152 257.948 108.144C257.488 108.132 257.114 108.22 256.826 108.408C256.538 108.592 256.394 108.838 256.394 109.146C256.394 109.318 256.446 109.466 256.55 109.59C256.654 109.71 256.842 109.824 257.114 109.932C257.39 110.04 257.782 110.158 258.29 110.286C258.886 110.438 259.354 110.598 259.694 110.766C260.034 110.934 260.276 111.132 260.42 111.36C260.564 111.588 260.636 111.87 260.636 112.206C260.636 112.818 260.408 113.3 259.952 113.652C259.5 114 258.876 114.174 258.08 114.174ZM264.709 114.18C264.077 114.18 263.529 114.04 263.065 113.76C262.605 113.48 262.247 113.086 261.991 112.578C261.735 112.07 261.607 111.474 261.607 110.79C261.607 110.082 261.733 109.47 261.985 108.954C262.237 108.438 262.591 108.04 263.047 107.76C263.507 107.48 264.049 107.34 264.673 107.34C265.313 107.34 265.859 107.488 266.311 107.784C266.763 108.076 267.105 108.496 267.337 109.044C267.569 109.592 267.675 110.246 267.655 111.006H266.755V110.694C266.739 109.854 266.557 109.22 266.209 108.792C265.865 108.364 265.361 108.15 264.697 108.15C264.001 108.15 263.467 108.376 263.095 108.828C262.727 109.28 262.543 109.924 262.543 110.76C262.543 111.576 262.727 112.21 263.095 112.662C263.467 113.11 263.993 113.334 264.673 113.334C265.137 113.334 265.541 113.228 265.885 113.016C266.233 112.8 266.507 112.49 266.707 112.086L267.529 112.404C267.273 112.968 266.895 113.406 266.395 113.718C265.899 114.026 265.337 114.18 264.709 114.18ZM262.231 111.006V110.268H267.181V111.006H262.231Z" fill="#434343"/>
<path d="M241.875 33V24.36H244.497C244.589 24.36 244.745 24.362 244.965 24.366C245.189 24.37 245.403 24.386 245.607 24.414C246.263 24.506 246.811 24.75 247.251 25.146C247.691 25.542 248.021 26.046 248.241 26.658C248.461 27.27 248.571 27.944 248.571 28.68C248.571 29.416 248.461 30.09 248.241 30.702C248.021 31.314 247.691 31.818 247.251 32.214C246.811 32.61 246.263 32.854 245.607 32.946C245.407 32.97 245.193 32.986 244.965 32.994C244.737 32.998 244.581 33 244.497 33H241.875ZM242.787 32.154H244.497C244.661 32.154 244.837 32.15 245.025 32.142C245.217 32.13 245.381 32.11 245.517 32.082C246.021 31.994 246.427 31.79 246.735 31.47C247.047 31.15 247.275 30.75 247.419 30.27C247.563 29.786 247.635 29.256 247.635 28.68C247.635 28.1 247.563 27.568 247.419 27.084C247.275 26.6 247.047 26.2 246.735 25.884C246.423 25.568 246.017 25.366 245.517 25.278C245.381 25.25 245.215 25.232 245.019 25.224C244.827 25.212 244.653 25.206 244.497 25.206H242.787V32.154ZM252.68 33.18C252.048 33.18 251.5 33.04 251.036 32.76C250.576 32.48 250.218 32.086 249.962 31.578C249.706 31.07 249.578 30.474 249.578 29.79C249.578 29.082 249.704 28.47 249.956 27.954C250.208 27.438 250.562 27.04 251.018 26.76C251.478 26.48 252.02 26.34 252.644 26.34C253.284 26.34 253.83 26.488 254.282 26.784C254.734 27.076 255.076 27.496 255.308 28.044C255.54 28.592 255.646 29.246 255.626 30.006H254.726V29.694C254.71 28.854 254.528 28.22 254.18 27.792C253.836 27.364 253.332 27.15 252.668 27.15C251.972 27.15 251.438 27.376 251.066 27.828C250.698 28.28 250.514 28.924 250.514 29.76C250.514 30.576 250.698 31.21 251.066 31.662C251.438 32.11 251.964 32.334 252.644 32.334C253.108 32.334 253.512 32.228 253.856 32.016C254.204 31.8 254.478 31.49 254.678 31.086L255.5 31.404C255.244 31.968 254.866 32.406 254.366 32.718C253.87 33.026 253.308 33.18 252.68 33.18ZM250.202 30.006V29.268H255.152V30.006H250.202ZM256.957 33V24.36H261.919V25.242H257.839V28.242H261.199V29.118H257.839V33H256.957ZM263.124 25.29V24.3H264.006V25.29H263.124ZM263.124 33V26.52H264.006V33H263.124Z" fill="#434343"/>
<path d="M87.155 107.68C86.547 107.68 85.999 107.574 85.511 107.362C85.023 107.15 84.607 106.848 84.263 106.456C83.923 106.064 83.663 105.592 83.483 105.04C83.303 104.484 83.213 103.864 83.213 103.18C83.213 102.276 83.369 101.488 83.681 100.816C83.997 100.14 84.449 99.616 85.037 99.244C85.625 98.872 86.331 98.686 87.155 98.686C88.075 98.686 88.823 98.902 89.399 99.334C89.979 99.762 90.383 100.338 90.611 101.062L89.723 101.278C89.535 100.75 89.225 100.328 88.793 100.012C88.365 99.696 87.831 99.538 87.191 99.538C86.515 99.534 85.953 99.686 85.505 99.994C85.057 100.298 84.719 100.726 84.491 101.278C84.267 101.826 84.153 102.46 84.149 103.18C84.145 103.9 84.255 104.534 84.479 105.082C84.707 105.626 85.047 106.054 85.499 106.366C85.951 106.674 86.515 106.83 87.191 106.834C87.811 106.834 88.323 106.714 88.727 106.474C89.131 106.234 89.437 105.89 89.645 105.442C89.857 104.994 89.977 104.464 90.005 103.852H88.013V103.096H90.929C90.941 103.188 90.947 103.286 90.947 103.39C90.951 103.49 90.953 103.562 90.953 103.606C90.953 104.386 90.813 105.084 90.533 105.7C90.253 106.312 89.831 106.796 89.267 107.152C88.707 107.504 88.003 107.68 87.155 107.68ZM94.008 107.68C93.52 107.68 93.11 107.592 92.778 107.416C92.45 107.24 92.204 107.006 92.04 106.714C91.876 106.422 91.794 106.104 91.794 105.76C91.794 105.408 91.864 105.108 92.004 104.86C92.148 104.608 92.342 104.402 92.586 104.242C92.834 104.082 93.12 103.96 93.444 103.876C93.772 103.796 94.134 103.726 94.53 103.666C94.93 103.602 95.32 103.548 95.7 103.504C96.084 103.456 96.42 103.41 96.708 103.366L96.396 103.558C96.408 102.918 96.284 102.444 96.024 102.136C95.764 101.828 95.312 101.674 94.668 101.674C94.224 101.674 93.848 101.774 93.54 101.974C93.236 102.174 93.022 102.49 92.898 102.922L92.04 102.67C92.188 102.09 92.486 101.64 92.934 101.32C93.382 101 93.964 100.84 94.68 100.84C95.272 100.84 95.774 100.952 96.186 101.176C96.602 101.396 96.896 101.716 97.068 102.136C97.148 102.324 97.2 102.534 97.224 102.766C97.248 102.998 97.26 103.234 97.26 103.474V107.5H96.474V105.874L96.702 105.97C96.482 106.526 96.14 106.95 95.676 107.242C95.212 107.534 94.656 107.68 94.008 107.68ZM94.11 106.918C94.522 106.918 94.882 106.844 95.19 106.696C95.498 106.548 95.746 106.346 95.934 106.09C96.122 105.83 96.244 105.538 96.3 105.214C96.348 105.006 96.374 104.778 96.378 104.53C96.382 104.278 96.384 104.09 96.384 103.966L96.72 104.14C96.42 104.18 96.094 104.22 95.742 104.26C95.394 104.3 95.05 104.346 94.71 104.398C94.374 104.45 94.07 104.512 93.798 104.584C93.614 104.636 93.436 104.71 93.264 104.806C93.092 104.898 92.95 105.022 92.838 105.178C92.73 105.334 92.676 105.528 92.676 105.76C92.676 105.948 92.722 106.13 92.814 106.306C92.91 106.482 93.062 106.628 93.27 106.744C93.482 106.86 93.762 106.918 94.11 106.918ZM106.55 107.5L106.556 103.246C106.556 102.746 106.416 102.354 106.136 102.07C105.86 101.782 105.508 101.638 105.08 101.638C104.836 101.638 104.598 101.694 104.366 101.806C104.134 101.918 103.942 102.098 103.79 102.346C103.642 102.594 103.568 102.918 103.568 103.318L103.046 103.168C103.034 102.704 103.124 102.298 103.316 101.95C103.512 101.602 103.78 101.332 104.12 101.14C104.464 100.944 104.852 100.846 105.284 100.846C105.936 100.846 106.458 101.048 106.85 101.452C107.242 101.852 107.438 102.394 107.438 103.078L107.432 107.5H106.55ZM98.8159 107.5V101.02H99.6079V102.616H99.7039V107.5H98.8159ZM102.692 107.5L102.698 103.306C102.698 102.79 102.56 102.384 102.284 102.088C102.012 101.788 101.652 101.638 101.204 101.638C100.756 101.638 100.394 101.792 100.118 102.1C99.8419 102.404 99.7039 102.81 99.7039 103.318L99.1759 103.03C99.1759 102.614 99.2739 102.242 99.4699 101.914C99.6659 101.582 99.9339 101.322 100.274 101.134C100.614 100.942 101 100.846 101.432 100.846C101.844 100.846 102.21 100.934 102.53 101.11C102.854 101.286 103.108 101.542 103.292 101.878C103.476 102.214 103.568 102.622 103.568 103.102L103.562 107.5H102.692ZM111.689 107.68C111.057 107.68 110.509 107.54 110.045 107.26C109.585 106.98 109.227 106.586 108.971 106.078C108.715 105.57 108.587 104.974 108.587 104.29C108.587 103.582 108.713 102.97 108.965 102.454C109.217 101.938 109.571 101.54 110.027 101.26C110.487 100.98 111.029 100.84 111.653 100.84C112.293 100.84 112.839 100.988 113.291 101.284C113.743 101.576 114.085 101.996 114.317 102.544C114.549 103.092 114.655 103.746 114.635 104.506H113.735V104.194C113.719 103.354 113.537 102.72 113.189 102.292C112.845 101.864 112.341 101.65 111.677 101.65C110.981 101.65 110.447 101.876 110.075 102.328C109.707 102.78 109.523 103.424 109.523 104.26C109.523 105.076 109.707 105.71 110.075 106.162C110.447 106.61 110.973 106.834 111.653 106.834C112.117 106.834 112.521 106.728 112.865 106.516C113.213 106.3 113.487 105.99 113.687 105.586L114.509 105.904C114.253 106.468 113.875 106.906 113.375 107.218C112.879 107.526 112.317 107.68 111.689 107.68ZM109.211 104.506V103.768H114.161V104.506H109.211ZM116.608 107.5V100.54C116.608 100.372 116.616 100.206 116.632 100.042C116.652 99.878 116.69 99.722 116.746 99.574C116.802 99.422 116.89 99.282 117.01 99.154C117.142 99.01 117.286 98.906 117.442 98.842C117.598 98.774 117.76 98.73 117.928 98.71C118.1 98.69 118.268 98.68 118.432 98.68H119.26V99.424H118.492C118.156 99.424 117.904 99.506 117.736 99.67C117.572 99.834 117.49 100.092 117.49 100.444V107.5H116.608ZM115.486 101.776V101.02H119.26V101.776H115.486ZM120.52 99.79V98.8H121.402V99.79H120.52ZM120.52 107.5V101.02H121.402V107.5H120.52Z" fill="#434343"/>
<path d="M88.694 33L86.198 24.36H87.116L89.138 31.494L91.148 24.366L92.072 24.36L94.094 31.494L96.104 24.36H97.028L94.538 33H93.65L91.61 25.914L89.582 33H88.694ZM100.094 33.18C99.4617 33.18 98.9137 33.04 98.4497 32.76C97.9897 32.48 97.6317 32.086 97.3757 31.578C97.1197 31.07 96.9917 30.474 96.9917 29.79C96.9917 29.082 97.1177 28.47 97.3697 27.954C97.6217 27.438 97.9757 27.04 98.4317 26.76C98.8917 26.48 99.4337 26.34 100.058 26.34C100.698 26.34 101.244 26.488 101.696 26.784C102.148 27.076 102.49 27.496 102.722 28.044C102.954 28.592 103.06 29.246 103.04 30.006H102.14V29.694C102.124 28.854 101.942 28.22 101.594 27.792C101.25 27.364 100.746 27.15 100.082 27.15C99.3857 27.15 98.8517 27.376 98.4797 27.828C98.1117 28.28 97.9277 28.924 97.9277 29.76C97.9277 30.576 98.1117 31.21 98.4797 31.662C98.8517 32.11 99.3777 32.334 100.058 32.334C100.522 32.334 100.926 32.228 101.27 32.016C101.618 31.8 101.892 31.49 102.092 31.086L102.914 31.404C102.658 31.968 102.28 32.406 101.78 32.718C101.284 33.026 100.722 33.18 100.094 33.18ZM97.6157 30.006V29.268H102.566V30.006H97.6157ZM107.281 33.18C106.685 33.18 106.181 33.03 105.769 32.73C105.357 32.426 105.045 32.016 104.833 31.5C104.621 30.98 104.515 30.398 104.515 29.754C104.515 29.098 104.621 28.514 104.833 28.002C105.049 27.486 105.365 27.08 105.781 26.784C106.197 26.488 106.709 26.34 107.317 26.34C107.909 26.34 108.417 26.49 108.841 26.79C109.265 27.09 109.589 27.498 109.813 28.014C110.041 28.53 110.155 29.11 110.155 29.754C110.155 30.402 110.041 30.984 109.813 31.5C109.585 32.016 109.257 32.426 108.829 32.73C108.401 33.03 107.885 33.18 107.281 33.18ZM104.365 33V24.36H105.253V28.122H105.157V33H104.365ZM107.191 32.358C107.643 32.358 108.019 32.244 108.319 32.016C108.619 31.788 108.843 31.478 108.991 31.086C109.143 30.69 109.219 30.246 109.219 29.754C109.219 29.266 109.145 28.826 108.997 28.434C108.849 28.042 108.623 27.732 108.319 27.504C108.019 27.276 107.637 27.162 107.173 27.162C106.721 27.162 106.345 27.272 106.045 27.492C105.749 27.712 105.527 28.018 105.379 28.41C105.231 28.798 105.157 29.246 105.157 29.754C105.157 30.254 105.231 30.702 105.379 31.098C105.527 31.49 105.751 31.798 106.051 32.022C106.351 32.246 106.731 32.358 107.191 32.358ZM116.197 33.174C115.769 33.174 115.375 33.098 115.015 32.946C114.655 32.794 114.345 32.578 114.085 32.298C113.825 32.014 113.635 31.676 113.515 31.284L114.355 31.032C114.499 31.46 114.735 31.784 115.063 32.004C115.395 32.224 115.769 32.33 116.185 32.322C116.569 32.314 116.899 32.228 117.175 32.064C117.455 31.9 117.669 31.672 117.817 31.38C117.965 31.088 118.039 30.75 118.039 30.366C118.039 29.778 117.867 29.306 117.523 28.95C117.183 28.59 116.733 28.41 116.173 28.41C116.017 28.41 115.853 28.432 115.681 28.476C115.509 28.516 115.349 28.574 115.201 28.65L114.757 27.948L118.117 24.846L118.261 25.206H113.857V24.36H118.849V25.218L115.921 28.014L115.909 27.666C116.509 27.59 117.037 27.658 117.493 27.87C117.949 28.082 118.305 28.406 118.561 28.842C118.821 29.274 118.951 29.782 118.951 30.366C118.951 30.918 118.831 31.406 118.591 31.83C118.355 32.25 118.029 32.58 117.613 32.82C117.197 33.056 116.725 33.174 116.197 33.174Z" fill="#434343"/>
<path d="M13.338 33.18C12.478 33.18 11.752 32.99 11.16 32.61C10.568 32.226 10.12 31.696 9.816 31.02C9.512 30.344 9.36 29.564 9.36 28.68C9.36 27.796 9.512 27.016 9.816 26.34C10.12 25.664 10.568 25.136 11.16 24.756C11.752 24.372 12.478 24.18 13.338 24.18C14.342 24.18 15.162 24.438 15.798 24.954C16.434 25.466 16.87 26.154 17.106 27.018L16.206 27.252C16.022 26.568 15.692 26.026 15.216 25.626C14.74 25.226 14.114 25.026 13.338 25.026C12.662 25.026 12.1 25.18 11.652 25.488C11.204 25.796 10.866 26.226 10.638 26.778C10.414 27.326 10.298 27.96 10.29 28.68C10.286 29.4 10.396 30.034 10.62 30.582C10.848 31.13 11.188 31.56 11.64 31.872C12.096 32.18 12.662 32.334 13.338 32.334C14.114 32.334 14.74 32.134 15.216 31.734C15.692 31.33 16.022 30.788 16.206 30.108L17.106 30.342C16.87 31.206 16.434 31.896 15.798 32.412C15.162 32.924 14.342 33.18 13.338 33.18ZM18.4298 33V26.52H19.2218V28.08L19.0658 27.876C19.1378 27.684 19.2318 27.508 19.3478 27.348C19.4638 27.184 19.5898 27.05 19.7258 26.946C19.8938 26.798 20.0898 26.686 20.3138 26.61C20.5378 26.53 20.7638 26.484 20.9918 26.472C21.2198 26.456 21.4278 26.472 21.6158 26.52V27.348C21.3798 27.288 21.1218 27.274 20.8418 27.306C20.5618 27.338 20.3038 27.45 20.0678 27.642C19.8518 27.81 19.6898 28.012 19.5818 28.248C19.4738 28.48 19.4018 28.728 19.3658 28.992C19.3298 29.252 19.3118 29.51 19.3118 29.766V33H18.4298ZM23.596 35.88L24.85 32.478L24.868 33.486L22.03 26.52H22.966L25.294 32.346H24.91L27.058 26.52H27.958L24.478 35.88H23.596ZM31.9102 33.18C31.3142 33.18 30.8102 33.03 30.3982 32.73C29.9862 32.426 29.6742 32.016 29.4622 31.5C29.2502 30.98 29.1442 30.398 29.1442 29.754C29.1442 29.098 29.2502 28.514 29.4622 28.002C29.6782 27.486 29.9942 27.08 30.4102 26.784C30.8262 26.488 31.3382 26.34 31.9462 26.34C32.5382 26.34 33.0462 26.49 33.4702 26.79C33.8942 27.09 34.2182 27.498 34.4422 28.014C34.6702 28.53 34.7842 29.11 34.7842 29.754C34.7842 30.402 34.6702 30.984 34.4422 31.5C34.2142 32.016 33.8862 32.426 33.4582 32.73C33.0302 33.03 32.5142 33.18 31.9102 33.18ZM28.9942 35.88V26.52H29.7862V31.398H29.8822V35.88H28.9942ZM31.8202 32.358C32.2722 32.358 32.6482 32.244 32.9482 32.016C33.2482 31.788 33.4722 31.478 33.6202 31.086C33.7722 30.69 33.8482 30.246 33.8482 29.754C33.8482 29.266 33.7742 28.826 33.6262 28.434C33.4782 28.042 33.2522 27.732 32.9482 27.504C32.6482 27.276 32.2662 27.162 31.8022 27.162C31.3502 27.162 30.9742 27.272 30.6742 27.492C30.3782 27.712 30.1562 28.018 30.0082 28.41C29.8602 28.798 29.7862 29.246 29.7862 29.754C29.7862 30.254 29.8602 30.702 30.0082 31.098C30.1562 31.49 30.3802 31.798 30.6802 32.022C30.9802 32.246 31.3602 32.358 31.8202 32.358ZM39.6297 33C39.2657 33.076 38.9057 33.106 38.5497 33.09C38.1977 33.074 37.8817 32.998 37.6017 32.862C37.3257 32.726 37.1157 32.514 36.9717 32.226C36.8557 31.986 36.7917 31.744 36.7797 31.5C36.7717 31.252 36.7677 30.97 36.7677 30.654V24.72H37.6437V30.618C37.6437 30.89 37.6457 31.118 37.6497 31.302C37.6577 31.482 37.6997 31.642 37.7757 31.782C37.9197 32.05 38.1477 32.21 38.4597 32.262C38.7757 32.314 39.1657 32.302 39.6297 32.226V33ZM35.3817 27.276V26.52H39.6297V27.276H35.3817ZM43.378 33.18C42.734 33.18 42.184 33.034 41.728 32.742C41.272 32.45 40.922 32.046 40.678 31.53C40.434 31.014 40.312 30.422 40.312 29.754C40.312 29.074 40.436 28.478 40.684 27.966C40.932 27.454 41.284 27.056 41.74 26.772C42.2 26.484 42.746 26.34 43.378 26.34C44.026 26.34 44.578 26.486 45.034 26.778C45.494 27.066 45.844 27.468 46.084 27.984C46.328 28.496 46.45 29.086 46.45 29.754C46.45 30.434 46.328 31.032 46.084 31.548C45.84 32.06 45.488 32.46 45.028 32.748C44.568 33.036 44.018 33.18 43.378 33.18ZM43.378 32.334C44.098 32.334 44.634 32.096 44.986 31.62C45.338 31.14 45.514 30.518 45.514 29.754C45.514 28.97 45.336 28.346 44.98 27.882C44.628 27.418 44.094 27.186 43.378 27.186C42.894 27.186 42.494 27.296 42.178 27.516C41.866 27.732 41.632 28.034 41.476 28.422C41.324 28.806 41.248 29.25 41.248 29.754C41.248 30.534 41.428 31.16 41.788 31.632C42.148 32.1 42.678 32.334 43.378 32.334Z" fill="#434343"/>
</svg>
