<svg width="601" height="521" viewBox="0 0 601 521" fill="none" xmlns="http://www.w3.org/2000/svg">
<g clip-path="url(#clip0_439_254)">
<rect x="1.63281" y="1.80652" width="598" height="518" rx="39" stroke="url(#paint0_linear_439_254)" stroke-width="2"/>
<rect x="56.1895" y="281.884" width="1.3" height="128.831" fill="#4B5B28"/>
<rect x="43.1875" y="307.65" width="26" height="77.2986" fill="url(#paint1_linear_439_254)"/>
<rect x="137.766" y="269.001" width="1.3" height="75.6312" fill="#471919"/>
<rect x="124.764" y="284.127" width="26" height="45.3787" fill="url(#paint2_linear_439_254)"/>
<rect x="219.346" y="269.001" width="1.3" height="143.959" fill="#471919"/>
<rect x="206.344" y="297.793" width="26" height="86.3754" fill="url(#paint3_linear_439_254)"/>
<rect x="260.137" y="307.967" width="1.3" height="79.2271" fill="#471919"/>
<rect x="247.135" y="323.812" width="26" height="47.5362" fill="url(#paint4_linear_439_254)"/>
<rect x="423.287" y="217.785" width="1.3" height="79.2271" fill="#471919"/>
<rect x="410.285" y="233.631" width="26" height="47.5362" fill="url(#paint5_linear_439_254)"/>
<rect x="464.074" y="256.352" width="1.3" height="40.6593" fill="#471919"/>
<rect x="451.072" y="264.484" width="26" height="24.3956" fill="url(#paint6_linear_439_254)"/>
<rect x="545.652" y="191.937" width="1.3" height="40.6593" fill="#471919"/>
<rect x="532.65" y="200.069" width="26" height="24.3956" fill="url(#paint7_linear_439_254)"/>
<rect x="15.4023" y="283.879" width="1.3" height="90.1492" fill="#471919"/>
<rect x="2.40039" y="301.909" width="26" height="54.0895" fill="url(#paint8_linear_439_254)"/>
<rect x="96.9805" y="224.204" width="1.3" height="160.745" fill="#4B5B28"/>
<rect x="83.9785" y="256.352" width="26" height="96.447" fill="url(#paint9_linear_439_254)"/>
<rect x="178.557" y="198.437" width="1.3" height="160.745" fill="#4B5B28"/>
<rect x="165.555" y="230.586" width="26" height="96.447" fill="url(#paint10_linear_439_254)"/>
<rect x="300.924" y="323.518" width="1.3" height="48.5479" fill="#4B5B28"/>
<rect x="287.922" y="333.227" width="26" height="29.1288" fill="url(#paint11_linear_439_254)"/>
<rect x="341.711" y="271.244" width="1.3" height="87.9386" fill="#4B5B28"/>
<rect x="328.709" y="288.832" width="26" height="52.7631" fill="url(#paint12_linear_439_254)"/>
<rect x="504.865" y="163.573" width="1.3" height="118.311" fill="#4B5B28"/>
<rect x="491.863" y="187.235" width="26" height="70.9865" fill="url(#paint13_linear_439_254)"/>
<rect x="586.443" y="163.573" width="1.3" height="44.6206" fill="#4B5B28"/>
<rect x="573.441" y="172.497" width="26" height="26.7724" fill="url(#paint14_linear_439_254)"/>
<rect x="382.502" y="170.447" width="1.3" height="188.736" fill="#4B5B28"/>
<rect x="369.5" y="208.194" width="26" height="113.242" fill="url(#paint15_linear_439_254)"/>
<path d="M152.022 89.3466C150.162 89.3466 148.482 89.0286 146.982 88.3926C145.494 87.7446 144.264 86.8266 143.292 85.6386C142.332 84.4386 141.708 83.0166 141.42 81.3726L145.344 80.7786C145.74 82.3626 146.568 83.5986 147.828 84.4866C149.088 85.3626 150.558 85.8006 152.238 85.8006C153.282 85.8006 154.242 85.6386 155.118 85.3146C155.994 84.9786 156.696 84.5046 157.224 83.8926C157.764 83.2686 158.034 82.5246 158.034 81.6606C158.034 81.1926 157.95 80.7786 157.782 80.4186C157.626 80.0586 157.404 79.7466 157.116 79.4826C156.84 79.2066 156.498 78.9726 156.09 78.7806C155.694 78.5766 155.256 78.4026 154.776 78.2586L148.134 76.2966C147.486 76.1046 146.826 75.8586 146.154 75.5586C145.482 75.2466 144.864 74.8446 144.3 74.3526C143.748 73.8486 143.298 73.2306 142.95 72.4986C142.602 71.7546 142.428 70.8546 142.428 69.7986C142.428 68.2026 142.836 66.8526 143.652 65.7486C144.48 64.6326 145.596 63.7926 147 63.2286C148.404 62.6526 149.976 62.3646 151.716 62.3646C153.468 62.3886 155.034 62.7006 156.414 63.3006C157.806 63.9006 158.958 64.7646 159.87 65.8926C160.794 67.0086 161.43 68.3646 161.778 69.9606L157.746 70.6446C157.566 69.6726 157.182 68.8386 156.594 68.1426C156.006 67.4346 155.286 66.8946 154.434 66.5226C153.582 66.1386 152.658 65.9406 151.662 65.9286C150.702 65.9046 149.82 66.0486 149.016 66.3606C148.224 66.6726 147.588 67.1106 147.108 67.6746C146.64 68.2386 146.406 68.8866 146.406 69.6186C146.406 70.3386 146.616 70.9206 147.036 71.3646C147.456 71.8086 147.972 72.1626 148.584 72.4266C149.208 72.6786 149.826 72.8886 150.438 73.0566L155.226 74.4066C155.826 74.5746 156.504 74.8026 157.26 75.0906C158.028 75.3666 158.766 75.7566 159.474 76.2606C160.194 76.7646 160.788 77.4366 161.256 78.2766C161.724 79.1046 161.958 80.1486 161.958 81.4086C161.958 82.7166 161.694 83.8686 161.166 84.8646C160.638 85.8486 159.912 86.6766 158.988 87.3486C158.076 88.0086 157.02 88.5066 155.82 88.8426C154.62 89.1786 153.354 89.3466 152.022 89.3466ZM176.918 88.8066C175.694 89.0466 174.494 89.1486 173.318 89.1126C172.142 89.0766 171.092 88.8486 170.168 88.4286C169.244 88.0086 168.548 87.3486 168.08 86.4486C167.66 85.6446 167.432 84.8286 167.396 84.0006C167.372 83.1606 167.36 82.2126 167.36 81.1566V63.9666H171.14V80.9766C171.14 81.7566 171.146 82.4346 171.158 83.0106C171.182 83.5866 171.308 84.0726 171.536 84.4686C171.968 85.2126 172.652 85.6386 173.588 85.7466C174.536 85.8426 175.646 85.8006 176.918 85.6206V88.8066ZM163.634 72.3906V69.3666H176.918V72.3906H163.634ZM186.507 89.3466C185.067 89.3466 183.861 89.0826 182.889 88.5546C181.917 88.0146 181.179 87.3066 180.675 86.4306C180.183 85.5426 179.937 84.5706 179.937 83.5146C179.937 82.5306 180.111 81.6666 180.459 80.9226C180.807 80.1786 181.323 79.5486 182.007 79.0326C182.691 78.5046 183.531 78.0786 184.527 77.7546C185.391 77.5026 186.369 77.2806 187.461 77.0886C188.553 76.8966 189.699 76.7166 190.899 76.5486C192.111 76.3806 193.311 76.2126 194.499 76.0446L193.131 76.8006C193.155 75.2766 192.831 74.1486 192.159 73.4166C191.499 72.6726 190.359 72.3006 188.739 72.3006C187.719 72.3006 186.783 72.5406 185.931 73.0206C185.079 73.4886 184.485 74.2686 184.149 75.3606L180.639 74.2806C181.119 72.6126 182.031 71.2866 183.375 70.3026C184.731 69.3186 186.531 68.8266 188.775 68.8266C190.515 68.8266 192.027 69.1266 193.311 69.7266C194.607 70.3146 195.555 71.2506 196.155 72.5346C196.467 73.1706 196.659 73.8426 196.731 74.5506C196.803 75.2586 196.839 76.0206 196.839 76.8366V88.8066H193.509V84.3606L194.157 84.9366C193.353 86.4246 192.327 87.5346 191.079 88.2666C189.843 88.9866 188.319 89.3466 186.507 89.3466ZM187.173 86.2686C188.241 86.2686 189.159 86.0826 189.927 85.7106C190.695 85.3266 191.313 84.8406 191.781 84.2526C192.249 83.6646 192.555 83.0526 192.699 82.4166C192.903 81.8406 193.017 81.1926 193.041 80.4726C193.077 79.7526 193.095 79.1766 193.095 78.7446L194.319 79.1946C193.131 79.3746 192.051 79.5366 191.079 79.6806C190.107 79.8246 189.225 79.9686 188.433 80.1126C187.653 80.2446 186.957 80.4066 186.345 80.5986C185.829 80.7786 185.367 80.9946 184.959 81.2466C184.563 81.4986 184.245 81.8046 184.005 82.1646C183.777 82.5246 183.663 82.9626 183.663 83.4786C183.663 83.9826 183.789 84.4506 184.041 84.8826C184.293 85.3026 184.677 85.6386 185.193 85.8906C185.709 86.1426 186.369 86.2686 187.173 86.2686ZM212.637 88.8066C211.413 89.0466 210.213 89.1486 209.037 89.1126C207.861 89.0766 206.811 88.8486 205.887 88.4286C204.963 88.0086 204.267 87.3486 203.799 86.4486C203.379 85.6446 203.151 84.8286 203.115 84.0006C203.091 83.1606 203.079 82.2126 203.079 81.1566V63.9666H206.859V80.9766C206.859 81.7566 206.865 82.4346 206.877 83.0106C206.901 83.5866 207.027 84.0726 207.255 84.4686C207.687 85.2126 208.371 85.6386 209.307 85.7466C210.255 85.8426 211.365 85.8006 212.637 85.6206V88.8066ZM199.353 72.3906V69.3666H212.637V72.3906H199.353ZM217.096 66.1806V62.5266H220.858V66.1806H217.096ZM217.096 88.8066V69.3666H220.858V88.8066H217.096ZM233.697 89.3286C231.333 89.3286 229.407 88.8066 227.919 87.7626C226.431 86.7186 225.519 85.2486 225.183 83.3526L229.035 82.7586C229.275 83.7666 229.827 84.5646 230.691 85.1526C231.567 85.7286 232.653 86.0166 233.949 86.0166C235.125 86.0166 236.043 85.7766 236.703 85.2966C237.375 84.8166 237.711 84.1566 237.711 83.3166C237.711 82.8246 237.591 82.4286 237.351 82.1286C237.123 81.8166 236.637 81.5226 235.893 81.2466C235.149 80.9706 234.015 80.6286 232.491 80.2206C230.823 79.7886 229.497 79.3266 228.513 78.8346C227.541 78.3306 226.845 77.7486 226.425 77.0886C226.017 76.4166 225.813 75.6066 225.813 74.6586C225.813 73.4826 226.125 72.4566 226.749 71.5806C227.373 70.7046 228.249 70.0266 229.377 69.5466C230.517 69.0666 231.849 68.8266 233.373 68.8266C234.861 68.8266 236.187 69.0606 237.351 69.5286C238.515 69.9966 239.457 70.6626 240.177 71.5266C240.897 72.3786 241.329 73.3806 241.473 74.5326L237.621 75.2346C237.489 74.2986 237.051 73.5606 236.307 73.0206C235.563 72.4806 234.597 72.1866 233.409 72.1386C232.269 72.0906 231.345 72.2826 230.637 72.7146C229.929 73.1346 229.575 73.7166 229.575 74.4606C229.575 74.8926 229.707 75.2586 229.971 75.5586C230.247 75.8586 230.775 76.1466 231.555 76.4226C232.335 76.6986 233.487 77.0286 235.011 77.4126C236.643 77.8326 237.939 78.3006 238.899 78.8166C239.859 79.3206 240.543 79.9266 240.951 80.6346C241.371 81.3306 241.581 82.1766 241.581 83.1726C241.581 85.0926 240.879 86.5986 239.475 87.6906C238.083 88.7826 236.157 89.3286 233.697 89.3286ZM256.688 88.8066C255.464 89.0466 254.264 89.1486 253.088 89.1126C251.912 89.0766 250.862 88.8486 249.938 88.4286C249.014 88.0086 248.318 87.3486 247.85 86.4486C247.43 85.6446 247.202 84.8286 247.166 84.0006C247.142 83.1606 247.13 82.2126 247.13 81.1566V63.9666H250.91V80.9766C250.91 81.7566 250.916 82.4346 250.928 83.0106C250.952 83.5866 251.078 84.0726 251.306 84.4686C251.738 85.2126 252.422 85.6386 253.358 85.7466C254.306 85.8426 255.416 85.8006 256.688 85.6206V88.8066ZM243.404 72.3906V69.3666H256.688V72.3906H243.404ZM261.146 66.1806V62.5266H264.908V66.1806H261.146ZM261.146 88.8066V69.3666H264.908V88.8066H261.146ZM278.63 89.3466C276.638 89.3466 274.946 88.9026 273.554 88.0146C272.162 87.1266 271.094 85.9086 270.35 84.3606C269.618 82.8126 269.246 81.0546 269.234 79.0866C269.246 77.0826 269.63 75.3126 270.386 73.7766C271.142 72.2286 272.222 71.0166 273.626 70.1406C275.03 69.2646 276.716 68.8266 278.684 68.8266C280.808 68.8266 282.62 69.3546 284.12 70.4106C285.632 71.4666 286.628 72.9126 287.108 74.7486L283.364 75.8286C282.992 74.7366 282.38 73.8906 281.528 73.2906C280.688 72.6786 279.722 72.3726 278.63 72.3726C277.394 72.3726 276.38 72.6666 275.588 73.2546C274.796 73.8306 274.208 74.6226 273.824 75.6306C273.44 76.6386 273.242 77.7906 273.23 79.0866C273.242 81.0906 273.698 82.7106 274.598 83.9466C275.51 85.1826 276.854 85.8006 278.63 85.8006C279.842 85.8006 280.82 85.5246 281.564 84.9726C282.32 84.4086 282.896 83.6046 283.292 82.5606L287.108 83.4606C286.472 85.3566 285.422 86.8146 283.958 87.8346C282.494 88.8426 280.718 89.3466 278.63 89.3466ZM298.209 89.3286C295.845 89.3286 293.919 88.8066 292.431 87.7626C290.943 86.7186 290.031 85.2486 289.695 83.3526L293.547 82.7586C293.787 83.7666 294.339 84.5646 295.203 85.1526C296.079 85.7286 297.165 86.0166 298.461 86.0166C299.637 86.0166 300.555 85.7766 301.215 85.2966C301.887 84.8166 302.223 84.1566 302.223 83.3166C302.223 82.8246 302.103 82.4286 301.863 82.1286C301.635 81.8166 301.149 81.5226 300.405 81.2466C299.661 80.9706 298.527 80.6286 297.003 80.2206C295.335 79.7886 294.009 79.3266 293.025 78.8346C292.053 78.3306 291.357 77.7486 290.937 77.0886C290.529 76.4166 290.325 75.6066 290.325 74.6586C290.325 73.4826 290.637 72.4566 291.261 71.5806C291.885 70.7046 292.761 70.0266 293.889 69.5466C295.029 69.0666 296.361 68.8266 297.885 68.8266C299.373 68.8266 300.699 69.0606 301.863 69.5286C303.027 69.9966 303.969 70.6626 304.689 71.5266C305.409 72.3786 305.841 73.3806 305.985 74.5326L302.133 75.2346C302.001 74.2986 301.563 73.5606 300.819 73.0206C300.075 72.4806 299.109 72.1866 297.921 72.1386C296.781 72.0906 295.857 72.2826 295.149 72.7146C294.441 73.1346 294.087 73.7166 294.087 74.4606C294.087 74.8926 294.219 75.2586 294.483 75.5586C294.759 75.8586 295.287 76.1466 296.067 76.4226C296.847 76.6986 297.999 77.0286 299.523 77.4126C301.155 77.8326 302.451 78.3006 303.411 78.8166C304.371 79.3206 305.055 79.9266 305.463 80.6346C305.883 81.3306 306.093 82.1766 306.093 83.1726C306.093 85.0926 305.391 86.5986 303.987 87.6906C302.595 88.7826 300.669 89.3286 298.209 89.3286ZM325.725 89.3466C323.781 89.3466 322.095 88.9086 320.667 88.0326C319.239 87.1566 318.135 85.9506 317.355 84.4146C316.587 82.8666 316.203 81.0846 316.203 79.0686C316.203 77.0406 316.599 75.2586 317.391 73.7226C318.183 72.1746 319.293 70.9746 320.721 70.1226C322.149 69.2586 323.817 68.8266 325.725 68.8266C327.669 68.8266 329.355 69.2646 330.783 70.1406C332.211 71.0166 333.315 72.2226 334.095 73.7586C334.875 75.2946 335.265 77.0646 335.265 79.0686C335.265 81.0966 334.869 82.8846 334.077 84.4326C333.297 85.9686 332.193 87.1746 330.765 88.0506C329.337 88.9146 327.657 89.3466 325.725 89.3466ZM325.725 85.8006C327.585 85.8006 328.971 85.1766 329.883 83.9286C330.807 82.6686 331.269 81.0486 331.269 79.0686C331.269 77.0406 330.801 75.4206 329.865 74.2086C328.941 72.9846 327.561 72.3726 325.725 72.3726C324.465 72.3726 323.427 72.6606 322.611 73.2366C321.795 73.8006 321.189 74.5866 320.793 75.5946C320.397 76.5906 320.199 77.7486 320.199 79.0686C320.199 81.1086 320.667 82.7406 321.603 83.9646C322.539 85.1886 323.913 85.8006 325.725 85.8006ZM341.002 88.8066V68.6826C341.002 68.1906 341.02 67.6686 341.056 67.1166C341.092 66.5526 341.194 66.0006 341.362 65.4606C341.542 64.9086 341.836 64.4046 342.244 63.9486C342.736 63.4086 343.276 63.0246 343.864 62.7966C344.452 62.5686 345.034 62.4366 345.61 62.4006C346.198 62.3646 346.738 62.3466 347.23 62.3466H349.678V65.4426H347.41C346.522 65.4426 345.856 65.6646 345.412 66.1086C344.98 66.5406 344.764 67.1586 344.764 67.9626V88.8066H341.002ZM337.78 72.3906V69.3666H349.678V72.3906H337.78ZM367.185 89.3286C364.821 89.3286 362.895 88.8066 361.407 87.7626C359.919 86.7186 359.007 85.2486 358.671 83.3526L362.523 82.7586C362.763 83.7666 363.315 84.5646 364.179 85.1526C365.055 85.7286 366.141 86.0166 367.437 86.0166C368.613 86.0166 369.531 85.7766 370.191 85.2966C370.863 84.8166 371.199 84.1566 371.199 83.3166C371.199 82.8246 371.079 82.4286 370.839 82.1286C370.611 81.8166 370.125 81.5226 369.381 81.2466C368.637 80.9706 367.503 80.6286 365.979 80.2206C364.311 79.7886 362.985 79.3266 362.001 78.8346C361.029 78.3306 360.333 77.7486 359.913 77.0886C359.505 76.4166 359.301 75.6066 359.301 74.6586C359.301 73.4826 359.613 72.4566 360.237 71.5806C360.861 70.7046 361.737 70.0266 362.865 69.5466C364.005 69.0666 365.337 68.8266 366.861 68.8266C368.349 68.8266 369.675 69.0606 370.839 69.5286C372.003 69.9966 372.945 70.6626 373.665 71.5266C374.385 72.3786 374.817 73.3806 374.961 74.5326L371.109 75.2346C370.977 74.2986 370.539 73.5606 369.795 73.0206C369.051 72.4806 368.085 72.1866 366.897 72.1386C365.757 72.0906 364.833 72.2826 364.125 72.7146C363.417 73.1346 363.063 73.7166 363.063 74.4606C363.063 74.8926 363.195 75.2586 363.459 75.5586C363.735 75.8586 364.263 76.1466 365.043 76.4226C365.823 76.6986 366.975 77.0286 368.499 77.4126C370.131 77.8326 371.427 78.3006 372.387 78.8166C373.347 79.3206 374.031 79.9266 374.439 80.6346C374.859 81.3306 375.069 82.1766 375.069 83.1726C375.069 85.0926 374.367 86.5986 372.963 87.6906C371.571 88.7826 369.645 89.3286 367.185 89.3286ZM384.542 89.3466C383.102 89.3466 381.896 89.0826 380.924 88.5546C379.952 88.0146 379.214 87.3066 378.71 86.4306C378.218 85.5426 377.972 84.5706 377.972 83.5146C377.972 82.5306 378.146 81.6666 378.494 80.9226C378.842 80.1786 379.358 79.5486 380.042 79.0326C380.726 78.5046 381.566 78.0786 382.562 77.7546C383.426 77.5026 384.404 77.2806 385.496 77.0886C386.588 76.8966 387.734 76.7166 388.934 76.5486C390.146 76.3806 391.346 76.2126 392.534 76.0446L391.166 76.8006C391.19 75.2766 390.866 74.1486 390.194 73.4166C389.534 72.6726 388.394 72.3006 386.774 72.3006C385.754 72.3006 384.818 72.5406 383.966 73.0206C383.114 73.4886 382.52 74.2686 382.184 75.3606L378.674 74.2806C379.154 72.6126 380.066 71.2866 381.41 70.3026C382.766 69.3186 384.566 68.8266 386.81 68.8266C388.55 68.8266 390.062 69.1266 391.346 69.7266C392.642 70.3146 393.59 71.2506 394.19 72.5346C394.502 73.1706 394.694 73.8426 394.766 74.5506C394.838 75.2586 394.874 76.0206 394.874 76.8366V88.8066H391.544V84.3606L392.192 84.9366C391.388 86.4246 390.362 87.5346 389.114 88.2666C387.878 88.9866 386.354 89.3466 384.542 89.3466ZM385.208 86.2686C386.276 86.2686 387.194 86.0826 387.962 85.7106C388.73 85.3266 389.348 84.8406 389.816 84.2526C390.284 83.6646 390.59 83.0526 390.734 82.4166C390.938 81.8406 391.052 81.1926 391.076 80.4726C391.112 79.7526 391.13 79.1766 391.13 78.7446L392.354 79.1946C391.166 79.3746 390.086 79.5366 389.114 79.6806C388.142 79.8246 387.26 79.9686 386.468 80.1126C385.688 80.2446 384.992 80.4066 384.38 80.5986C383.864 80.7786 383.402 80.9946 382.994 81.2466C382.598 81.4986 382.28 81.8046 382.04 82.1646C381.812 82.5246 381.698 82.9626 381.698 83.4786C381.698 83.9826 381.824 84.4506 382.076 84.8826C382.328 85.3026 382.712 85.6386 383.228 85.8906C383.744 86.1426 384.404 86.2686 385.208 86.2686ZM399.908 88.8066V62.3466H403.67V88.8066H399.908ZM417.697 89.3466C415.765 89.3466 414.067 88.9266 412.603 88.0866C411.151 87.2346 410.017 86.0526 409.201 84.5406C408.397 83.0166 407.995 81.2526 407.995 79.2486C407.995 77.1246 408.391 75.2826 409.183 73.7226C409.987 72.1626 411.103 70.9566 412.531 70.1046C413.959 69.2526 415.621 68.8266 417.517 68.8266C419.497 68.8266 421.183 69.2886 422.575 70.2126C423.967 71.1246 425.005 72.4266 425.689 74.1186C426.385 75.8106 426.661 77.8206 426.517 80.1486H422.755V78.7806C422.731 76.5246 422.299 74.8566 421.459 73.7766C420.631 72.6966 419.365 72.1566 417.661 72.1566C415.777 72.1566 414.361 72.7506 413.413 73.9386C412.465 75.1266 411.991 76.8426 411.991 79.0866C411.991 81.2226 412.465 82.8786 413.413 84.0546C414.361 85.2186 415.729 85.8006 417.517 85.8006C418.693 85.8006 419.707 85.5366 420.559 85.0086C421.423 84.4686 422.095 83.7006 422.575 82.7046L426.265 83.8746C425.509 85.6146 424.363 86.9646 422.827 87.9246C421.291 88.8726 419.581 89.3466 417.697 89.3466ZM410.767 80.1486V77.2146H424.645V80.1486H410.767ZM430.916 71.5266L431.15 69.8526C431.666 69.8886 432.068 69.7926 432.356 69.5646C432.644 69.3366 432.836 69.0186 432.932 68.6106C433.028 68.2026 433.046 67.7406 432.986 67.2246H430.916V62.8866H434.894V67.5846C434.894 69.0006 434.552 70.0686 433.868 70.7886C433.196 71.5086 432.212 71.7546 430.916 71.5266ZM444.599 89.3286C442.235 89.3286 440.309 88.8066 438.821 87.7626C437.333 86.7186 436.421 85.2486 436.085 83.3526L439.937 82.7586C440.177 83.7666 440.729 84.5646 441.593 85.1526C442.469 85.7286 443.555 86.0166 444.851 86.0166C446.027 86.0166 446.945 85.7766 447.605 85.2966C448.277 84.8166 448.613 84.1566 448.613 83.3166C448.613 82.8246 448.493 82.4286 448.253 82.1286C448.025 81.8166 447.539 81.5226 446.795 81.2466C446.051 80.9706 444.917 80.6286 443.393 80.2206C441.725 79.7886 440.399 79.3266 439.415 78.8346C438.443 78.3306 437.747 77.7486 437.327 77.0886C436.919 76.4166 436.715 75.6066 436.715 74.6586C436.715 73.4826 437.027 72.4566 437.651 71.5806C438.275 70.7046 439.151 70.0266 440.279 69.5466C441.419 69.0666 442.751 68.8266 444.275 68.8266C445.763 68.8266 447.089 69.0606 448.253 69.5286C449.417 69.9966 450.359 70.6626 451.079 71.5266C451.799 72.3786 452.231 73.3806 452.375 74.5326L448.523 75.2346C448.391 74.2986 447.953 73.5606 447.209 73.0206C446.465 72.4806 445.499 72.1866 444.311 72.1386C443.171 72.0906 442.247 72.2826 441.539 72.7146C440.831 73.1346 440.477 73.7166 440.477 74.4606C440.477 74.8926 440.609 75.2586 440.873 75.5586C441.149 75.8586 441.677 76.1466 442.457 76.4226C443.237 76.6986 444.389 77.0286 445.913 77.4126C447.545 77.8326 448.841 78.3006 449.801 78.8166C450.761 79.3206 451.445 79.9266 451.853 80.6346C452.273 81.3306 452.483 82.1766 452.483 83.1726C452.483 85.0926 451.781 86.5986 450.377 87.6906C448.985 88.7826 447.059 89.3286 444.599 89.3286ZM198.99 109.181V105.527H202.752V109.181H198.99ZM198.99 131.807V112.367H202.752V131.807H198.99ZM221.802 131.807V122.249C221.802 121.493 221.736 120.719 221.604 119.927C221.484 119.123 221.244 118.379 220.884 117.695C220.536 117.011 220.038 116.459 219.39 116.039C218.754 115.619 217.92 115.409 216.888 115.409C216.216 115.409 215.58 115.523 214.98 115.751C214.38 115.967 213.852 116.321 213.396 116.813C212.952 117.305 212.598 117.953 212.334 118.757C212.082 119.561 211.956 120.539 211.956 121.691L209.616 120.809C209.616 119.045 209.946 117.491 210.606 116.147C211.266 114.791 212.214 113.735 213.45 112.979C214.686 112.223 216.18 111.845 217.932 111.845C219.276 111.845 220.404 112.061 221.316 112.493C222.228 112.925 222.966 113.495 223.53 114.203C224.106 114.899 224.544 115.661 224.844 116.489C225.144 117.317 225.348 118.127 225.456 118.919C225.564 119.711 225.618 120.407 225.618 121.007V131.807H221.802ZM208.14 131.807V112.367H211.506V117.983H211.956V131.807H208.14ZM244.72 131.807V105.887H248.122L257.518 125.381L266.86 105.887H270.298V131.789H266.734V114.059L258.364 131.807H256.654L248.266 114.059V131.807H244.72ZM280.831 132.347C279.391 132.347 278.185 132.083 277.213 131.555C276.241 131.015 275.503 130.307 274.999 129.431C274.507 128.543 274.261 127.571 274.261 126.515C274.261 125.531 274.435 124.667 274.783 123.923C275.131 123.179 275.647 122.549 276.331 122.033C277.015 121.505 277.855 121.079 278.851 120.755C279.715 120.503 280.693 120.281 281.785 120.089C282.877 119.897 284.023 119.717 285.223 119.549C286.435 119.381 287.635 119.213 288.823 119.045L287.455 119.801C287.479 118.277 287.155 117.149 286.483 116.417C285.823 115.673 284.683 115.301 283.063 115.301C282.043 115.301 281.107 115.541 280.255 116.021C279.403 116.489 278.809 117.269 278.473 118.361L274.963 117.281C275.443 115.613 276.355 114.287 277.699 113.303C279.055 112.319 280.855 111.827 283.099 111.827C284.839 111.827 286.351 112.127 287.635 112.727C288.931 113.315 289.879 114.251 290.479 115.535C290.791 116.171 290.983 116.843 291.055 117.551C291.127 118.259 291.163 119.021 291.163 119.837V131.807H287.833V127.361L288.481 127.937C287.677 129.425 286.651 130.535 285.403 131.267C284.167 131.987 282.643 132.347 280.831 132.347ZM281.497 129.269C282.565 129.269 283.483 129.083 284.251 128.711C285.019 128.327 285.637 127.841 286.105 127.253C286.573 126.665 286.879 126.053 287.023 125.417C287.227 124.841 287.341 124.193 287.365 123.473C287.401 122.753 287.419 122.177 287.419 121.745L288.643 122.195C287.455 122.375 286.375 122.537 285.403 122.681C284.431 122.825 283.549 122.969 282.757 123.113C281.977 123.245 281.281 123.407 280.669 123.599C280.153 123.779 279.691 123.995 279.283 124.247C278.887 124.499 278.569 124.805 278.329 125.165C278.101 125.525 277.987 125.963 277.987 126.479C277.987 126.983 278.113 127.451 278.365 127.883C278.617 128.303 279.001 128.639 279.517 128.891C280.033 129.143 280.693 129.269 281.497 129.269ZM297.375 140.447L301.137 130.205L301.191 133.229L292.713 112.367H296.637L302.973 128.477H301.821L307.869 112.367H311.685L300.957 140.447H297.375ZM320.992 131.789L321.01 128.441L332.296 118.325C333.208 117.521 333.826 116.753 334.15 116.021C334.486 115.289 334.654 114.557 334.654 113.825C334.654 112.901 334.45 112.073 334.042 111.341C333.634 110.597 333.07 110.009 332.35 109.577C331.63 109.145 330.802 108.929 329.866 108.929C328.906 108.929 328.048 109.157 327.292 109.613C326.548 110.057 325.966 110.651 325.546 111.395C325.126 112.139 324.922 112.943 324.934 113.807H321.082C321.082 112.127 321.46 110.657 322.216 109.397C322.984 108.125 324.034 107.135 325.366 106.427C326.698 105.707 328.222 105.347 329.938 105.347C331.57 105.347 333.034 105.719 334.33 106.463C335.626 107.195 336.646 108.203 337.39 109.487C338.146 110.771 338.524 112.235 338.524 113.879C338.524 115.067 338.368 116.075 338.056 116.903C337.744 117.731 337.276 118.499 336.652 119.207C336.028 119.915 335.248 120.683 334.312 121.511L325.6 129.287L325.186 128.207H338.524V131.789H320.992ZM351.877 132.347C350.113 132.347 348.553 131.963 347.197 131.195C345.841 130.415 344.773 129.347 343.993 127.991C343.225 126.635 342.841 125.075 342.841 123.311V114.383C342.841 112.619 343.225 111.059 343.993 109.703C344.773 108.347 345.841 107.285 347.197 106.517C348.553 105.737 350.113 105.347 351.877 105.347C353.641 105.347 355.201 105.737 356.557 106.517C357.913 107.285 358.975 108.347 359.743 109.703C360.523 111.059 360.913 112.619 360.913 114.383V123.311C360.913 125.075 360.523 126.635 359.743 127.991C358.975 129.347 357.913 130.415 356.557 131.195C355.201 131.963 353.641 132.347 351.877 132.347ZM351.877 128.747C352.837 128.747 353.707 128.519 354.487 128.063C355.279 127.595 355.909 126.971 356.377 126.191C356.845 125.399 357.079 124.517 357.079 123.545V114.113C357.079 113.153 356.845 112.283 356.377 111.503C355.909 110.711 355.279 110.087 354.487 109.631C353.707 109.163 352.837 108.929 351.877 108.929C350.917 108.929 350.041 109.163 349.249 109.631C348.469 110.087 347.845 110.711 347.377 111.503C346.909 112.283 346.675 113.153 346.675 114.113V123.545C346.675 124.517 346.909 125.399 347.377 126.191C347.845 126.971 348.469 127.595 349.249 128.063C350.041 128.519 350.917 128.747 351.877 128.747ZM365.219 131.789L365.237 128.441L376.523 118.325C377.435 117.521 378.053 116.753 378.377 116.021C378.713 115.289 378.881 114.557 378.881 113.825C378.881 112.901 378.677 112.073 378.269 111.341C377.861 110.597 377.297 110.009 376.577 109.577C375.857 109.145 375.029 108.929 374.093 108.929C373.133 108.929 372.275 109.157 371.519 109.613C370.775 110.057 370.193 110.651 369.773 111.395C369.353 112.139 369.149 112.943 369.161 113.807H365.309C365.309 112.127 365.687 110.657 366.443 109.397C367.211 108.125 368.261 107.135 369.593 106.427C370.925 105.707 372.449 105.347 374.165 105.347C375.797 105.347 377.261 105.719 378.557 106.463C379.853 107.195 380.873 108.203 381.617 109.487C382.373 110.771 382.751 112.235 382.751 113.879C382.751 115.067 382.595 116.075 382.283 116.903C381.971 117.731 381.503 118.499 380.879 119.207C380.255 119.915 379.475 120.683 378.539 121.511L369.827 129.287L369.413 128.207H382.751V131.789H365.219ZM394.322 132.293C393.038 132.293 391.832 132.053 390.704 131.573C389.576 131.081 388.598 130.385 387.77 129.485C386.954 128.585 386.36 127.523 385.988 126.299L389.624 125.291C389.972 126.407 390.578 127.265 391.442 127.865C392.306 128.453 393.266 128.741 394.322 128.729C395.27 128.717 396.104 128.495 396.824 128.063C397.544 127.631 398.108 127.049 398.516 126.317C398.924 125.573 399.128 124.721 399.128 123.761C399.128 122.321 398.678 121.133 397.778 120.197C396.89 119.261 395.726 118.793 394.286 118.793C393.878 118.793 393.458 118.853 393.026 118.973C392.606 119.093 392.21 119.249 391.838 119.441L390.074 116.471L399.218 108.389L399.614 109.469H387.014V105.887H402.602V109.469L395.006 116.777L394.97 115.553C396.602 115.553 398.018 115.919 399.218 116.651C400.418 117.371 401.342 118.355 401.99 119.603C402.65 120.839 402.98 122.225 402.98 123.761C402.98 125.417 402.59 126.887 401.81 128.171C401.042 129.455 400.004 130.463 398.696 131.195C397.4 131.927 395.942 132.293 394.322 132.293Z" fill="#313131"/>
<path d="M228.455 463.197C227.112 463.197 225.899 462.967 224.815 462.508C223.741 462.04 222.852 461.377 222.15 460.519C221.457 459.652 221.006 458.625 220.798 457.438L223.632 457.009C223.918 458.153 224.516 459.045 225.426 459.687C226.336 460.319 227.398 460.636 228.611 460.636C229.365 460.636 230.059 460.519 230.691 460.285C231.324 460.042 231.831 459.7 232.212 459.258C232.602 458.807 232.797 458.27 232.797 457.646C232.797 457.308 232.737 457.009 232.615 456.749C232.503 456.489 232.342 456.263 232.134 456.073C231.935 455.873 231.688 455.704 231.393 455.566C231.107 455.418 230.791 455.293 230.444 455.189L225.647 453.772C225.179 453.633 224.703 453.455 224.217 453.239C223.732 453.013 223.286 452.723 222.878 452.368C222.48 452.004 222.155 451.557 221.903 451.029C221.652 450.491 221.526 449.841 221.526 449.079C221.526 447.926 221.821 446.951 222.41 446.154C223.008 445.348 223.814 444.741 224.828 444.334C225.842 443.918 226.978 443.71 228.234 443.71C229.5 443.727 230.631 443.952 231.627 444.386C232.633 444.819 233.465 445.443 234.123 446.258C234.791 447.064 235.25 448.043 235.501 449.196L232.589 449.69C232.459 448.988 232.182 448.385 231.757 447.883C231.333 447.371 230.813 446.981 230.197 446.713C229.582 446.435 228.915 446.292 228.195 446.284C227.502 446.266 226.865 446.37 226.284 446.596C225.712 446.821 225.253 447.137 224.906 447.545C224.568 447.952 224.399 448.42 224.399 448.949C224.399 449.469 224.551 449.889 224.854 450.21C225.158 450.53 225.53 450.786 225.972 450.977C226.423 451.159 226.869 451.31 227.311 451.432L230.769 452.407C231.203 452.528 231.692 452.693 232.238 452.901C232.793 453.1 233.326 453.382 233.837 453.746C234.357 454.11 234.786 454.595 235.124 455.202C235.462 455.8 235.631 456.554 235.631 457.464C235.631 458.408 235.441 459.24 235.059 459.96C234.678 460.67 234.154 461.268 233.486 461.754C232.828 462.23 232.065 462.59 231.198 462.833C230.332 463.075 229.417 463.197 228.455 463.197ZM242.367 463.197C241.327 463.197 240.456 463.006 239.754 462.625C239.052 462.235 238.519 461.723 238.155 461.091C237.8 460.449 237.622 459.747 237.622 458.985C237.622 458.274 237.748 457.65 237.999 457.113C238.25 456.575 238.623 456.12 239.117 455.748C239.611 455.366 240.218 455.059 240.937 454.825C241.561 454.643 242.267 454.482 243.056 454.344C243.845 454.205 244.672 454.075 245.539 453.954C246.414 453.832 247.281 453.711 248.139 453.59L247.151 454.136C247.168 453.035 246.934 452.22 246.449 451.692C245.972 451.154 245.149 450.886 243.979 450.886C243.242 450.886 242.566 451.059 241.951 451.406C241.336 451.744 240.907 452.307 240.664 453.096L238.129 452.316C238.476 451.111 239.134 450.153 240.105 449.443C241.084 448.732 242.384 448.377 244.005 448.377C245.262 448.377 246.354 448.593 247.281 449.027C248.217 449.451 248.902 450.127 249.335 451.055C249.56 451.514 249.699 451.999 249.751 452.511C249.803 453.022 249.829 453.572 249.829 454.162V462.807H247.424V459.596L247.892 460.012C247.311 461.086 246.57 461.888 245.669 462.417C244.776 462.937 243.676 463.197 242.367 463.197ZM242.848 460.974C243.619 460.974 244.282 460.839 244.837 460.571C245.392 460.293 245.838 459.942 246.176 459.518C246.514 459.093 246.735 458.651 246.839 458.192C246.986 457.776 247.069 457.308 247.086 456.788C247.112 456.268 247.125 455.852 247.125 455.54L248.009 455.865C247.151 455.995 246.371 456.112 245.669 456.216C244.967 456.32 244.33 456.424 243.758 456.528C243.195 456.623 242.692 456.74 242.25 456.879C241.877 457.009 241.544 457.165 241.249 457.347C240.963 457.529 240.733 457.75 240.56 458.01C240.395 458.27 240.313 458.586 240.313 458.959C240.313 459.323 240.404 459.661 240.586 459.973C240.768 460.276 241.045 460.519 241.418 460.701C241.791 460.883 242.267 460.974 242.848 460.974ZM253.465 462.807V443.697H256.182V462.807H253.465ZM266.312 463.197C264.917 463.197 263.691 462.893 262.633 462.287C261.585 461.671 260.766 460.818 260.176 459.726C259.596 458.625 259.305 457.351 259.305 455.904C259.305 454.37 259.591 453.039 260.163 451.913C260.744 450.786 261.55 449.915 262.581 449.3C263.613 448.684 264.813 448.377 266.182 448.377C267.612 448.377 268.83 448.71 269.835 449.378C270.841 450.036 271.59 450.977 272.084 452.199C272.587 453.421 272.786 454.872 272.682 456.554H269.965V455.566C269.948 453.936 269.636 452.732 269.029 451.952C268.431 451.172 267.517 450.782 266.286 450.782C264.926 450.782 263.903 451.211 263.218 452.069C262.534 452.927 262.191 454.166 262.191 455.787C262.191 457.329 262.534 458.525 263.218 459.375C263.903 460.215 264.891 460.636 266.182 460.636C267.032 460.636 267.764 460.445 268.379 460.064C269.003 459.674 269.489 459.119 269.835 458.4L272.5 459.245C271.954 460.501 271.127 461.476 270.017 462.17C268.908 462.854 267.673 463.197 266.312 463.197ZM261.307 456.554V454.435H271.33V456.554H261.307ZM280.968 463.184C279.261 463.184 277.87 462.807 276.795 462.053C275.72 461.299 275.062 460.237 274.819 458.868L277.601 458.439C277.774 459.167 278.173 459.743 278.797 460.168C279.43 460.584 280.214 460.792 281.15 460.792C281.999 460.792 282.662 460.618 283.139 460.272C283.624 459.925 283.867 459.448 283.867 458.842C283.867 458.486 283.78 458.2 283.607 457.984C283.442 457.758 283.091 457.546 282.554 457.347C282.017 457.147 281.198 456.9 280.097 456.606C278.892 456.294 277.935 455.96 277.224 455.605C276.522 455.241 276.019 454.82 275.716 454.344C275.421 453.858 275.274 453.273 275.274 452.589C275.274 451.739 275.499 450.998 275.95 450.366C276.401 449.733 277.033 449.243 277.848 448.897C278.671 448.55 279.633 448.377 280.734 448.377C281.809 448.377 282.766 448.546 283.607 448.884C284.448 449.222 285.128 449.703 285.648 450.327C286.168 450.942 286.48 451.666 286.584 452.498L283.802 453.005C283.707 452.329 283.39 451.796 282.853 451.406C282.316 451.016 281.618 450.803 280.76 450.769C279.937 450.734 279.269 450.873 278.758 451.185C278.247 451.488 277.991 451.908 277.991 452.446C277.991 452.758 278.086 453.022 278.277 453.239C278.476 453.455 278.858 453.663 279.421 453.863C279.984 454.062 280.816 454.3 281.917 454.578C283.096 454.881 284.032 455.219 284.725 455.592C285.418 455.956 285.912 456.393 286.207 456.905C286.51 457.407 286.662 458.018 286.662 458.738C286.662 460.124 286.155 461.212 285.141 462.001C284.136 462.789 282.745 463.184 280.968 463.184ZM300.529 469.437C299.775 469.437 299.042 469.32 298.332 469.086C297.63 468.852 296.988 468.505 296.408 468.046C295.827 467.595 295.346 467.036 294.965 466.369L297.474 465.095C297.777 465.693 298.21 466.13 298.774 466.408C299.337 466.685 299.931 466.824 300.555 466.824C301.326 466.824 301.985 466.685 302.531 466.408C303.077 466.139 303.488 465.732 303.766 465.186C304.052 464.64 304.19 463.964 304.182 463.158V459.232H304.507V448.767H306.912V463.184C306.912 463.556 306.899 463.912 306.873 464.25C306.847 464.588 306.799 464.926 306.73 465.264C306.53 466.208 306.149 466.988 305.586 467.604C305.031 468.219 304.32 468.678 303.454 468.982C302.596 469.285 301.621 469.437 300.529 469.437ZM300.321 463.197C299.012 463.197 297.881 462.872 296.928 462.222C295.983 461.572 295.251 460.688 294.731 459.57C294.219 458.443 293.964 457.178 293.964 455.774C293.964 454.361 294.224 453.1 294.744 451.991C295.264 450.873 296 449.993 296.954 449.352C297.916 448.702 299.055 448.377 300.373 448.377C301.699 448.377 302.812 448.702 303.714 449.352C304.624 449.993 305.308 450.873 305.768 451.991C306.236 453.109 306.47 454.37 306.47 455.774C306.47 457.178 306.236 458.439 305.768 459.557C305.3 460.675 304.611 461.563 303.701 462.222C302.791 462.872 301.664 463.197 300.321 463.197ZM300.698 460.74C301.59 460.74 302.318 460.527 302.882 460.103C303.445 459.678 303.857 459.093 304.117 458.348C304.377 457.602 304.507 456.744 304.507 455.774C304.507 454.803 304.372 453.945 304.104 453.2C303.844 452.454 303.436 451.874 302.882 451.458C302.336 451.042 301.638 450.834 300.789 450.834C299.887 450.834 299.146 451.055 298.566 451.497C297.985 451.939 297.552 452.532 297.266 453.278C296.988 454.023 296.85 454.855 296.85 455.774C296.85 456.701 296.988 457.542 297.266 458.296C297.552 459.041 297.976 459.635 298.54 460.077C299.112 460.519 299.831 460.74 300.698 460.74ZM310.562 462.807V448.767H312.98V452.173L312.642 451.731C312.815 451.28 313.041 450.868 313.318 450.496C313.595 450.114 313.916 449.802 314.28 449.56C314.635 449.3 315.03 449.1 315.463 448.962C315.905 448.814 316.356 448.728 316.815 448.702C317.274 448.667 317.716 448.689 318.141 448.767V451.315C317.682 451.193 317.17 451.159 316.607 451.211C316.052 451.263 315.541 451.44 315.073 451.744C314.631 452.03 314.28 452.376 314.02 452.784C313.769 453.191 313.587 453.646 313.474 454.149C313.361 454.643 313.305 455.167 313.305 455.722V462.807H310.562ZM326.46 463.197C325.056 463.197 323.838 462.88 322.807 462.248C321.775 461.615 320.978 460.744 320.415 459.635C319.86 458.517 319.583 457.23 319.583 455.774C319.583 454.309 319.869 453.022 320.441 451.913C321.013 450.795 321.814 449.928 322.846 449.313C323.877 448.689 325.082 448.377 326.46 448.377C327.864 448.377 329.081 448.693 330.113 449.326C331.144 449.958 331.941 450.829 332.505 451.939C333.068 453.048 333.35 454.326 333.35 455.774C333.35 457.238 333.064 458.53 332.492 459.648C331.928 460.757 331.131 461.628 330.1 462.261C329.068 462.885 327.855 463.197 326.46 463.197ZM326.46 460.636C327.803 460.636 328.804 460.185 329.463 459.284C330.13 458.374 330.464 457.204 330.464 455.774C330.464 454.309 330.126 453.139 329.45 452.264C328.782 451.38 327.786 450.938 326.46 450.938C325.55 450.938 324.8 451.146 324.211 451.562C323.621 451.969 323.184 452.537 322.898 453.265C322.612 453.984 322.469 454.82 322.469 455.774C322.469 457.247 322.807 458.426 323.483 459.31C324.159 460.194 325.151 460.636 326.46 460.636ZM338.689 462.807L334.399 448.754L337.09 448.767L340.028 458.4L342.992 448.767H345.332L348.296 458.4L351.234 448.767H353.912L349.622 462.807H347.438L344.162 452.641L340.873 462.807H338.689ZM364.274 462.807C363.39 462.98 362.523 463.054 361.674 463.028C360.824 463.002 360.066 462.837 359.399 462.534C358.731 462.23 358.229 461.754 357.891 461.104C357.587 460.523 357.423 459.934 357.397 459.336C357.379 458.729 357.371 458.044 357.371 457.282V444.867H360.101V457.152C360.101 457.715 360.105 458.205 360.114 458.621C360.131 459.037 360.222 459.388 360.387 459.674C360.699 460.211 361.193 460.519 361.869 460.597C362.553 460.666 363.355 460.636 364.274 460.506V462.807ZM354.68 450.951V448.767H364.274V450.951H354.68ZM377.088 462.807V455.904C377.088 455.358 377.04 454.799 376.945 454.227C376.858 453.646 376.685 453.109 376.425 452.615C376.174 452.121 375.814 451.722 375.346 451.419C374.887 451.115 374.284 450.964 373.539 450.964C373.054 450.964 372.594 451.046 372.161 451.211C371.728 451.367 371.346 451.622 371.017 451.978C370.696 452.333 370.441 452.801 370.25 453.382C370.068 453.962 369.977 454.669 369.977 455.501L368.287 454.864C368.287 453.59 368.525 452.467 369.002 451.497C369.479 450.517 370.163 449.755 371.056 449.209C371.949 448.663 373.028 448.39 374.293 448.39C375.264 448.39 376.078 448.546 376.737 448.858C377.396 449.17 377.929 449.581 378.336 450.093C378.752 450.595 379.068 451.146 379.285 451.744C379.502 452.342 379.649 452.927 379.727 453.499C379.805 454.071 379.844 454.573 379.844 455.007V462.807H377.088ZM367.221 462.807V444.087H369.652V454.188H369.977V462.807H367.221Z" fill="#7A7B68"/>
</g>
<defs>
<linearGradient id="paint0_linear_439_254" x1="-171.946" y1="-172.546" x2="602.16" y2="273.522" gradientUnits="userSpaceOnUse">
<stop stop-color="#020202"/>
<stop offset="1" stop-color="#252525"/>
</linearGradient>
<linearGradient id="paint1_linear_439_254" x1="56.1875" y1="307.65" x2="56.1875" y2="384.949" gradientUnits="userSpaceOnUse">
<stop stop-color="#545454"/>
<stop offset="1" stop-color="#0B0D07"/>
</linearGradient>
<linearGradient id="paint2_linear_439_254" x1="137.764" y1="284.127" x2="137.764" y2="329.506" gradientUnits="userSpaceOnUse">
<stop/>
<stop offset="1" stop-color="#252323"/>
</linearGradient>
<linearGradient id="paint3_linear_439_254" x1="219.344" y1="297.793" x2="219.344" y2="384.168" gradientUnits="userSpaceOnUse">
<stop/>
<stop offset="1" stop-color="#252323"/>
</linearGradient>
<linearGradient id="paint4_linear_439_254" x1="260.135" y1="323.812" x2="260.135" y2="371.348" gradientUnits="userSpaceOnUse">
<stop/>
<stop offset="1" stop-color="#252323"/>
</linearGradient>
<linearGradient id="paint5_linear_439_254" x1="423.285" y1="233.631" x2="423.285" y2="281.167" gradientUnits="userSpaceOnUse">
<stop/>
<stop offset="1" stop-color="#252323"/>
</linearGradient>
<linearGradient id="paint6_linear_439_254" x1="464.072" y1="264.484" x2="464.072" y2="288.88" gradientUnits="userSpaceOnUse">
<stop/>
<stop offset="1" stop-color="#252323"/>
</linearGradient>
<linearGradient id="paint7_linear_439_254" x1="545.65" y1="200.069" x2="545.65" y2="224.465" gradientUnits="userSpaceOnUse">
<stop/>
<stop offset="1" stop-color="#252323"/>
</linearGradient>
<linearGradient id="paint8_linear_439_254" x1="15.4004" y1="301.909" x2="15.4004" y2="355.998" gradientUnits="userSpaceOnUse">
<stop/>
<stop offset="1" stop-color="#252323"/>
</linearGradient>
<linearGradient id="paint9_linear_439_254" x1="96.9785" y1="256.352" x2="96.9785" y2="352.799" gradientUnits="userSpaceOnUse">
<stop stop-color="#545454"/>
<stop offset="1" stop-color="#0B0D07"/>
</linearGradient>
<linearGradient id="paint10_linear_439_254" x1="178.555" y1="230.586" x2="178.555" y2="327.033" gradientUnits="userSpaceOnUse">
<stop stop-color="#545454"/>
<stop offset="1" stop-color="#0B0D07"/>
</linearGradient>
<linearGradient id="paint11_linear_439_254" x1="300.922" y1="333.227" x2="300.922" y2="362.356" gradientUnits="userSpaceOnUse">
<stop stop-color="#545454"/>
<stop offset="1" stop-color="#0B0D07"/>
</linearGradient>
<linearGradient id="paint12_linear_439_254" x1="341.709" y1="288.832" x2="341.709" y2="341.595" gradientUnits="userSpaceOnUse">
<stop stop-color="#545454"/>
<stop offset="1" stop-color="#0B0D07"/>
</linearGradient>
<linearGradient id="paint13_linear_439_254" x1="504.863" y1="187.235" x2="504.863" y2="258.222" gradientUnits="userSpaceOnUse">
<stop stop-color="#545454"/>
<stop offset="1" stop-color="#0B0D07"/>
</linearGradient>
<linearGradient id="paint14_linear_439_254" x1="586.441" y1="172.497" x2="586.441" y2="199.27" gradientUnits="userSpaceOnUse">
<stop stop-color="#545454"/>
<stop offset="1" stop-color="#0B0D07"/>
</linearGradient>
<linearGradient id="paint15_linear_439_254" x1="382.5" y1="208.194" x2="382.5" y2="321.436" gradientUnits="userSpaceOnUse">
<stop stop-color="#545454"/>
<stop offset="1" stop-color="#0B0D07"/>
</linearGradient>
<clipPath id="clip0_439_254">
<rect width="600" height="520" fill="white" transform="translate(0.632812 0.806519)"/>
</clipPath>
</defs>
</svg>
