<svg width="145" height="36" viewBox="0 0 145 36" fill="none" xmlns="http://www.w3.org/2000/svg">
<g clip-path="url(#clip0_117_4234)">
<path d="M13.3784 21.9346C13.3784 20.9898 14.1443 20.2239 15.0891 20.2239H15.7734C16.7182 20.2239 17.4841 20.9898 17.4841 21.9346V22.6189C17.4841 23.5637 16.7182 24.3296 15.7734 24.3296H15.0891C14.1443 24.3296 13.3784 23.5637 13.3784 22.6189V21.9346Z" fill="#1EEFA4"/>
<path d="M15.0891 14.0653C14.1443 14.0653 13.3784 14.8312 13.3784 15.776V16.4603C13.3784 17.4051 14.1443 18.171 15.0891 18.171H15.7734C16.7182 18.171 17.4841 17.4051 17.4841 16.4603V15.776C17.4841 14.8312 16.7182 14.0653 15.7734 14.0653H15.0891Z" fill="#1EEFA4"/>
<path fill-rule="evenodd" clip-rule="evenodd" d="M7.21984 6.88025C3.44062 6.88025 0.376953 9.94391 0.376953 13.7231V22.2767C0.376953 26.056 3.44062 29.1196 7.21984 29.1196H15.7734C19.5527 29.1196 22.6163 26.056 22.6163 22.2767V13.7231C22.6163 9.94391 19.5527 6.88025 15.7734 6.88025H7.21984ZM15.7734 9.61741H7.21984C4.95231 9.61741 3.11411 11.4556 3.11411 13.7231V22.2767C3.11411 24.5443 4.95231 26.3825 7.21984 26.3825H15.7734C18.041 26.3825 19.8792 24.5443 19.8792 22.2767V13.7231C19.8792 11.4556 18.041 9.61741 15.7734 9.61741Z" fill="#1EEFA4"/>
<path d="M44.2717 23.5907C44.7377 22.8434 44.9767 21.9773 44.9597 21.0971C44.9597 20.2832 44.7795 19.5805 44.4233 19.0058C44.0378 18.4003 43.5143 17.8944 42.8957 17.5293C42.0896 17.0576 41.237 16.6696 40.3515 16.3715C40.2858 16.3503 40.2275 16.3292 40.1777 16.3101L40.0473 16.2635C39.4664 16.0656 39.0317 15.9058 38.7519 15.7883C38.496 15.6885 38.2593 15.5452 38.0523 15.365C37.9616 15.2859 37.8891 15.1882 37.8398 15.0787C37.7904 14.9691 37.7652 14.8501 37.766 14.7299C37.7605 14.5513 37.7982 14.374 37.8759 14.213C37.9536 14.052 38.0689 13.912 38.2123 13.805C38.4954 13.5869 38.9014 13.4758 39.4176 13.4758C40.0543 13.4815 40.683 13.6184 41.2642 13.878C41.7694 14.094 42.2398 14.3832 42.6604 14.7363L44.6904 12.2661C43.9862 11.6391 43.1813 11.135 42.3095 10.7748C41.3356 10.3911 40.2959 10.2017 39.2491 10.2171C38.083 10.2171 37.1024 10.4224 36.3392 10.8277C35.5759 11.2331 35.0173 11.7676 34.6653 12.4227C34.3079 13.0906 34.1238 13.8373 34.13 14.5945C34.13 15.9259 34.554 16.9473 35.383 17.632C36.3016 18.3677 37.3595 18.9109 38.4932 19.2291C39.0762 19.3913 39.6466 19.5954 40.2 19.8398C40.6112 20.0356 40.8858 20.2314 41.0385 20.4367C41.1957 20.6514 41.278 20.9117 41.2728 21.1776C41.2771 21.375 41.2307 21.5702 41.1379 21.7446C41.0451 21.919 40.909 22.0667 40.7427 22.1735C40.4045 22.4064 39.919 22.5196 39.2586 22.5196C37.941 22.5196 36.6657 21.9555 35.4678 20.842L33.1802 23.216C33.9635 24.0345 34.8998 24.6917 35.9364 25.1507C37.0169 25.6191 38.1835 25.857 39.3614 25.8492C40.4809 25.8492 41.4816 25.6503 42.3222 25.2566C43.1189 24.8998 43.7957 24.3215 44.2717 23.5907Z" fill="#1EEFA4"/>
<path d="M93.2171 22.0022L91.5425 20.6624C90.9976 21.3816 90.2415 21.9135 89.3797 22.184C88.5179 22.4545 87.5933 22.4501 86.7338 22.1716C85.8748 21.8931 85.1237 21.3542 84.5855 20.6298C84.0473 19.9054 83.7487 19.0316 83.7309 18.1299C83.7131 17.2281 83.9772 16.3433 84.4859 15.5983C84.9952 14.8534 85.7247 14.2853 86.572 13.9732C87.4193 13.6611 88.3434 13.6204 89.2151 13.8568C90.0869 14.0931 90.8636 14.5948 91.4363 15.2922L94.1617 13.113C93.136 11.8508 91.7421 10.9386 90.1737 10.5028C88.6052 10.0671 86.9395 10.1294 85.4083 10.6811C83.8766 11.2329 82.555 12.2466 81.6265 13.5819C80.698 14.9173 80.2088 16.5079 80.2265 18.1333C80.2443 19.7587 80.7681 21.3383 81.7255 22.6532C82.6829 23.968 84.0261 24.9528 85.569 25.4712C87.1124 25.9896 88.7787 26.0157 90.3371 25.5461C91.8961 25.0764 93.2694 24.1341 94.2679 22.85L93.2171 22.0022Z" fill="#1EEFA4"/>
<path fill-rule="evenodd" clip-rule="evenodd" d="M61.3592 15.2276C61.3592 16.2627 61.1468 17.1845 60.7231 17.9677C60.3045 18.7433 59.6662 19.3784 58.8878 19.7934C58.0844 20.2274 57.1187 20.4475 56.0173 20.4475H53.3862V25.2895H49.7544V10.2162H55.9664C57.0464 10.2162 58.0049 10.4353 58.8161 10.866C59.5984 11.2723 60.2494 11.8913 60.6942 12.6515C61.1423 13.4354 61.372 14.325 61.3592 15.2276ZM56.7256 16.9559C57.0297 16.7944 57.2844 16.5528 57.4612 16.2574C57.6408 15.9559 57.7336 15.6111 57.7303 15.2604C57.7353 14.9262 57.6402 14.5982 57.4567 14.3185C57.2744 14.0454 57.0214 13.8261 56.7256 13.6834C56.4076 13.5309 56.0584 13.454 55.7057 13.459H53.3862V17.2057H55.695C56.054 17.2096 56.4081 17.1237 56.7256 16.9559Z" fill="#1EEFA4"/>
<path d="M102.561 19.1552H108.233V16.1759H102.561V13.459H109.813V10.2162H98.9287V25.2895H109.977V22.0467H102.561V19.1552Z" fill="#1EEFA4"/>
<path d="M120.872 10.2162H124.504V25.2895H120.872V10.2162Z" fill="#1EEFA4"/>
<path fill-rule="evenodd" clip-rule="evenodd" d="M142.641 21.5867C143.33 20.4253 143.694 19.0999 143.693 17.7499C143.692 16.3998 143.327 15.075 142.636 13.9145C141.934 12.7722 140.94 11.8371 139.755 11.2051C138.519 10.5428 137.136 10.2028 135.733 10.2166H130.088V25.2899H135.767C137.164 25.3036 138.542 24.9635 139.771 24.3014C140.953 23.6685 141.944 22.7311 142.641 21.5867ZM139.476 19.8795C139.132 20.4961 138.623 21.0045 138.005 21.3475C137.361 21.7034 136.635 21.8857 135.898 21.8767H133.721V13.6352H135.887C136.626 13.6252 137.354 13.8076 138 14.1643C138.618 14.5086 139.129 15.0166 139.476 15.6323C139.835 16.2793 140.018 17.0093 140.005 17.7491C140.018 18.4932 139.835 19.2275 139.476 19.8795Z" fill="#1EEFA4"/>
<path fill-rule="evenodd" clip-rule="evenodd" d="M68.531 10.2162H71.7685L77.5585 25.3107H73.8323L73.01 22.9008V22.8934H67.2539V22.9008L66.4321 25.3107H62.707L68.531 10.2162ZM70.1389 14.4444L70.0872 14.5978L68.3403 19.7182H71.933L70.1922 14.5978L70.1389 14.4444Z" fill="#1EEFA4"/>
</g>
<defs>
<clipPath id="clip0_117_4234">
<rect width="144" height="22.2394" fill="white" transform="translate(0.376953 6.88025)"/>
</clipPath>
</defs>
</svg>
