<svg width="606" height="521" viewBox="0 0 606 521" fill="none" xmlns="http://www.w3.org/2000/svg">
<g clip-path="url(#clip0_439_233)">
<rect x="1.39844" y="1.8064" width="602.724" height="518" rx="39" fill="url(#paint0_linear_439_233)" stroke="url(#paint1_linear_439_233)" stroke-width="2"/>
<g filter="url(#filter0_d_439_233)">
<path d="M1.82031 453.634V436.996C1.82031 428.564 9.65857 422.32 17.8774 424.205V424.205C24.1158 425.636 30.4764 422.358 32.931 416.447L40.3742 398.522C41.4254 395.991 43.8969 394.341 46.6378 394.341V394.341C50.3835 394.341 53.42 391.305 53.42 387.559V367.745C53.42 364.997 55.6475 362.77 58.3953 362.77V362.77C60.827 362.77 62.9024 361.012 63.3027 358.613L68.0858 329.955C68.8129 325.598 75.126 325.75 75.6423 330.137L75.7669 331.195C75.9221 332.514 77.0399 333.508 78.3679 333.508V333.508C79.8144 333.508 80.987 334.681 80.987 336.127V355.701C80.987 359.605 84.2198 362.77 88.1236 362.77V362.77C91.9528 362.77 95.1239 359.665 95.1239 355.836V350.493C95.1239 346.246 100.276 344.137 103.254 347.165V347.165C104.722 348.658 106.994 349.012 108.847 348.038L121.26 341.51C124.3 339.911 127.985 340.176 130.764 342.195V342.195C133.225 343.982 136.42 344.41 139.265 343.332L142.431 342.132C143.13 341.867 143.48 341.735 143.811 341.628C148.235 340.199 153.08 341.059 156.741 343.924C157.016 344.138 157.298 344.383 157.863 344.872L164.097 350.27C170.515 355.828 180.544 352.358 182.155 344.022V344.022C183.286 338.165 188.868 334.268 194.756 335.223L215.121 338.528C216.458 338.744 217.767 338.006 218.272 336.749V336.749C219.379 333.99 223.428 334.493 223.827 337.439L227.61 365.372C228.258 370.156 232.129 373.855 236.938 374.284L269.071 377.153C270.452 377.277 271.143 377.338 271.835 377.332C272.527 377.325 273.216 377.25 274.594 377.1L304.97 373.791C306.374 373.638 307.776 374.093 308.821 375.043V375.043C310.376 376.454 312.655 376.727 314.499 375.722L315.708 375.064C317.472 374.103 319.567 373.962 321.444 374.677L339.599 381.6C343.629 383.136 348.159 381.284 349.958 377.365V377.365C351.057 374.97 353.242 373.25 355.828 372.745L404.689 363.191C405.511 363.03 405.922 362.95 406.336 362.894C406.677 362.848 407.02 362.815 407.363 362.795C407.781 362.77 408.199 362.77 409.037 362.77V362.77C415.688 362.77 419.014 362.77 421.74 361.552C423.963 360.559 425.889 359.003 427.328 357.037C429.09 354.629 429.789 351.377 431.186 344.874L433.673 333.298C434.515 329.378 437.98 326.578 441.989 326.578V326.578C445.152 326.578 448.053 324.824 449.522 322.023L451.271 318.689C451.346 318.546 451.383 318.475 451.421 318.404C452.34 316.7 453.602 315.205 455.128 314.014C455.191 313.964 455.256 313.916 455.384 313.818L475.986 298.107C478.513 296.18 479.777 295.216 481.21 294.563C482.644 293.91 484.2 293.59 487.313 292.948L501.345 290.056C503.701 289.57 504.879 289.327 505.986 288.895C506.686 288.621 507.364 288.292 508.011 287.909C509.034 287.305 509.952 286.527 511.787 284.972V284.972C515.019 282.233 516.635 280.864 518.502 280.045C519.68 279.528 520.924 279.175 522.198 278.998C524.218 278.716 526.312 279.035 530.5 279.671L530.999 279.747C538.949 280.956 542.924 281.56 546.331 280.287C547.763 279.752 549.096 278.987 550.28 278.021C553.099 275.722 554.584 271.985 557.553 264.512L568.2 237.715C569.574 234.257 573.733 232.872 576.905 234.816V234.816C579.776 236.575 583.533 235.626 585.224 232.715L604.053 200.292" stroke="#BAFF2A" stroke-width="2"/>
</g>
<path d="M191.178 83.1665C190.282 83.1665 189.454 82.9825 188.694 82.6145C187.934 82.2465 187.286 81.7385 186.75 81.0905C186.214 80.4425 185.83 79.6985 185.598 78.8585L187.29 78.4025C187.442 79.0265 187.718 79.5665 188.118 80.0225C188.518 80.4705 188.986 80.8185 189.522 81.0665C190.066 81.3145 190.634 81.4385 191.226 81.4385C191.994 81.4385 192.682 81.2545 193.29 80.8865C193.906 80.5105 194.394 80.0145 194.754 79.3985C195.114 78.7825 195.294 78.1065 195.294 77.3705C195.294 76.6105 195.106 75.9265 194.73 75.3185C194.354 74.7025 193.858 74.2145 193.242 73.8545C192.626 73.4945 191.954 73.3145 191.226 73.3145C190.41 73.3145 189.706 73.4945 189.114 73.8545C188.522 74.2065 188.05 74.6505 187.698 75.1865L186.09 74.5145L186.618 65.5265H195.846V67.2185H187.398L188.274 66.3905L187.806 74.0585L187.362 73.4705C187.858 72.9025 188.458 72.4585 189.162 72.1385C189.866 71.8185 190.606 71.6585 191.382 71.6585C192.446 71.6585 193.406 71.9145 194.262 72.4265C195.118 72.9305 195.798 73.6145 196.302 74.4785C196.806 75.3425 197.058 76.3065 197.058 77.3705C197.058 78.4265 196.79 79.3945 196.254 80.2745C195.718 81.1465 195.006 81.8465 194.118 82.3745C193.23 82.9025 192.25 83.1665 191.178 83.1665ZM207.687 83.1545C206.535 83.1545 205.547 82.8345 204.723 82.1945C203.899 81.5545 203.343 80.6985 203.055 79.6265L204.819 79.2065C204.963 79.8385 205.295 80.3745 205.815 80.8145C206.343 81.2465 206.963 81.4625 207.675 81.4625C208.123 81.4625 208.575 81.3545 209.031 81.1385C209.495 80.9225 209.859 80.5665 210.123 80.0705C210.299 79.7265 210.399 79.3545 210.423 78.9545C210.455 78.5465 210.471 78.0585 210.471 77.4905V65.5265H212.247V77.4905C212.247 77.9705 212.243 78.4065 212.235 78.7985C212.227 79.1825 212.183 79.5545 212.103 79.9145C212.031 80.2665 211.891 80.6225 211.683 80.9825C211.267 81.7105 210.707 82.2545 210.003 82.6145C209.307 82.9745 208.535 83.1545 207.687 83.1545ZM220.823 83.1305C220.047 83.1305 219.367 83.0105 218.783 82.7705C218.207 82.5305 217.715 82.2065 217.307 81.7985C216.907 81.3905 216.583 80.9265 216.335 80.4065C216.087 79.8785 215.907 79.3225 215.795 78.7385C215.683 78.1465 215.627 77.5585 215.627 76.9745V69.8465H217.403V76.4585C217.403 77.1705 217.471 77.8305 217.607 78.4385C217.743 79.0465 217.959 79.5785 218.255 80.0345C218.559 80.4825 218.947 80.8305 219.419 81.0785C219.899 81.3265 220.479 81.4505 221.159 81.4505C221.783 81.4505 222.331 81.3425 222.803 81.1265C223.283 80.9105 223.683 80.6025 224.003 80.2025C224.331 79.7945 224.579 79.3025 224.747 78.7265C224.915 78.1425 224.999 77.4865 224.999 76.7585L226.247 77.0345C226.247 78.3625 226.015 79.4785 225.551 80.3825C225.087 81.2865 224.447 81.9705 223.631 82.4345C222.815 82.8985 221.879 83.1305 220.823 83.1305ZM225.179 82.8065V79.6145H224.999V69.8465H226.763V82.8065H225.179ZM230.357 82.8065V65.1665H232.121V82.8065H230.357ZM240.044 82.7945L240.056 81.1865L247.868 74.1305C248.54 73.5225 248.984 72.9465 249.2 72.4025C249.424 71.8505 249.536 71.2745 249.536 70.6745C249.536 69.9625 249.368 69.3185 249.032 68.7425C248.696 68.1665 248.244 67.7105 247.676 67.3745C247.108 67.0305 246.472 66.8585 245.768 66.8585C245.032 66.8585 244.376 67.0345 243.8 67.3865C243.224 67.7385 242.768 68.2025 242.432 68.7785C242.104 69.3545 241.944 69.9825 241.952 70.6625H240.152C240.152 69.6145 240.4 68.6745 240.896 67.8425C241.392 67.0105 242.064 66.3585 242.912 65.8865C243.76 65.4065 244.72 65.1665 245.792 65.1665C246.84 65.1665 247.78 65.4145 248.612 65.9105C249.452 66.3985 250.112 67.0625 250.592 67.9025C251.08 68.7345 251.324 69.6625 251.324 70.6865C251.324 71.4065 251.236 72.0425 251.06 72.5945C250.892 73.1385 250.624 73.6465 250.256 74.1185C249.896 74.5825 249.436 75.0625 248.876 75.5585L241.94 81.8225L241.664 81.1025H251.324V82.7945H240.044ZM259.851 83.1665C258.787 83.1665 257.827 82.9185 256.971 82.4225C256.123 81.9265 255.451 81.2545 254.955 80.4065C254.459 79.5505 254.211 78.5905 254.211 77.5265V70.8065C254.211 69.7425 254.459 68.7865 254.955 67.9385C255.451 67.0825 256.123 66.4065 256.971 65.9105C257.827 65.4145 258.787 65.1665 259.851 65.1665C260.915 65.1665 261.871 65.4145 262.719 65.9105C263.575 66.4065 264.251 67.0825 264.747 67.9385C265.243 68.7865 265.491 69.7425 265.491 70.8065V77.5265C265.491 78.5905 265.243 79.5505 264.747 80.4065C264.251 81.2545 263.575 81.9265 262.719 82.4225C261.871 82.9185 260.915 83.1665 259.851 83.1665ZM259.851 81.4625C260.563 81.4625 261.211 81.2905 261.795 80.9465C262.379 80.5945 262.843 80.1265 263.187 79.5425C263.531 78.9585 263.703 78.3145 263.703 77.6105V70.7225C263.703 70.0105 263.531 69.3625 263.187 68.7785C262.843 68.1945 262.379 67.7305 261.795 67.3865C261.211 67.0345 260.563 66.8585 259.851 66.8585C259.139 66.8585 258.491 67.0345 257.907 67.3865C257.323 67.7305 256.859 68.1945 256.515 68.7785C256.171 69.3625 255.999 70.0105 255.999 70.7225V77.6105C255.999 78.3145 256.171 78.9585 256.515 79.5425C256.859 80.1265 257.323 80.5945 257.907 80.9465C258.491 81.2905 259.139 81.4625 259.851 81.4625ZM268.38 82.7945L268.392 81.1865L276.204 74.1305C276.876 73.5225 277.32 72.9465 277.536 72.4025C277.76 71.8505 277.872 71.2745 277.872 70.6745C277.872 69.9625 277.704 69.3185 277.368 68.7425C277.032 68.1665 276.58 67.7105 276.012 67.3745C275.444 67.0305 274.808 66.8585 274.104 66.8585C273.368 66.8585 272.712 67.0345 272.136 67.3865C271.56 67.7385 271.104 68.2025 270.768 68.7785C270.44 69.3545 270.28 69.9825 270.288 70.6625H268.488C268.488 69.6145 268.736 68.6745 269.232 67.8425C269.728 67.0105 270.4 66.3585 271.248 65.8865C272.096 65.4065 273.056 65.1665 274.128 65.1665C275.176 65.1665 276.116 65.4145 276.948 65.9105C277.788 66.3985 278.448 67.0625 278.928 67.9025C279.416 68.7345 279.66 69.6625 279.66 70.6865C279.66 71.4065 279.572 72.0425 279.396 72.5945C279.228 73.1385 278.96 73.6465 278.592 74.1185C278.232 74.5825 277.772 75.0625 277.212 75.5585L270.276 81.8225L270 81.1025H279.66V82.7945H268.38ZM287.191 83.1545C286.335 83.1545 285.547 83.0025 284.827 82.6985C284.107 82.3945 283.487 81.9625 282.967 81.4025C282.447 80.8345 282.067 80.1585 281.827 79.3745L283.507 78.8705C283.795 79.7265 284.267 80.3745 284.923 80.8145C285.587 81.2545 286.335 81.4665 287.167 81.4505C287.935 81.4345 288.595 81.2625 289.147 80.9345C289.707 80.6065 290.135 80.1505 290.431 79.5665C290.727 78.9825 290.875 78.3065 290.875 77.5385C290.875 76.3625 290.531 75.4185 289.843 74.7065C289.163 73.9865 288.263 73.6265 287.143 73.6265C286.831 73.6265 286.503 73.6705 286.159 73.7585C285.815 73.8385 285.495 73.9545 285.199 74.1065L284.311 72.7025L291.031 66.4985L291.319 67.2185H282.511V65.5265H292.495V67.2425L286.639 72.8345L286.615 72.1385C287.815 71.9865 288.871 72.1225 289.783 72.5465C290.695 72.9705 291.407 73.6185 291.919 74.4905C292.439 75.3545 292.699 76.3705 292.699 77.5385C292.699 78.6425 292.459 79.6185 291.979 80.4665C291.507 81.3065 290.855 81.9665 290.023 82.4465C289.191 82.9185 288.247 83.1545 287.191 83.1545Z" fill="#8D8D8D"/>
<path d="M235.088 141.807V115.099H224.836V110.127H250.642V115.099H240.39V141.807H235.088ZM261.288 141.807L251.3 110.127H256.756L265.116 136.659L273.586 110.127H279.042L269.054 141.807H261.288ZM282.788 141.807V110.127H288.09V136.835H302.082V141.807H282.788ZM305.369 147.417L305.677 145.129C306.351 145.187 306.887 145.07 307.283 144.777C307.679 144.498 307.943 144.095 308.075 143.567C308.221 143.053 308.258 142.467 308.185 141.807H305.369V136.153H310.803V142.027C310.803 143.948 310.348 145.4 309.439 146.383C308.529 147.365 307.173 147.71 305.369 147.417ZM336.274 146.185V140.971H341.576V146.185H336.274ZM336.274 110.985V105.771H341.576V110.985H336.274ZM339.046 142.467C336.817 142.467 334.822 142.056 333.062 141.235C331.302 140.413 329.858 139.255 328.728 137.759C327.614 136.263 326.902 134.488 326.594 132.435L331.83 131.599C332.241 133.403 333.121 134.84 334.47 135.911C335.834 136.967 337.462 137.495 339.354 137.495C341.173 137.495 342.669 137.069 343.842 136.219C345.016 135.353 345.602 134.261 345.602 132.941C345.602 132.017 345.324 131.269 344.766 130.697C344.209 130.11 343.314 129.626 342.082 129.245L334.448 126.869C330.004 125.49 327.782 122.791 327.782 118.773C327.782 116.895 328.23 115.26 329.124 113.867C330.034 112.459 331.31 111.381 332.952 110.633C334.595 109.87 336.531 109.496 338.76 109.511C340.828 109.525 342.669 109.899 344.282 110.633C345.91 111.366 347.26 112.422 348.33 113.801C349.416 115.179 350.186 116.837 350.64 118.773L345.206 119.763C345.001 118.721 344.598 117.805 343.996 117.013C343.395 116.221 342.64 115.605 341.73 115.165C340.821 114.725 339.809 114.49 338.694 114.461C337.624 114.446 336.663 114.615 335.812 114.967C334.962 115.304 334.287 115.788 333.788 116.419C333.29 117.035 333.04 117.731 333.04 118.509C333.04 119.374 333.385 120.115 334.074 120.731C334.778 121.347 335.886 121.875 337.396 122.315L343.094 123.965C345.837 124.757 347.81 125.835 349.012 127.199C350.23 128.548 350.838 130.345 350.838 132.589C350.838 134.554 350.347 136.277 349.364 137.759C348.382 139.24 347.003 140.399 345.228 141.235C343.454 142.056 341.393 142.467 339.046 142.467Z" fill="white" fill-opacity="0.6"/>
<path d="M193.309 118.277L201.026 131.643H185.592L193.309 118.277Z" fill="#BAFF2A"/>
<path d="M50.2565 260.807V257.887H43.3965V256.757L48.2865 246.407H49.5765L44.6865 256.757H50.2565V252.407H51.4165V256.757H53.0665V257.887H51.4165V260.807H50.2565ZM59.9966 261.107C59.15 261.107 58.3833 260.903 57.6966 260.497C57.0166 260.09 56.4733 259.547 56.0666 258.867C55.66 258.18 55.4566 257.413 55.4566 256.567V250.647C55.4566 249.8 55.66 249.037 56.0666 248.357C56.4733 247.67 57.0166 247.123 57.6966 246.717C58.3833 246.31 59.15 246.107 59.9966 246.107C60.8433 246.107 61.61 246.31 62.2966 246.717C62.9833 247.123 63.5266 247.67 63.9266 248.357C64.3333 249.037 64.5366 249.8 64.5366 250.647V256.567C64.5366 257.413 64.3333 258.18 63.9266 258.867C63.5266 259.547 62.9833 260.09 62.2966 260.497C61.61 260.903 60.8433 261.107 59.9966 261.107ZM59.9966 259.977C60.6166 259.977 61.18 259.827 61.6866 259.527C62.2 259.22 62.61 258.81 62.9166 258.297C63.2233 257.783 63.3766 257.217 63.3766 256.597V250.607C63.3766 249.993 63.2233 249.43 62.9166 248.917C62.61 248.403 62.2 247.997 61.6866 247.697C61.18 247.39 60.6166 247.237 59.9966 247.237C59.3766 247.237 58.81 247.39 58.2966 247.697C57.79 247.997 57.3833 248.403 57.0766 248.917C56.77 249.43 56.6166 249.993 56.6166 250.607V256.597C56.6166 257.217 56.77 257.783 57.0766 258.297C57.3833 258.81 57.79 259.22 58.2966 259.527C58.81 259.827 59.3766 259.977 59.9966 259.977ZM71.8716 261.107C71.025 261.107 70.2583 260.903 69.5716 260.497C68.8916 260.09 68.3483 259.547 67.9416 258.867C67.535 258.18 67.3316 257.413 67.3316 256.567V250.647C67.3316 249.8 67.535 249.037 67.9416 248.357C68.3483 247.67 68.8916 247.123 69.5716 246.717C70.2583 246.31 71.025 246.107 71.8716 246.107C72.7183 246.107 73.485 246.31 74.1716 246.717C74.8583 247.123 75.4016 247.67 75.8016 248.357C76.2083 249.037 76.4116 249.8 76.4116 250.647V256.567C76.4116 257.413 76.2083 258.18 75.8016 258.867C75.4016 259.547 74.8583 260.09 74.1716 260.497C73.485 260.903 72.7183 261.107 71.8716 261.107ZM71.8716 259.977C72.4916 259.977 73.055 259.827 73.5616 259.527C74.075 259.22 74.485 258.81 74.7916 258.297C75.0983 257.783 75.2516 257.217 75.2516 256.597V250.607C75.2516 249.993 75.0983 249.43 74.7916 248.917C74.485 248.403 74.075 247.997 73.5616 247.697C73.055 247.39 72.4916 247.237 71.8716 247.237C71.2516 247.237 70.685 247.39 70.1716 247.697C69.665 247.997 69.2583 248.403 68.9516 248.917C68.645 249.43 68.4916 249.993 68.4916 250.607V256.597C68.4916 257.217 68.645 257.783 68.9516 258.297C69.2583 258.81 69.665 259.22 70.1716 259.527C70.685 259.827 71.2516 259.977 71.8716 259.977ZM92.0566 260.807L92.0766 253.547C92.0766 252.673 91.8266 251.99 91.3266 251.497C90.8333 250.997 90.2166 250.747 89.4766 250.747C89.0566 250.747 88.64 250.843 88.2266 251.037C87.82 251.23 87.48 251.543 87.2066 251.977C86.9333 252.41 86.7966 252.997 86.7966 253.737L85.9866 253.607C85.96 252.82 86.1033 252.137 86.4166 251.557C86.7366 250.97 87.1766 250.517 87.7366 250.197C88.3033 249.877 88.9466 249.717 89.6666 249.717C90.7266 249.717 91.5833 250.043 92.2366 250.697C92.8966 251.35 93.2266 252.243 93.2266 253.377L93.2066 260.807H92.0566ZM79.2066 260.807V250.007H80.2566V252.437H80.3566V260.807H79.2066ZM85.6366 260.807L85.6566 253.657C85.6566 252.763 85.4133 252.057 84.9266 251.537C84.44 251.01 83.8066 250.747 83.0266 250.747C82.2333 250.747 81.59 251.02 81.0966 251.567C80.6033 252.107 80.3566 252.83 80.3566 253.737L79.5566 253.337C79.5566 252.637 79.7166 252.017 80.0366 251.477C80.3566 250.93 80.7933 250.5 81.3466 250.187C81.9066 249.873 82.5466 249.717 83.2666 249.717C83.9133 249.717 84.5033 249.853 85.0366 250.127C85.57 250.4 85.9966 250.813 86.3166 251.367C86.6366 251.913 86.7966 252.6 86.7966 253.427L86.7766 260.807H85.6366Z" fill="#494949"/>
<path d="M54.2359 461.634L59.3359 447.234H60.7659L65.8659 461.634H64.6459L59.7459 447.834H60.3259L55.4559 461.634H54.2359ZM56.3459 458.014V456.924H63.7459V458.014H56.3459ZM72.3878 461.934C71.4145 461.934 70.5911 461.68 69.9178 461.174C69.2445 460.667 68.7311 459.984 68.3778 459.124C68.0245 458.264 67.8478 457.294 67.8478 456.214C67.8478 455.127 68.0245 454.157 68.3778 453.304C68.7311 452.444 69.2545 451.767 69.9478 451.274C70.6411 450.78 71.4911 450.534 72.4978 450.534C73.4778 450.534 74.3145 450.784 75.0078 451.284C75.7011 451.784 76.2278 452.464 76.5878 453.324C76.9545 454.184 77.1378 455.147 77.1378 456.214C77.1378 457.294 76.9511 458.267 76.5778 459.134C76.2111 459.994 75.6745 460.677 74.9678 461.184C74.2678 461.684 73.4078 461.934 72.3878 461.934ZM67.6578 466.434V450.834H68.7078V459.154H68.8078V466.434H67.6578ZM72.3178 460.834C73.1111 460.834 73.7711 460.63 74.2978 460.224C74.8311 459.817 75.2311 459.267 75.4978 458.574C75.7711 457.874 75.9078 457.087 75.9078 456.214C75.9078 455.347 75.7745 454.57 75.5078 453.884C75.2478 453.19 74.8511 452.644 74.3178 452.244C73.7911 451.837 73.1178 451.634 72.2978 451.634C71.5045 451.634 70.8411 451.83 70.3078 452.224C69.7745 452.61 69.3745 453.15 69.1078 453.844C68.8411 454.537 68.7078 455.327 68.7078 456.214C68.7078 457.094 68.8378 457.884 69.0978 458.584C69.3645 459.277 69.7645 459.827 70.2978 460.234C70.8378 460.634 71.5111 460.834 72.3178 460.834ZM79.3375 461.634V450.834H80.3875V453.424L80.1275 453.084C80.2475 452.777 80.3975 452.494 80.5775 452.234C80.7642 451.967 80.9542 451.75 81.1475 451.584C81.4342 451.317 81.7708 451.117 82.1575 450.984C82.5442 450.844 82.9342 450.764 83.3275 450.744C83.7208 450.717 84.0775 450.747 84.3975 450.834V451.924C83.9708 451.824 83.5175 451.804 83.0375 451.864C82.5575 451.924 82.1075 452.13 81.6875 452.484C81.3208 452.804 81.0542 453.177 80.8875 453.604C80.7208 454.024 80.6142 454.467 80.5675 454.934C80.5208 455.394 80.4975 455.844 80.4975 456.284V461.634H79.3375Z" fill="#9B9B9B"/>
<path d="M207.238 461.634V447.234H208.308L214.208 459.974L220.048 447.234H221.158V461.614H220.028V449.884L214.668 461.634H213.728L208.358 449.884V461.634H207.238ZM227.077 461.934C226.243 461.934 225.55 461.787 224.997 461.494C224.45 461.2 224.04 460.814 223.767 460.334C223.493 459.847 223.357 459.32 223.357 458.754C223.357 458.14 223.483 457.627 223.737 457.214C223.997 456.8 224.34 456.467 224.767 456.214C225.2 455.96 225.677 455.77 226.197 455.644C226.79 455.51 227.43 455.397 228.117 455.304C228.803 455.204 229.457 455.117 230.077 455.044C230.703 454.97 231.213 454.907 231.607 454.854L231.187 455.104C231.213 453.937 230.993 453.07 230.527 452.504C230.067 451.93 229.253 451.644 228.087 451.644C227.267 451.644 226.59 451.83 226.057 452.204C225.53 452.57 225.16 453.14 224.947 453.914L223.767 453.584C224.013 452.604 224.51 451.85 225.257 451.324C226.003 450.797 226.96 450.534 228.127 450.534C229.12 450.534 229.953 450.727 230.627 451.114C231.307 451.5 231.78 452.044 232.047 452.744C232.16 453.03 232.237 453.367 232.277 453.754C232.317 454.134 232.337 454.517 232.337 454.904V461.634H231.287V458.794L231.677 458.894C231.35 459.867 230.78 460.617 229.967 461.144C229.153 461.67 228.19 461.934 227.077 461.934ZM227.137 460.874C227.87 460.874 228.513 460.744 229.067 460.484C229.62 460.217 230.067 459.847 230.407 459.374C230.753 458.894 230.973 458.33 231.067 457.684C231.133 457.324 231.17 456.934 231.177 456.514C231.183 456.094 231.187 455.784 231.187 455.584L231.687 455.904C231.253 455.957 230.733 456.014 230.127 456.074C229.527 456.134 228.913 456.207 228.287 456.294C227.66 456.38 227.093 456.49 226.587 456.624C226.273 456.71 225.957 456.837 225.637 457.004C225.323 457.164 225.06 457.387 224.847 457.674C224.64 457.96 224.537 458.324 224.537 458.764C224.537 459.09 224.617 459.417 224.777 459.744C224.943 460.07 225.217 460.34 225.597 460.554C225.977 460.767 226.49 460.874 227.137 460.874ZM235.908 466.434L238.008 460.784L238.028 462.464L233.298 450.834H234.528L238.588 460.934H237.948L241.638 450.834H242.848L237.108 466.434H235.908Z" fill="#9B9B9B"/>
<path d="M367.556 461.914C366.643 461.914 365.849 461.654 365.176 461.134C364.503 460.614 364.056 459.92 363.836 459.054L364.996 458.784C365.136 459.35 365.439 459.827 365.906 460.214C366.373 460.6 366.926 460.794 367.566 460.794C367.973 460.794 368.379 460.7 368.786 460.514C369.199 460.32 369.523 460.004 369.756 459.564C369.923 459.25 370.019 458.92 370.046 458.574C370.073 458.22 370.086 457.797 370.086 457.304V447.234H371.246V457.304C371.246 457.684 371.243 458.034 371.236 458.354C371.229 458.674 371.193 458.98 371.126 459.274C371.066 459.567 370.953 459.864 370.786 460.164C370.453 460.75 369.999 461.19 369.426 461.484C368.859 461.77 368.236 461.914 367.556 461.914ZM378.409 461.884C377.816 461.884 377.283 461.797 376.809 461.624C376.343 461.45 375.936 461.207 375.589 460.894C375.243 460.574 374.956 460.2 374.729 459.774C374.503 459.34 374.333 458.867 374.219 458.354C374.113 457.84 374.059 457.304 374.059 456.744V450.834H375.219V456.454C375.219 457.134 375.286 457.74 375.419 458.274C375.559 458.807 375.766 459.26 376.039 459.634C376.319 460.007 376.666 460.29 377.079 460.484C377.499 460.677 377.993 460.774 378.559 460.774C379.146 460.774 379.653 460.674 380.079 460.474C380.513 460.267 380.866 459.98 381.139 459.614C381.419 459.247 381.626 458.814 381.759 458.314C381.899 457.807 381.969 457.257 381.969 456.664L382.879 456.774C382.879 457.94 382.679 458.904 382.279 459.664C381.886 460.417 381.353 460.977 380.679 461.344C380.006 461.704 379.249 461.884 378.409 461.884ZM382.079 461.634V459.204H381.969V450.834H383.129V461.634H382.079ZM393.83 461.634V456.014C393.83 455.334 393.76 454.727 393.62 454.194C393.486 453.66 393.28 453.207 393 452.834C392.726 452.46 392.38 452.177 391.96 451.984C391.546 451.79 391.056 451.694 390.49 451.694C389.903 451.694 389.393 451.797 388.96 452.004C388.533 452.204 388.18 452.487 387.9 452.854C387.626 453.22 387.42 453.657 387.28 454.164C387.146 454.664 387.08 455.21 387.08 455.804L386.17 455.694C386.17 454.527 386.366 453.567 386.76 452.814C387.16 452.054 387.696 451.494 388.37 451.134C389.043 450.767 389.8 450.584 390.64 450.584C391.233 450.584 391.763 450.67 392.23 450.844C392.703 451.017 393.113 451.264 393.46 451.584C393.806 451.897 394.093 452.27 394.32 452.704C394.546 453.13 394.713 453.6 394.82 454.114C394.933 454.627 394.99 455.164 394.99 455.724V461.634H393.83ZM385.92 461.634V450.834H386.97V453.264H387.08V461.634H385.92Z" fill="#9B9B9B"/>
<path d="M521.556 461.914C520.643 461.914 519.849 461.654 519.176 461.134C518.503 460.614 518.056 459.92 517.836 459.054L518.996 458.784C519.136 459.35 519.439 459.827 519.906 460.214C520.373 460.6 520.926 460.794 521.566 460.794C521.973 460.794 522.379 460.7 522.786 460.514C523.199 460.32 523.523 460.004 523.756 459.564C523.923 459.25 524.019 458.92 524.046 458.574C524.073 458.22 524.086 457.797 524.086 457.304V447.234H525.246V457.304C525.246 457.684 525.243 458.034 525.236 458.354C525.229 458.674 525.193 458.98 525.126 459.274C525.066 459.567 524.953 459.864 524.786 460.164C524.453 460.75 523.999 461.19 523.426 461.484C522.859 461.77 522.236 461.914 521.556 461.914ZM532.409 461.884C531.816 461.884 531.283 461.797 530.809 461.624C530.343 461.45 529.936 461.207 529.589 460.894C529.243 460.574 528.956 460.2 528.729 459.774C528.503 459.34 528.333 458.867 528.219 458.354C528.113 457.84 528.059 457.304 528.059 456.744V450.834H529.219V456.454C529.219 457.134 529.286 457.74 529.419 458.274C529.559 458.807 529.766 459.26 530.039 459.634C530.319 460.007 530.666 460.29 531.079 460.484C531.499 460.677 531.993 460.774 532.559 460.774C533.146 460.774 533.653 460.674 534.079 460.474C534.513 460.267 534.866 459.98 535.139 459.614C535.419 459.247 535.626 458.814 535.759 458.314C535.899 457.807 535.969 457.257 535.969 456.664L536.879 456.774C536.879 457.94 536.679 458.904 536.279 459.664C535.886 460.417 535.353 460.977 534.679 461.344C534.006 461.704 533.249 461.884 532.409 461.884ZM536.079 461.634V459.204H535.969V450.834H537.129V461.634H536.079ZM540.12 461.634V446.934H541.27V461.634H540.12Z" fill="#9B9B9B"/>
<path d="M48.0465 201.107C47.2932 201.107 46.5965 200.953 45.9565 200.647C45.3232 200.34 44.7832 199.917 44.3365 199.377C43.8965 198.83 43.5832 198.21 43.3965 197.517L44.4965 197.217C44.6432 197.777 44.8965 198.263 45.2565 198.677C45.6165 199.083 46.0398 199.4 46.5265 199.627C47.0132 199.847 47.5232 199.957 48.0565 199.957C48.7565 199.957 49.3832 199.79 49.9365 199.457C50.4898 199.117 50.9265 198.67 51.2465 198.117C51.5732 197.557 51.7365 196.947 51.7365 196.287C51.7365 195.593 51.5665 194.97 51.2265 194.417C50.8865 193.863 50.4365 193.423 49.8765 193.097C49.3232 192.77 48.7165 192.607 48.0565 192.607C47.3432 192.607 46.7165 192.773 46.1765 193.107C45.6432 193.433 45.2132 193.86 44.8865 194.387L43.7865 193.847L44.2265 186.407H51.8665V187.527H44.6565L45.3365 186.897L44.9165 193.657L44.5765 193.177C44.9965 192.663 45.5165 192.257 46.1365 191.957C46.7565 191.657 47.4198 191.507 48.1265 191.507C49.0065 191.507 49.8065 191.72 50.5265 192.147C51.2465 192.573 51.8198 193.15 52.2465 193.877C52.6798 194.597 52.8965 195.4 52.8965 196.287C52.8965 197.16 52.6765 197.963 52.2365 198.697C51.7965 199.423 51.2065 200.007 50.4665 200.447C49.7332 200.887 48.9265 201.107 48.0465 201.107ZM59.8404 201.107C58.9937 201.107 58.2271 200.903 57.5404 200.497C56.8604 200.09 56.3171 199.547 55.9104 198.867C55.5037 198.18 55.3004 197.413 55.3004 196.567V190.647C55.3004 189.8 55.5037 189.037 55.9104 188.357C56.3171 187.67 56.8604 187.123 57.5404 186.717C58.2271 186.31 58.9937 186.107 59.8404 186.107C60.6871 186.107 61.4537 186.31 62.1404 186.717C62.8271 187.123 63.3704 187.67 63.7704 188.357C64.1771 189.037 64.3804 189.8 64.3804 190.647V196.567C64.3804 197.413 64.1771 198.18 63.7704 198.867C63.3704 199.547 62.8271 200.09 62.1404 200.497C61.4537 200.903 60.6871 201.107 59.8404 201.107ZM59.8404 199.977C60.4604 199.977 61.0237 199.827 61.5304 199.527C62.0437 199.22 62.4537 198.81 62.7604 198.297C63.0671 197.783 63.2204 197.217 63.2204 196.597V190.607C63.2204 189.993 63.0671 189.43 62.7604 188.917C62.4537 188.403 62.0437 187.997 61.5304 187.697C61.0237 187.39 60.4604 187.237 59.8404 187.237C59.2204 187.237 58.6537 187.39 58.1404 187.697C57.6337 187.997 57.2271 188.403 56.9204 188.917C56.6137 189.43 56.4604 189.993 56.4604 190.607V196.597C56.4604 197.217 56.6137 197.783 56.9204 198.297C57.2271 198.81 57.6337 199.22 58.1404 199.527C58.6537 199.827 59.2204 199.977 59.8404 199.977ZM71.7154 201.107C70.8687 201.107 70.1021 200.903 69.4154 200.497C68.7354 200.09 68.1921 199.547 67.7854 198.867C67.3787 198.18 67.1754 197.413 67.1754 196.567V190.647C67.1754 189.8 67.3787 189.037 67.7854 188.357C68.1921 187.67 68.7354 187.123 69.4154 186.717C70.1021 186.31 70.8687 186.107 71.7154 186.107C72.5621 186.107 73.3287 186.31 74.0154 186.717C74.7021 187.123 75.2454 187.67 75.6454 188.357C76.0521 189.037 76.2554 189.8 76.2554 190.647V196.567C76.2554 197.413 76.0521 198.18 75.6454 198.867C75.2454 199.547 74.7021 200.09 74.0154 200.497C73.3287 200.903 72.5621 201.107 71.7154 201.107ZM71.7154 199.977C72.3354 199.977 72.8987 199.827 73.4054 199.527C73.9187 199.22 74.3287 198.81 74.6354 198.297C74.9421 197.783 75.0954 197.217 75.0954 196.597V190.607C75.0954 189.993 74.9421 189.43 74.6354 188.917C74.3287 188.403 73.9187 187.997 73.4054 187.697C72.8987 187.39 72.3354 187.237 71.7154 187.237C71.0954 187.237 70.5287 187.39 70.0154 187.697C69.5087 187.997 69.1021 188.403 68.7954 188.917C68.4887 189.43 68.3354 189.993 68.3354 190.607V196.597C68.3354 197.217 68.4887 197.783 68.7954 198.297C69.1021 198.81 69.5087 199.22 70.0154 199.527C70.5287 199.827 71.0954 199.977 71.7154 199.977ZM91.9004 200.807L91.9204 193.547C91.9204 192.673 91.6704 191.99 91.1704 191.497C90.6771 190.997 90.0604 190.747 89.3204 190.747C88.9004 190.747 88.4837 190.843 88.0704 191.037C87.6637 191.23 87.3237 191.543 87.0504 191.977C86.7771 192.41 86.6404 192.997 86.6404 193.737L85.8304 193.607C85.8037 192.82 85.9471 192.137 86.2604 191.557C86.5804 190.97 87.0204 190.517 87.5804 190.197C88.1471 189.877 88.7904 189.717 89.5104 189.717C90.5704 189.717 91.4271 190.043 92.0804 190.697C92.7404 191.35 93.0704 192.243 93.0704 193.377L93.0504 200.807H91.9004ZM79.0504 200.807V190.007H80.1004V192.437H80.2004V200.807H79.0504ZM85.4804 200.807L85.5004 193.657C85.5004 192.763 85.2571 192.057 84.7704 191.537C84.2837 191.01 83.6504 190.747 82.8704 190.747C82.0771 190.747 81.4337 191.02 80.9404 191.567C80.4471 192.107 80.2004 192.83 80.2004 193.737L79.4004 193.337C79.4004 192.637 79.5604 192.017 79.8804 191.477C80.2004 190.93 80.6371 190.5 81.1904 190.187C81.7504 189.873 82.3904 189.717 83.1104 189.717C83.7571 189.717 84.3471 189.853 84.8804 190.127C85.4137 190.4 85.8404 190.813 86.1604 191.367C86.4804 191.913 86.6404 192.6 86.6404 193.427L86.6204 200.807H85.4804Z" fill="#494949"/>
<path d="M48.6365 141.107C47.7432 141.107 46.9298 140.89 46.1965 140.457C45.4632 140.017 44.8798 139.43 44.4465 138.697C44.0132 137.957 43.7965 137.133 43.7965 136.227V131.027C43.7965 130.107 44.0132 129.277 44.4465 128.537C44.8798 127.79 45.4632 127.2 46.1965 126.767C46.9365 126.327 47.7665 126.107 48.6865 126.107C49.5398 126.107 50.3232 126.31 51.0365 126.717C51.7565 127.117 52.3298 127.657 52.7565 128.337L51.8365 129.007C51.5098 128.473 51.0698 128.047 50.5165 127.727C49.9632 127.4 49.3532 127.237 48.6865 127.237C47.9732 127.237 47.3365 127.41 46.7765 127.757C46.2165 128.103 45.7732 128.56 45.4465 129.127C45.1198 129.687 44.9565 130.297 44.9565 130.957V134.347L44.6165 133.947C45.0365 133.227 45.6032 132.643 46.3165 132.197C47.0365 131.743 47.8332 131.517 48.7065 131.517C49.5865 131.517 50.3865 131.733 51.1065 132.167C51.8332 132.593 52.4065 133.17 52.8265 133.897C53.2532 134.617 53.4665 135.417 53.4665 136.297C53.4665 137.183 53.2465 137.99 52.8065 138.717C52.3732 139.443 51.7898 140.023 51.0565 140.457C50.3232 140.89 49.5165 141.107 48.6365 141.107ZM48.6365 139.977C49.3165 139.977 49.9332 139.813 50.4865 139.487C51.0465 139.153 51.4898 138.71 51.8165 138.157C52.1432 137.597 52.3065 136.977 52.3065 136.297C52.3065 135.617 52.1432 135 51.8165 134.447C51.4898 133.887 51.0465 133.443 50.4865 133.117C49.9332 132.79 49.3165 132.627 48.6365 132.627C47.9565 132.627 47.3365 132.79 46.7765 133.117C46.2232 133.443 45.7798 133.887 45.4465 134.447C45.1198 135 44.9565 135.617 44.9565 136.297C44.9565 136.977 45.1198 137.597 45.4465 138.157C45.7798 138.71 46.2232 139.153 46.7765 139.487C47.3365 139.813 47.9565 139.977 48.6365 139.977ZM60.7388 141.107C59.8922 141.107 59.1255 140.903 58.4388 140.497C57.7588 140.09 57.2155 139.547 56.8088 138.867C56.4022 138.18 56.1988 137.413 56.1988 136.567V130.647C56.1988 129.8 56.4022 129.037 56.8088 128.357C57.2155 127.67 57.7588 127.123 58.4388 126.717C59.1255 126.31 59.8922 126.107 60.7388 126.107C61.5855 126.107 62.3522 126.31 63.0388 126.717C63.7255 127.123 64.2688 127.67 64.6688 128.357C65.0755 129.037 65.2788 129.8 65.2788 130.647V136.567C65.2788 137.413 65.0755 138.18 64.6688 138.867C64.2688 139.547 63.7255 140.09 63.0388 140.497C62.3522 140.903 61.5855 141.107 60.7388 141.107ZM60.7388 139.977C61.3588 139.977 61.9222 139.827 62.4288 139.527C62.9422 139.22 63.3522 138.81 63.6588 138.297C63.9655 137.783 64.1188 137.217 64.1188 136.597V130.607C64.1188 129.993 63.9655 129.43 63.6588 128.917C63.3522 128.403 62.9422 127.997 62.4288 127.697C61.9222 127.39 61.3588 127.237 60.7388 127.237C60.1188 127.237 59.5522 127.39 59.0388 127.697C58.5322 127.997 58.1255 128.403 57.8188 128.917C57.5122 129.43 57.3588 129.993 57.3588 130.607V136.597C57.3588 137.217 57.5122 137.783 57.8188 138.297C58.1255 138.81 58.5322 139.22 59.0388 139.527C59.5522 139.827 60.1188 139.977 60.7388 139.977ZM72.6138 141.107C71.7672 141.107 71.0005 140.903 70.3138 140.497C69.6338 140.09 69.0905 139.547 68.6838 138.867C68.2772 138.18 68.0738 137.413 68.0738 136.567V130.647C68.0738 129.8 68.2772 129.037 68.6838 128.357C69.0905 127.67 69.6338 127.123 70.3138 126.717C71.0005 126.31 71.7672 126.107 72.6138 126.107C73.4605 126.107 74.2272 126.31 74.9138 126.717C75.6005 127.123 76.1438 127.67 76.5438 128.357C76.9505 129.037 77.1538 129.8 77.1538 130.647V136.567C77.1538 137.413 76.9505 138.18 76.5438 138.867C76.1438 139.547 75.6005 140.09 74.9138 140.497C74.2272 140.903 73.4605 141.107 72.6138 141.107ZM72.6138 139.977C73.2338 139.977 73.7972 139.827 74.3038 139.527C74.8172 139.22 75.2272 138.81 75.5338 138.297C75.8405 137.783 75.9938 137.217 75.9938 136.597V130.607C75.9938 129.993 75.8405 129.43 75.5338 128.917C75.2272 128.403 74.8172 127.997 74.3038 127.697C73.7972 127.39 73.2338 127.237 72.6138 127.237C71.9938 127.237 71.4272 127.39 70.9138 127.697C70.4072 127.997 70.0005 128.403 69.6938 128.917C69.3872 129.43 69.2338 129.993 69.2338 130.607V136.597C69.2338 137.217 69.3872 137.783 69.6938 138.297C70.0005 138.81 70.4072 139.22 70.9138 139.527C71.4272 139.827 71.9938 139.977 72.6138 139.977ZM92.7988 140.807L92.8188 133.547C92.8188 132.673 92.5688 131.99 92.0688 131.497C91.5755 130.997 90.9588 130.747 90.2188 130.747C89.7988 130.747 89.3822 130.843 88.9688 131.037C88.5622 131.23 88.2222 131.543 87.9488 131.977C87.6755 132.41 87.5388 132.997 87.5388 133.737L86.7288 133.607C86.7022 132.82 86.8455 132.137 87.1588 131.557C87.4788 130.97 87.9188 130.517 88.4788 130.197C89.0455 129.877 89.6888 129.717 90.4088 129.717C91.4688 129.717 92.3255 130.043 92.9788 130.697C93.6388 131.35 93.9688 132.243 93.9688 133.377L93.9488 140.807H92.7988ZM79.9488 140.807V130.007H80.9988V132.437H81.0988V140.807H79.9488ZM86.3788 140.807L86.3988 133.657C86.3988 132.763 86.1555 132.057 85.6688 131.537C85.1822 131.01 84.5488 130.747 83.7688 130.747C82.9755 130.747 82.3322 131.02 81.8388 131.567C81.3455 132.107 81.0988 132.83 81.0988 133.737L80.2988 133.337C80.2988 132.637 80.4588 132.017 80.7788 131.477C81.0988 130.93 81.5355 130.5 82.0888 130.187C82.6488 129.873 83.2888 129.717 84.0088 129.717C84.6555 129.717 85.2455 129.853 85.7788 130.127C86.3122 130.4 86.7388 130.813 87.0588 131.367C87.3788 131.913 87.5388 132.6 87.5388 133.427L87.5188 140.807H86.3788Z" fill="#494949"/>
<path d="M44.5865 80.8065L49.9865 67.5465H43.1965V66.4065H51.2265V67.5465L45.8265 80.8065H44.5865ZM58.1607 81.1065C57.314 81.1065 56.5474 80.9032 55.8607 80.4965C55.1807 80.0899 54.6374 79.5465 54.2307 78.8665C53.824 78.1799 53.6207 77.4132 53.6207 76.5665V70.6465C53.6207 69.7999 53.824 69.0365 54.2307 68.3565C54.6374 67.6699 55.1807 67.1232 55.8607 66.7165C56.5474 66.3099 57.314 66.1065 58.1607 66.1065C59.0074 66.1065 59.774 66.3099 60.4607 66.7165C61.1474 67.1232 61.6907 67.6699 62.0907 68.3565C62.4974 69.0365 62.7007 69.7999 62.7007 70.6465V76.5665C62.7007 77.4132 62.4974 78.1799 62.0907 78.8665C61.6907 79.5465 61.1474 80.0899 60.4607 80.4965C59.774 80.9032 59.0074 81.1065 58.1607 81.1065ZM58.1607 79.9765C58.7807 79.9765 59.344 79.8265 59.8507 79.5265C60.364 79.2199 60.774 78.8099 61.0807 78.2965C61.3874 77.7832 61.5407 77.2165 61.5407 76.5965V70.6065C61.5407 69.9932 61.3874 69.4299 61.0807 68.9165C60.774 68.4032 60.364 67.9965 59.8507 67.6965C59.344 67.3899 58.7807 67.2365 58.1607 67.2365C57.5407 67.2365 56.974 67.3899 56.4607 67.6965C55.954 67.9965 55.5474 68.4032 55.2407 68.9165C54.934 69.4299 54.7807 69.9932 54.7807 70.6065V76.5965C54.7807 77.2165 54.934 77.7832 55.2407 78.2965C55.5474 78.8099 55.954 79.2199 56.4607 79.5265C56.974 79.8265 57.5407 79.9765 58.1607 79.9765ZM70.0357 81.1065C69.189 81.1065 68.4224 80.9032 67.7357 80.4965C67.0557 80.0899 66.5124 79.5465 66.1057 78.8665C65.699 78.1799 65.4957 77.4132 65.4957 76.5665V70.6465C65.4957 69.7999 65.699 69.0365 66.1057 68.3565C66.5124 67.6699 67.0557 67.1232 67.7357 66.7165C68.4224 66.3099 69.189 66.1065 70.0357 66.1065C70.8824 66.1065 71.649 66.3099 72.3357 66.7165C73.0224 67.1232 73.5657 67.6699 73.9657 68.3565C74.3724 69.0365 74.5757 69.7999 74.5757 70.6465V76.5665C74.5757 77.4132 74.3724 78.1799 73.9657 78.8665C73.5657 79.5465 73.0224 80.0899 72.3357 80.4965C71.649 80.9032 70.8824 81.1065 70.0357 81.1065ZM70.0357 79.9765C70.6557 79.9765 71.219 79.8265 71.7257 79.5265C72.239 79.2199 72.649 78.8099 72.9557 78.2965C73.2624 77.7832 73.4157 77.2165 73.4157 76.5965V70.6065C73.4157 69.9932 73.2624 69.4299 72.9557 68.9165C72.649 68.4032 72.239 67.9965 71.7257 67.6965C71.219 67.3899 70.6557 67.2365 70.0357 67.2365C69.4157 67.2365 68.849 67.3899 68.3357 67.6965C67.829 67.9965 67.4224 68.4032 67.1157 68.9165C66.809 69.4299 66.6557 69.9932 66.6557 70.6065V76.5965C66.6557 77.2165 66.809 77.7832 67.1157 78.2965C67.4224 78.8099 67.829 79.2199 68.3357 79.5265C68.849 79.8265 69.4157 79.9765 70.0357 79.9765ZM90.2207 80.8065L90.2407 73.5465C90.2407 72.6732 89.9907 71.9899 89.4907 71.4965C88.9974 70.9965 88.3807 70.7465 87.6407 70.7465C87.2207 70.7465 86.804 70.8432 86.3907 71.0365C85.984 71.2299 85.644 71.5432 85.3707 71.9765C85.0974 72.4099 84.9607 72.9965 84.9607 73.7365L84.1507 73.6065C84.124 72.8199 84.2674 72.1365 84.5807 71.5565C84.9007 70.9699 85.3407 70.5165 85.9007 70.1965C86.4674 69.8765 87.1107 69.7165 87.8307 69.7165C88.8907 69.7165 89.7474 70.0432 90.4007 70.6965C91.0607 71.3499 91.3907 72.2432 91.3907 73.3765L91.3707 80.8065H90.2207ZM77.3707 80.8065V70.0065H78.4207V72.4365H78.5207V80.8065H77.3707ZM83.8007 80.8065L83.8207 73.6565C83.8207 72.7632 83.5774 72.0565 83.0907 71.5365C82.604 71.0099 81.9707 70.7465 81.1907 70.7465C80.3974 70.7465 79.754 71.0199 79.2607 71.5665C78.7674 72.1065 78.5207 72.8299 78.5207 73.7365L77.7207 73.3365C77.7207 72.6365 77.8807 72.0165 78.2007 71.4765C78.5207 70.9299 78.9574 70.4999 79.5107 70.1865C80.0707 69.8732 80.7107 69.7165 81.4307 69.7165C82.0774 69.7165 82.6674 69.8532 83.2007 70.1265C83.734 70.3999 84.1607 70.8132 84.4807 71.3665C84.8007 71.9132 84.9607 72.5999 84.9607 73.4265L84.9407 80.8065H83.8007Z" fill="#494949"/>
</g>
<defs>
<filter id="filter0_d_439_233" x="-79.1797" y="139.79" width="764.098" height="413.844" filterUnits="userSpaceOnUse" color-interpolation-filters="sRGB">
<feFlood flood-opacity="0" result="BackgroundImageFix"/>
<feColorMatrix in="SourceAlpha" type="matrix" values="0 0 0 0 0 0 0 0 0 0 0 0 0 0 0 0 0 0 127 0" result="hardAlpha"/>
<feOffset dy="20"/>
<feGaussianBlur stdDeviation="40"/>
<feComposite in2="hardAlpha" operator="out"/>
<feColorMatrix type="matrix" values="0 0 0 0 0.729412 0 0 0 0 1 0 0 0 0 0.164706 0 0 0 1 0"/>
<feBlend mode="normal" in2="BackgroundImageFix" result="effect1_dropShadow_439_233"/>
<feBlend mode="normal" in="SourceGraphic" in2="effect1_dropShadow_439_233" result="shape"/>
</filter>
<linearGradient id="paint0_linear_439_233" x1="0.398443" y1="245.181" x2="605.123" y2="245.181" gradientUnits="userSpaceOnUse">
<stop stop-color="#191919"/>
<stop offset="1" stop-color="#121212"/>
</linearGradient>
<linearGradient id="paint1_linear_439_233" x1="0.398434" y1="232.854" x2="605.123" y2="232.854" gradientUnits="userSpaceOnUse">
<stop stop-color="#252525"/>
<stop offset="1" stop-color="#131313"/>
</linearGradient>
<clipPath id="clip0_439_233">
<rect width="604.724" height="520" fill="white" transform="translate(0.398438 0.806396)"/>
</clipPath>
</defs>
</svg>
