<svg width="173" height="40" viewBox="0 0 173 40" fill="none" xmlns="http://www.w3.org/2000/svg">
<rect width="40" height="40" rx="10" fill="#BAFF2A"/>
<path d="M20.1851 11.3148C18.5039 11.3148 16.8605 11.8133 15.4627 12.7473C14.0649 13.6813 12.9754 15.0088 12.3321 16.562C11.6887 18.1152 11.5204 19.8242 11.8484 21.4731C12.1764 23.1219 12.9859 24.6365 14.1747 25.8252C15.3634 27.014 16.878 27.8235 18.5268 28.1515C20.1756 28.4795 21.8847 28.3111 23.4379 27.6678C24.991 27.0245 26.3186 25.935 27.2526 24.5372C28.1865 23.1393 28.6851 21.496 28.6851 19.8148" stroke="black" stroke-width="7"/>
<path d="M68.988 29.86C67.26 29.86 65.78 29.484 64.548 28.732C63.316 27.972 62.368 26.916 61.704 25.564C61.048 24.212 60.72 22.644 60.72 20.86C60.72 19.076 61.048 17.508 61.704 16.156C62.368 14.804 63.316 13.752 64.548 13C65.78 12.24 67.26 11.86 68.988 11.86C70.98 11.86 72.64 12.36 73.968 13.36C75.296 14.352 76.228 15.692 76.764 17.38L73.848 18.184C73.512 17.056 72.94 16.176 72.132 15.544C71.324 14.904 70.276 14.584 68.988 14.584C67.828 14.584 66.86 14.844 66.084 15.364C65.316 15.884 64.736 16.616 64.344 17.56C63.96 18.496 63.764 19.596 63.756 20.86C63.756 22.124 63.948 23.228 64.332 24.172C64.724 25.108 65.308 25.836 66.084 26.356C66.86 26.876 67.828 27.136 68.988 27.136C70.276 27.136 71.324 26.816 72.132 26.176C72.94 25.536 73.512 24.656 73.848 23.536L76.764 24.34C76.228 26.028 75.296 27.372 73.968 28.372C72.64 29.364 70.98 29.86 68.988 29.86ZM85.1228 29.86C83.8268 29.86 82.6948 29.568 81.7268 28.984C80.7588 28.4 80.0068 27.596 79.4708 26.572C78.9428 25.54 78.6788 24.356 78.6788 23.02C78.6788 21.66 78.9508 20.468 79.4948 19.444C80.0388 18.42 80.7948 17.62 81.7628 17.044C82.7308 16.468 83.8508 16.18 85.1228 16.18C86.4268 16.18 87.5628 16.472 88.5308 17.056C89.4988 17.64 90.2508 18.448 90.7868 19.48C91.3228 20.504 91.5908 21.684 91.5908 23.02C91.5908 24.364 91.3188 25.552 90.7748 26.584C90.2388 27.608 89.4868 28.412 88.5188 28.996C87.5508 29.572 86.4188 29.86 85.1228 29.86ZM85.1228 27.148C86.2748 27.148 87.1308 26.764 87.6908 25.996C88.2508 25.228 88.5308 24.236 88.5308 23.02C88.5308 21.764 88.2468 20.764 87.6788 20.02C87.1108 19.268 86.2588 18.892 85.1228 18.892C84.3468 18.892 83.7068 19.068 83.2028 19.42C82.7068 19.764 82.3388 20.248 82.0988 20.872C81.8588 21.488 81.7388 22.204 81.7388 23.02C81.7388 24.276 82.0228 25.28 82.5908 26.032C83.1668 26.776 84.0108 27.148 85.1228 27.148ZM94.4747 14.572V11.92H97.3667V14.572H94.4747ZM94.4747 29.5V16.54H97.3667V29.5H94.4747ZM109.925 29.5V23.26C109.925 22.852 109.897 22.4 109.841 21.904C109.785 21.408 109.653 20.932 109.445 20.476C109.245 20.012 108.941 19.632 108.533 19.336C108.133 19.04 107.589 18.892 106.901 18.892C106.533 18.892 106.169 18.952 105.809 19.072C105.449 19.192 105.121 19.4 104.825 19.696C104.537 19.984 104.305 20.384 104.129 20.896C103.953 21.4 103.865 22.048 103.865 22.84L102.149 22.108C102.149 21.004 102.361 20.004 102.785 19.108C103.217 18.212 103.849 17.5 104.681 16.972C105.513 16.436 106.537 16.168 107.753 16.168C108.713 16.168 109.505 16.328 110.129 16.648C110.753 16.968 111.249 17.376 111.617 17.872C111.985 18.368 112.257 18.896 112.433 19.456C112.609 20.016 112.721 20.548 112.769 21.052C112.825 21.548 112.853 21.952 112.853 22.264V29.5H109.925ZM100.937 29.5V16.54H103.517V20.56H103.865V29.5H100.937ZM122.213 29.86C120.949 29.86 119.889 29.56 119.033 28.96C118.177 28.36 117.533 27.544 117.101 26.512C116.669 25.472 116.453 24.308 116.453 23.02C116.453 21.716 116.669 20.548 117.101 19.516C117.533 18.484 118.165 17.672 118.997 17.08C119.837 16.48 120.873 16.18 122.105 16.18C123.329 16.18 124.389 16.48 125.285 17.08C126.189 17.672 126.889 18.484 127.385 19.516C127.881 20.54 128.129 21.708 128.129 23.02C128.129 24.316 127.885 25.48 127.397 26.512C126.909 27.544 126.221 28.36 125.333 28.96C124.445 29.56 123.405 29.86 122.213 29.86ZM115.961 29.5V12.22H118.877V20.404H118.517V29.5H115.961ZM121.769 27.268C122.521 27.268 123.141 27.08 123.629 26.704C124.117 26.328 124.477 25.82 124.709 25.18C124.949 24.532 125.069 23.812 125.069 23.02C125.069 22.236 124.949 21.524 124.709 20.884C124.469 20.236 124.097 19.724 123.593 19.348C123.089 18.964 122.449 18.772 121.673 18.772C120.937 18.772 120.337 18.952 119.873 19.312C119.409 19.664 119.065 20.16 118.841 20.8C118.625 21.432 118.517 22.172 118.517 23.02C118.517 23.86 118.625 24.6 118.841 25.24C119.065 25.88 119.413 26.38 119.885 26.74C120.365 27.092 120.993 27.268 121.769 27.268ZM134.398 29.86C133.462 29.86 132.67 29.684 132.022 29.332C131.374 28.972 130.882 28.496 130.546 27.904C130.218 27.312 130.054 26.66 130.054 25.948C130.054 25.324 130.158 24.764 130.366 24.268C130.574 23.764 130.894 23.332 131.326 22.972C131.758 22.604 132.318 22.304 133.006 22.072C133.526 21.904 134.134 21.752 134.83 21.616C135.534 21.48 136.294 21.356 137.11 21.244C137.934 21.124 138.794 20.996 139.69 20.86L138.658 21.448C138.666 20.552 138.466 19.892 138.058 19.468C137.65 19.044 136.962 18.832 135.994 18.832C135.41 18.832 134.846 18.968 134.302 19.24C133.758 19.512 133.378 19.98 133.162 20.644L130.522 19.816C130.842 18.72 131.45 17.84 132.346 17.176C133.25 16.512 134.466 16.18 135.994 16.18C137.146 16.18 138.158 16.368 139.03 16.744C139.91 17.12 140.562 17.736 140.986 18.592C141.218 19.048 141.358 19.516 141.406 19.996C141.454 20.468 141.478 20.984 141.478 21.544V29.5H138.946V26.692L139.366 27.148C138.782 28.084 138.098 28.772 137.314 29.212C136.538 29.644 135.566 29.86 134.398 29.86ZM134.974 27.556C135.63 27.556 136.19 27.44 136.654 27.208C137.118 26.976 137.486 26.692 137.758 26.356C138.038 26.02 138.226 25.704 138.322 25.408C138.474 25.04 138.558 24.62 138.574 24.148C138.598 23.668 138.61 23.28 138.61 22.984L139.498 23.248C138.626 23.384 137.878 23.504 137.254 23.608C136.63 23.712 136.094 23.812 135.646 23.908C135.198 23.996 134.802 24.096 134.458 24.208C134.122 24.328 133.838 24.468 133.606 24.628C133.374 24.788 133.194 24.972 133.066 25.18C132.946 25.388 132.886 25.632 132.886 25.912C132.886 26.232 132.966 26.516 133.126 26.764C133.286 27.004 133.518 27.196 133.822 27.34C134.134 27.484 134.518 27.556 134.974 27.556ZM153.566 29.5V23.26C153.566 22.852 153.538 22.4 153.482 21.904C153.426 21.408 153.294 20.932 153.086 20.476C152.886 20.012 152.582 19.632 152.174 19.336C151.774 19.04 151.23 18.892 150.542 18.892C150.174 18.892 149.81 18.952 149.45 19.072C149.09 19.192 148.762 19.4 148.466 19.696C148.178 19.984 147.946 20.384 147.77 20.896C147.594 21.4 147.506 22.048 147.506 22.84L145.79 22.108C145.79 21.004 146.002 20.004 146.426 19.108C146.858 18.212 147.49 17.5 148.322 16.972C149.154 16.436 150.178 16.168 151.394 16.168C152.354 16.168 153.146 16.328 153.77 16.648C154.394 16.968 154.89 17.376 155.258 17.872C155.626 18.368 155.898 18.896 156.074 19.456C156.25 20.016 156.362 20.548 156.41 21.052C156.466 21.548 156.494 21.952 156.494 22.264V29.5H153.566ZM144.578 29.5V16.54H147.158V20.56H147.506V29.5H144.578ZM164.61 29.86C163.418 29.86 162.378 29.56 161.49 28.96C160.602 28.36 159.914 27.544 159.426 26.512C158.938 25.48 158.694 24.316 158.694 23.02C158.694 21.708 158.938 20.54 159.426 19.516C159.922 18.484 160.622 17.672 161.526 17.08C162.43 16.48 163.494 16.18 164.718 16.18C165.95 16.18 166.982 16.48 167.814 17.08C168.654 17.672 169.29 18.484 169.722 19.516C170.154 20.548 170.37 21.716 170.37 23.02C170.37 24.308 170.154 25.472 169.722 26.512C169.29 27.544 168.646 28.36 167.79 28.96C166.934 29.56 165.874 29.86 164.61 29.86ZM165.054 27.268C165.83 27.268 166.454 27.092 166.926 26.74C167.406 26.38 167.754 25.88 167.97 25.24C168.194 24.6 168.306 23.86 168.306 23.02C168.306 22.172 168.194 21.432 167.97 20.8C167.754 20.16 167.414 19.664 166.95 19.312C166.486 18.952 165.886 18.772 165.15 18.772C164.374 18.772 163.734 18.964 163.23 19.348C162.726 19.724 162.354 20.236 162.114 20.884C161.874 21.524 161.754 22.236 161.754 23.02C161.754 23.812 161.87 24.532 162.102 25.18C162.342 25.82 162.706 26.328 163.194 26.704C163.682 27.08 164.302 27.268 165.054 27.268ZM168.306 29.5V20.404H167.946V12.22H170.862V29.5H168.306Z" fill="white"/>
</svg>
