<svg width="80" height="80" viewBox="0 0 80 80" fill="none" xmlns="http://www.w3.org/2000/svg">
<g clip-path="url(#clip0_447_177)">
<path d="M60 0H20C8.9543 0 0 8.9543 0 20V60C0 71.0457 8.9543 80 20 80H60C71.0457 80 80 71.0457 80 60V20C80 8.9543 71.0457 0 60 0Z" fill="#BAFF2A"/>
<path d="M40.3711 23.6299C37.2066 23.6299 34.1131 24.5683 31.4819 26.3264C28.8508 28.0845 26.8001 30.5833 25.5891 33.507C24.3781 36.4306 24.0611 39.6476 24.6785 42.7513C25.2959 45.855 26.8198 48.706 29.0575 50.9436C31.2951 53.1812 34.146 54.7051 37.2497 55.3225C40.3534 55.9398 43.5705 55.623 46.4941 54.412C49.4177 53.201 51.9166 51.1502 53.6747 48.519C55.4328 45.8878 56.3712 42.7944 56.3712 39.6299" stroke="black" stroke-width="12"/>
</g>
<defs>
<clipPath id="clip0_447_177">
<rect width="80" height="80" fill="white"/>
</clipPath>
</defs>
</svg>
