<svg width="135" height="41" viewBox="0 0 135 41" fill="none" xmlns="http://www.w3.org/2000/svg">
<g clip-path="url(#clip0_606_97316)">
<path d="M57.6904 21.1061C64.1796 21.1061 67.6101 17.2468 67.6101 11.9868V9.5569H58.0906V13.4733H62.0928C61.9784 15.2743 60.8349 16.8466 57.8619 16.8466C54.2027 16.8466 52.8591 14.2166 52.8591 10.7576V10.5289C52.8591 6.72677 54.6887 4.41121 57.7189 4.41121C59.9487 4.41121 61.2637 5.41176 61.5782 7.44145H67.1241C66.6953 2.18141 62.4644 0.00878906 57.6904 0.00878906C51.5727 0.00878906 47.0273 4.23969 47.0273 10.4431V10.6718C47.0273 16.7894 50.8008 21.1061 57.6904 21.1061Z" fill="#4D92D5"/>
<path d="M66.9688 20.7631H72.1716L73.3151 16.7894H80.2328L81.4049 20.7631H87.2938L80.776 0.323242H73.5438L66.9688 20.7631ZM76.8024 4.84001L79.1179 12.9302H74.43L76.8024 4.84001Z" fill="#4D92D5"/>
<path d="M88.9453 20.7631H94.577V0.323242H88.9453V20.7631Z" fill="#4D92D5"/>
<path d="M97.7832 20.7631H102.729V7.55579L110.419 20.7631H115.85V0.323242H110.962V12.2727L104.13 0.323242H97.7832V20.7631Z" fill="#4D92D5"/>
<path d="M126.371 21.1068C131.546 21.1068 134.519 18.0766 134.519 14.3603C134.519 9.98642 131.86 8.61423 126.743 8.04249C124.084 7.67086 123.427 7.1277 123.427 5.89845C123.427 4.81214 124.285 4.04029 125.971 4.04029C127.658 4.04029 128.544 4.81214 128.773 6.35585H133.947C133.575 2.09636 130.802 0.0380859 125.971 0.0380859C121.14 0.0380859 118.138 2.69669 118.138 6.35585C118.138 10.4152 120.139 12.1019 125.8 12.788C128.373 13.1882 129.173 13.5884 129.173 14.932C129.173 16.2184 128.144 17.1046 126.371 17.1046C123.799 17.1046 123.112 15.8182 122.97 14.3031H117.652C117.824 18.6483 120.683 21.1068 126.371 21.1068Z" fill="#4D92D5"/>
<path d="M46.5703 38.8181H48.9039L49.8763 35.7774H54.6142L55.5866 38.8181H58.1854L54.0308 26.1777H50.7779L46.5703 38.8181ZM52.2452 28.2108L54.0662 33.9564H50.4243L52.2452 28.2108Z" fill="#4D92D5"/>
<path d="M62.6344 38.9949C63.8719 38.9949 64.8266 38.7297 65.4984 38.1994C66.1702 37.669 66.5238 36.9088 66.5238 35.9188C66.5238 34.9818 66.2232 34.31 65.6575 33.9034C65.0741 33.4968 64.1548 33.1962 62.8996 33.0018C62.1571 32.878 61.6444 32.7366 61.3792 32.5775C61.0963 32.4184 60.9726 32.1709 60.9726 31.835C60.9726 31.5167 61.0963 31.2692 61.3615 31.0571C61.6267 30.8626 61.9803 30.7565 62.4399 30.7565C62.9173 30.7565 63.2885 30.8626 63.536 31.0571C63.7835 31.2692 63.9426 31.5698 64.0487 31.9941H66.2232C66.0111 30.0671 64.7559 29.0947 62.4223 29.0947C61.4322 29.0947 60.566 29.3599 59.8588 29.8549C59.1517 30.3676 58.7981 31.0748 58.7981 31.9764C58.7981 32.878 59.0456 33.5498 59.5583 33.9741C60.071 34.3984 60.9726 34.7166 62.2455 34.9111C62.9703 35.0348 63.483 35.1763 63.8012 35.3531C64.1018 35.5298 64.2609 35.795 64.2609 36.1486C64.2609 36.9265 63.7128 37.3154 62.6167 37.3154C62.0156 37.3154 61.5914 37.1917 61.3085 36.9442C61.0256 36.6967 60.8665 36.3431 60.7958 35.8481H58.5859C58.6213 36.8558 58.9926 37.6336 59.6997 38.1817C60.4069 38.7297 61.3792 38.9949 62.6344 38.9949Z" fill="#4D92D5"/>
<path d="M71.1246 38.9949C72.3622 38.9949 73.3168 38.7297 73.9886 38.1994C74.6604 37.669 75.014 36.9088 75.014 35.9188C75.014 34.9818 74.7135 34.31 74.1477 33.9034C73.5643 33.4968 72.645 33.1962 71.3898 33.0018C70.6473 32.878 70.1346 32.7366 69.8694 32.5775C69.5866 32.4184 69.4628 32.1709 69.4628 31.835C69.4628 31.5167 69.5866 31.2692 69.8518 31.0571C70.1169 30.8626 70.4705 30.7565 70.9302 30.7565C71.4075 30.7565 71.7788 30.8626 72.0263 31.0571C72.2738 31.2692 72.4329 31.5698 72.539 31.9941H74.7135C74.5013 30.0671 73.2461 29.0947 70.9125 29.0947C69.9225 29.0947 69.0562 29.3599 68.3491 29.8549C67.6419 30.3676 67.2883 31.0748 67.2883 31.9764C67.2883 32.878 67.5358 33.5498 68.0485 33.9741C68.5612 34.3984 69.4628 34.7166 70.7357 34.9111C71.4605 35.0348 71.9732 35.1763 72.2914 35.3531C72.592 35.5298 72.7511 35.795 72.7511 36.1486C72.7511 36.9265 72.2031 37.3154 71.107 37.3154C70.5059 37.3154 70.0816 37.1917 69.7987 36.9442C69.5159 36.6967 69.3568 36.3431 69.286 35.8481H67.0762C67.1115 36.8558 67.4828 37.6336 68.1899 38.1817C68.8971 38.7297 69.8694 38.9949 71.1246 38.9949Z" fill="#4D92D5"/>
<path d="M80.622 37.1917C79.8087 37.1917 79.1896 36.9265 78.748 36.3784C78.3057 35.8481 78.0935 35.0879 78.0935 34.1155V33.9741C78.0935 33.0194 78.3057 32.2593 78.7653 31.7289C79.2077 31.1985 79.826 30.9157 80.622 30.9157C81.3998 30.9157 82.0182 31.1985 82.4606 31.7289C82.9022 32.2769 83.1324 33.0371 83.1324 33.9918V34.1332C83.1324 35.0879 82.9022 35.8304 82.4606 36.3784C82.0009 36.9265 81.3998 37.1917 80.622 37.1917ZM80.6039 38.9949C82.0363 38.9949 83.2204 38.5529 84.1577 37.6513C85.077 36.7674 85.554 35.5829 85.554 34.0979V33.9564C85.554 32.5068 85.077 31.3399 84.1577 30.4383C83.2204 29.5544 82.0363 29.0947 80.622 29.0947C79.1896 29.0947 78.0055 29.5544 77.0681 30.456C76.1315 31.3753 75.6719 32.5598 75.6719 34.0095V34.1509C75.6719 35.6006 76.1315 36.785 77.0681 37.669C77.9874 38.5529 79.1723 38.9949 80.6039 38.9949Z" fill="#4D92D5"/>
<path d="M91.1468 38.9949C92.455 38.9949 93.4977 38.659 94.2936 37.9695C95.0888 37.2801 95.5311 36.3608 95.6018 35.2293H93.4623C93.3916 35.8657 93.1441 36.3608 92.7379 36.6967C92.3309 37.0502 91.8359 37.2093 91.2348 37.2093C90.4569 37.2093 89.8385 36.9442 89.3962 36.4138C88.9365 35.8834 88.7244 35.1409 88.7244 34.1509V34.0095C88.7244 33.0548 88.9365 32.3123 89.3962 31.7642C89.8385 31.2339 90.4396 30.951 91.1821 30.951C92.4016 30.951 93.1087 31.5344 93.3036 32.7012H95.5484C95.425 31.4637 94.9654 30.5621 94.1522 29.9787C93.3389 29.3953 92.3309 29.0947 91.1468 29.0947C89.7678 29.0947 88.6183 29.5544 87.699 30.456C86.7624 31.3576 86.3027 32.5421 86.3027 34.0095V34.1509C86.3027 35.6713 86.7443 36.8558 87.6636 37.7044C88.5656 38.5706 89.7324 38.9949 91.1468 38.9949Z" fill="#4D92D5"/>
<path d="M96.9133 38.8179H99.2469V29.289H96.9133V38.8179ZM98.0628 28.3343C98.4337 28.3343 98.7519 28.2106 99.0175 27.9631C99.2823 27.7156 99.4237 27.3974 99.4237 27.0084C99.4237 26.6549 99.2823 26.3366 99.0175 26.0891C98.7519 25.8416 98.4337 25.7002 98.0628 25.7002C97.6739 25.7002 97.3557 25.8416 97.0901 26.0891C96.8253 26.3366 96.7012 26.6549 96.7012 27.0084C96.7012 27.3974 96.8253 27.7156 97.0901 27.9631C97.3557 28.2106 97.6739 28.3343 98.0628 28.3343Z" fill="#4D92D5"/>
<path d="M103.788 38.9949C105.061 38.9949 106.016 38.5529 106.687 37.6513V38.8181H109.003V32.5951C109.003 31.3753 108.649 30.4914 107.96 29.9256C107.253 29.3776 106.316 29.0947 105.132 29.0947C103.965 29.0947 102.992 29.3599 102.232 29.8903C101.472 30.4206 101.048 31.2162 100.977 32.2769H103.222C103.346 31.3223 103.93 30.8449 104.99 30.8449C105.591 30.8449 106.033 31.004 106.28 31.2869C106.528 31.5875 106.652 32.0471 106.652 32.6835V33.1609H105.503C103.982 33.1609 102.798 33.4084 101.914 33.8857C101.03 34.3807 100.588 35.1409 100.588 36.184C100.588 37.1386 100.889 37.8458 101.49 38.3054C102.091 38.7651 102.851 38.9949 103.788 38.9949ZM104.407 37.3331C103.417 37.3331 102.922 36.9088 102.922 36.0602C102.922 35.0879 103.788 34.5929 105.556 34.5929H106.652V35.4945C106.652 36.0602 106.44 36.5199 106.016 36.8381C105.591 37.174 105.043 37.3331 104.407 37.3331Z" fill="#4D92D5"/>
<path d="M114.161 38.9777C114.674 38.9777 115.186 38.907 115.699 38.7479V36.9093C115.363 37.033 115.009 37.0861 114.656 37.0861C113.931 37.0861 113.578 36.6971 113.578 35.8839V31.0222H115.628V29.2897H113.578V26.9561H111.226V29.2897H109.953V31.0222H111.226V36.1137C111.226 37.0507 111.474 37.7579 111.969 38.2529C112.464 38.7479 113.206 38.9777 114.161 38.9777Z" fill="#4D92D5"/>
<path d="M121.291 38.9949C122.547 38.9949 123.554 38.7297 124.332 38.1994C125.11 37.669 125.57 36.8911 125.729 35.8657H123.466C123.29 36.8204 122.6 37.2801 121.362 37.2801C120.567 37.2801 119.948 37.0502 119.524 36.5906C119.082 36.1309 118.852 35.4591 118.816 34.5752H125.765V33.9034C125.765 32.3123 125.322 31.1101 124.456 30.2969C123.59 29.5013 122.512 29.0947 121.221 29.0947C119.825 29.0947 118.675 29.5544 117.774 30.456C116.854 31.3753 116.412 32.5598 116.412 34.0095V34.1509C116.412 35.6359 116.854 36.8204 117.774 37.6867C118.675 38.5706 119.842 38.9949 121.291 38.9949ZM118.852 33.0548C118.958 32.3476 119.223 31.7819 119.648 31.3753C120.054 30.9864 120.584 30.7742 121.221 30.7742C122.6 30.7742 123.342 31.5344 123.431 33.0548H118.852Z" fill="#4D92D5"/>
<path d="M130.521 38.9949C131.758 38.9949 132.713 38.7297 133.385 38.1994C134.057 37.669 134.41 36.9088 134.41 35.9188C134.41 34.9818 134.11 34.31 133.544 33.9034C132.96 33.4968 132.041 33.1962 130.786 33.0018C130.044 32.878 129.531 32.7366 129.266 32.5775C128.983 32.4184 128.859 32.1709 128.859 31.835C128.859 31.5167 128.983 31.2692 129.248 31.0571C129.513 30.8626 129.867 30.7565 130.327 30.7565C130.804 30.7565 131.175 30.8626 131.423 31.0571C131.67 31.2692 131.829 31.5698 131.935 31.9941H134.11C133.898 30.0671 132.642 29.0947 130.309 29.0947C129.319 29.0947 128.453 29.3599 127.746 29.8549C127.038 30.3676 126.685 31.0748 126.685 31.9764C126.685 32.878 126.932 33.5498 127.445 33.9741C127.958 34.3984 128.859 34.7166 130.132 34.9111C130.857 35.0348 131.369 35.1763 131.688 35.3531C131.988 35.5298 132.147 35.795 132.147 36.1486C132.147 36.9265 131.6 37.3154 130.503 37.3154C129.902 37.3154 129.478 37.1917 129.195 36.9442C128.912 36.6967 128.753 36.3431 128.682 35.8481H126.473C126.508 36.8558 126.879 37.6336 127.586 38.1817C128.293 38.7297 129.266 38.9949 130.521 38.9949Z" fill="#4D92D5"/>
<path d="M16.0496 35.436L15.5691 40.3951C14.286 40.1006 13.0572 39.6838 11.8892 39.1523C11.5903 39.0169 11.2921 38.8746 11.0017 38.726C9.83975 38.1312 8.73794 37.4289 7.72423 36.6216C7.47367 36.4272 7.22444 36.2187 6.98224 36.0109C6.74004 35.8031 6.4992 35.5812 6.27241 35.3607C6.1555 35.2501 6.03927 35.1325 5.92939 35.0226C5.58705 34.6774 5.25944 34.3266 4.94724 33.9631C4.83872 33.8392 4.73722 33.7159 4.63572 33.5926C1.3547 29.6233 -0.401433 24.4048 0.134222 18.8768C0.149877 18.7152 0.164849 18.5607 0.187527 18.3998C0.19093 18.3647 0.194333 18.3296 0.197737 18.2944C0.207946 18.189 0.225183 18.0844 0.234711 17.9861C0.242198 17.9088 0.25603 17.8392 0.270541 17.7626C0.289136 17.6439 0.308411 17.5181 0.327006 17.3994L5.24399 17.8758C5.14718 18.3628 5.07914 18.8454 5.03082 19.3441C4.31705 26.7835 9.10506 33.4939 16.0496 35.436Z" fill="#4D92D5"/>
<path d="M40.2125 22.2775C40.2159 22.2424 40.2193 22.2073 40.2227 22.1721C40.233 22.0667 40.2361 21.9607 40.2386 21.8617C40.2461 21.7844 40.2529 21.7142 40.2534 21.6363C40.2579 21.5161 40.2631 21.3891 40.2677 21.2689C40.27 21.099 40.2793 20.9297 40.2746 20.7591C40.2734 20.6243 40.273 20.4824 40.2642 20.354C40.2696 20.2978 40.261 20.2402 40.2588 20.1904C40.2466 19.8772 40.2344 19.5641 40.2075 19.2565C40.1993 19.121 40.1841 18.9849 40.1683 18.8557C40.1522 18.6556 40.1291 18.4549 40.1054 18.2611C40.0909 18.1179 40.0687 17.981 40.0465 17.8442C40.0493 17.8161 40.0386 17.7796 40.0343 17.7508C40.0213 17.6645 40.0078 17.5852 39.9942 17.5059C39.982 17.4125 39.9621 17.3256 39.9498 17.2322C39.9213 17.0876 39.8998 16.9437 39.8713 16.7992C39.8427 16.6546 39.8142 16.51 39.778 16.3718C39.7729 16.3501 39.7687 16.3212 39.763 16.3065C39.7331 16.176 39.7025 16.0525 39.6727 15.922C39.662 15.8855 39.6584 15.8497 39.647 15.8202C39.6165 15.6968 39.5859 15.5732 39.5483 15.449C39.5369 15.4196 39.5327 15.3908 39.5284 15.3621C39.4858 15.2161 39.4369 15.0625 39.395 14.9096C39.3687 14.8148 39.3354 14.7194 39.3014 14.6311C39.2745 14.5433 39.2475 14.4556 39.2135 14.3672C39.2092 14.3385 39.1972 14.3161 39.1859 14.2866C39.1419 14.1547 39.091 14.0222 39.04 13.8896C38.9897 13.75 38.9394 13.6104 38.8815 13.4772C38.8645 13.433 38.8468 13.3958 38.8298 13.3516C38.7782 13.2261 38.7328 13.1083 38.6812 12.9827C38.6176 12.8347 38.5539 12.6868 38.4895 12.5459C38.4309 12.4196 38.3716 12.3005 38.3129 12.1742C38.2775 12.0999 38.2422 12.0256 38.2068 11.9512C38.1658 11.8622 38.1171 11.7794 38.0761 11.6904C38.0105 11.5635 37.9447 11.4366 37.879 11.3097C37.836 11.2418 37.8006 11.1674 37.7646 11.1001C37.7159 11.0173 37.6743 10.9353 37.6255 10.8527C37.5522 10.7321 37.4857 10.6122 37.4124 10.4916C37.358 10.3942 37.2959 10.3031 37.2345 10.205C37.1668 10.0992 37.0991 9.99332 37.0313 9.88747C36.9699 9.78937 36.9078 9.69827 36.8458 9.60717C36.8401 9.59242 36.8274 9.57708 36.8154 9.55458C36.7349 9.43339 36.6475 9.31144 36.5671 9.19025L36.5608 9.1825C36.4803 9.06131 36.3985 8.9541 36.3111 8.83216C36.23 8.71796 36.1418 8.60308 36.0537 8.48821C35.9966 8.41885 35.9465 8.35016 35.8825 8.28012C35.8317 8.21851 35.7816 8.14983 35.7309 8.08821L35.6865 8.03427C35.6167 7.94949 35.5406 7.85703 35.4638 7.77165C35.375 7.66377 35.2854 7.56289 35.189 7.46139C35.1763 7.44598 35.1636 7.43057 35.1502 7.42219C35.048 7.30593 34.9458 7.18967 34.843 7.08045C34.7592 6.99433 34.676 6.90119 34.5922 6.81508C34.5598 6.78358 34.5274 6.75208 34.502 6.72126C34.4119 6.62744 34.321 6.54064 34.2238 6.44614C34.1329 6.35934 34.0421 6.27255 33.9512 6.18575C33.9062 6.13884 33.8668 6.10666 33.8216 6.05975C33.7498 5.99607 33.6787 5.92537 33.6062 5.86871C33.5808 5.83789 33.5477 5.81341 33.5217 5.78962C33.4301 5.70984 33.3386 5.63007 33.24 5.54962C32.5592 4.96607 31.8392 4.42125 31.0785 3.92923C30.992 3.87121 30.8984 3.81251 30.8042 3.76084C30.7177 3.70282 30.6304 3.65182 30.5368 3.59312C30.4094 3.51698 30.2885 3.44853 30.1612 3.37238C30.0338 3.29623 29.9058 3.2271 29.7778 3.15797C29.6702 3.09792 29.5555 3.03718 29.4472 2.98414C29.3797 2.94924 29.3058 2.90663 29.2383 2.87173C29.1236 2.81099 29.0154 2.75795 28.9 2.70424C28.8866 2.69585 28.8663 2.68678 28.8529 2.67839C28.7312 2.61698 28.6089 2.56258 28.4865 2.50818C28.2488 2.40007 28.0104 2.29898 27.7651 2.19721C27.5942 2.13103 27.4241 2.05781 27.2526 1.99865C26.9791 1.89416 26.7119 1.79738 26.4364 1.71395C26.3471 1.68404 26.2578 1.65412 26.1615 1.62351C26.0793 1.59427 25.9964 1.57206 25.9064 1.54916C25.8446 1.52898 25.782 1.51583 25.7202 1.49566C25.6443 1.47412 25.5684 1.45258 25.4924 1.43105C25.4025 1.40815 25.3062 1.37756 25.2092 1.35398C25.1467 1.34083 25.0849 1.32066 25.0223 1.3075C24.9113 1.28257 24.8073 1.2583 24.7033 1.23405C24.6548 1.22226 24.6133 1.21115 24.5719 1.20004C24.4819 1.17715 24.3912 1.16127 24.2943 1.1377C24.2036 1.12182 24.1066 1.09825 24.009 1.0817C23.9669 1.07761 23.9254 1.0665 23.8832 1.06242C23.7652 1.0368 23.6535 1.01889 23.5348 1.00029C23.4996 0.99689 23.4645 0.993483 23.423 0.982379C23.3043 0.963782 23.1785 0.944508 23.0528 0.925227C22.906 0.903914 22.7591 0.882595 22.6116 0.868301C22.4437 0.844942 22.2681 0.827925 22.0995 0.811593C21.9239 0.794576 21.7554 0.778244 21.5791 0.768246C21.4316 0.753952 21.2834 0.746687 21.1352 0.739419C21.008 0.734192 20.888 0.729644 20.7608 0.724417C20.7187 0.720333 20.6836 0.71693 20.6477 0.720552C20.5277 0.716005 20.4139 0.719163 20.2939 0.714617C20.2447 0.709853 20.2019 0.712794 20.1597 0.708709C20.0607 0.706205 19.968 0.711406 19.869 0.7089C19.777 0.707077 19.6773 0.711597 19.5846 0.716796C19.5354 0.712032 19.4919 0.721999 19.4491 0.724939C19.3354 0.728097 19.2286 0.731937 19.1219 0.735776C19.058 0.736674 18.9935 0.744597 18.9295 0.745496C18.8298 0.750016 18.7224 0.760881 18.6227 0.765395C18.5518 0.765613 18.4872 0.773534 18.4226 0.781464C18.337 0.787339 18.2584 0.793907 18.179 0.807493C18.1075 0.81473 18.0288 0.821298 17.9572 0.828535C17.8427 0.838721 17.7347 0.85661 17.6273 0.867473C17.5845 0.870407 17.5409 0.880375 17.4911 0.882632C17.3331 0.902786 17.1822 0.92361 17.0237 0.950782C16.9155 0.968672 16.8074 0.986554 16.6994 1.00444C16.5913 1.02233 16.4832 1.04022 16.3744 1.06513C16.2663 1.08302 16.1576 1.10793 16.0495 1.12582C15.8902 1.16002 15.7239 1.19353 15.5709 1.23544C15.411 1.27665 15.2516 1.31085 15.0917 1.35207C14.9464 1.38762 14.8005 1.43021 14.6545 1.47279C14.611 1.48275 14.5746 1.4934 14.5304 1.51039C14.4062 1.54799 14.275 1.58491 14.1508 1.62251L14.1438 1.62183C13.9902 1.67075 13.8366 1.71967 13.6822 1.77563C13.5286 1.82455 13.3743 1.8805 13.22 1.93645C13.1238 1.97677 13.0214 2.00939 12.9254 2.04971C12.844 2.08437 12.7563 2.11132 12.682 2.14666C11.8411 2.4835 11.0305 2.87292 10.2496 3.32192C10.1445 3.38264 10.0393 3.44335 9.92711 3.50338C9.89702 3.52173 9.86685 3.54009 9.82969 3.55776C9.71617 3.63184 9.59633 3.69821 9.48273 3.7723C9.35454 3.85204 9.23327 3.93247 9.112 4.01289C8.98374 4.09264 8.86187 4.18009 8.7406 4.26051C8.61873 4.34796 8.49746 4.42839 8.38258 4.51652L19.1297 5.55788L18.999 6.90654C18.8684 8.25522 19.2978 9.53051 20.0971 10.5013C20.8964 11.4722 22.0655 12.1385 23.4142 12.2692L24.0193 6.02457L24.6936 6.08991C26.7236 6.28661 28.4565 7.35498 29.556 8.88662C30.3316 9.95443 30.7942 11.2542 30.8378 12.6339C30.8488 13.0321 30.8304 13.4415 30.7692 13.8539C30.2403 17.4825 26.8296 19.9739 23.184 19.6206L6.979 18.0505C6.88219 18.5374 6.80713 19.0193 6.75881 19.518C6.13058 26.0015 10.2278 31.8651 16.2261 33.6941C16.8869 33.8999 17.56 34.0502 18.2597 34.1465L17.6179 40.7703C17.8209 40.7971 18.0169 40.8231 18.2206 40.8429C18.3612 40.8565 18.5086 40.8708 18.6568 40.8781C18.713 40.8835 18.7692 40.889 18.8261 40.8874C18.9385 40.8983 19.0515 40.9021 19.1569 40.9124C19.3191 40.9209 19.475 40.9219 19.6303 40.9298C19.6941 40.9289 19.7573 40.9351 19.8213 40.9342C19.9695 40.9415 20.1113 40.941 20.2532 40.9406C20.3241 40.9403 20.395 40.9401 20.4589 40.9392C20.5228 40.9383 20.5797 40.9367 20.6365 40.9352C20.7145 40.9356 20.7931 40.9291 20.8711 40.9295C20.9209 40.9273 20.9637 40.9243 21.0136 40.9221C21.199 40.9117 21.3843 40.9013 21.5697 40.8908C21.5908 40.893 21.6055 40.8872 21.6195 40.8886C21.7199 40.8771 21.8266 40.8732 21.927 40.8617C22.1418 40.84 22.3489 40.8246 22.5574 40.7952C22.8943 40.7569 23.2326 40.7046 23.5639 40.6516C23.686 40.6351 23.8018 40.6108 23.9247 40.5873C24.0334 40.5624 24.1416 40.5445 24.2573 40.5203C24.2791 40.5153 24.2931 40.5167 24.3085 40.5039C24.533 40.4548 24.7576 40.4057 24.9822 40.3566C25.0987 40.3253 25.2151 40.2941 25.3309 40.2698C25.4474 40.2385 25.5639 40.2073 25.6733 40.1753C25.8992 40.1121 26.1329 40.0426 26.3525 39.9717C26.4843 39.9278 26.6162 39.8838 26.7411 39.8392C26.9241 39.779 27.1079 39.7117 27.2994 39.6381C27.4832 39.5708 27.6676 39.4965 27.8451 39.4215C27.9412 39.3812 28.0296 39.3472 28.1186 39.3062C28.1922 39.2779 28.2665 39.2426 28.3409 39.2072C28.4152 39.1719 28.4888 39.1436 28.5562 39.1075C28.6746 39.0553 28.7861 39.0022 28.8976 38.9492C29.0386 38.8849 29.1732 38.8129 29.3148 38.7415C29.4494 38.6694 29.5833 38.6044 29.7109 38.5317C29.8904 38.4357 30.0706 38.3325 30.2507 38.2295C30.3489 38.1681 30.4456 38.1208 30.5367 38.0587C30.5739 38.041 30.6047 38.0157 30.6348 37.9973C30.7477 37.9302 30.8605 37.8632 30.9664 37.7954C30.9811 37.7897 30.9888 37.7834 31.0042 37.7707C31.1177 37.6966 31.2312 37.6226 31.3448 37.5485C31.52 37.4237 31.7015 37.3065 31.8773 37.1747C31.9762 37.1063 32.0756 37.0308 32.1751 36.9554C32.1898 36.9497 32.1982 36.9363 32.2129 36.9307C32.3279 36.8425 32.4421 36.7614 32.5506 36.6656C32.5653 36.66 32.5737 36.6466 32.5885 36.6409C32.6963 36.5521 32.8035 36.4703 32.9113 36.3815L32.9653 36.3371C33.0584 36.2539 33.1579 36.1785 33.2511 36.0954C33.2818 36.07 33.3204 36.0383 33.3512 36.0129C33.4598 35.9171 33.5683 35.8212 33.6699 35.7247C33.8099 35.5964 33.95 35.4682 34.083 35.3393C34.1614 35.2618 34.2391 35.1914 34.3182 35.1068C34.4197 35.0103 34.5143 34.9131 34.6094 34.8089C34.664 34.7575 34.7123 34.6983 34.7669 34.647C34.7984 34.6145 34.8228 34.5814 34.8544 34.5491C34.9258 34.4709 35.0041 34.3934 35.0685 34.3145C35.1567 34.2097 35.2512 34.1125 35.3387 34.0146C35.4269 33.9097 35.5143 33.8118 35.6024 33.7069C35.6906 33.602 35.7718 33.4964 35.8599 33.3915C35.9243 33.3127 35.9886 33.2339 36.046 33.1543C36.102 33.0888 36.1509 33.0227 36.2076 32.9502C36.5006 32.5603 36.7873 32.1626 37.0535 31.7559C37.1116 31.6694 37.1626 31.5821 37.2206 31.4955C37.2625 31.4287 37.3044 31.3619 37.3464 31.295C37.3632 31.2683 37.3722 31.2479 37.389 31.2212C37.4477 31.1276 37.5071 31.027 37.5595 30.9257C37.5936 30.8653 37.6278 30.8047 37.6621 30.7442C37.748 30.5895 37.8332 30.4418 37.9121 30.2863C38.0329 30.0641 38.1466 29.8411 38.2534 29.6175C38.3155 29.4888 38.3699 29.3664 38.4313 29.2447C38.4858 29.1224 38.5471 29.0007 38.5952 28.8707C38.6489 28.7554 38.6949 28.6464 38.7416 28.5304C38.7674 28.4832 38.7863 28.4354 38.8051 28.3876C38.842 28.299 38.8797 28.2034 38.9173 28.1078C39.0134 27.8477 39.1095 27.5875 39.1986 27.3268C39.2375 27.2171 39.2766 27.1074 39.3085 26.997C39.3196 26.9556 39.3377 26.9148 39.3489 26.8734C39.369 26.8115 39.3892 26.7496 39.4087 26.6948C39.4406 26.5845 39.4719 26.4811 39.5039 26.3708C39.5234 26.316 39.5366 26.2534 39.556 26.1986C39.5685 26.143 39.588 26.0883 39.5998 26.0397C39.6311 25.9365 39.6554 25.8324 39.6796 25.7284C39.7489 25.4515 39.8106 25.181 39.8659 24.9027C39.8818 24.8121 39.9047 24.7222 39.9206 24.6315C39.9351 24.5549 39.9496 24.4784 39.9642 24.4018C39.9786 24.3252 39.9931 24.2486 40.0007 24.1714C40.0138 24.1088 40.0199 24.0456 40.0338 23.976C40.0503 23.8783 40.0669 23.7807 40.0764 23.6824C40.0825 23.6191 40.095 23.5636 40.1011 23.5004C40.11 23.409 40.1252 23.3255 40.1333 23.2412C40.1483 23.0866 40.1703 22.9328 40.1853 22.7783C40.1889 22.5942 40.2038 22.4397 40.2125 22.2775ZM13.3822 26.385C13.4318 25.8723 12.4417 25.8472 12.494 25.3064C13.4624 25.5562 13.0318 24.3659 13.5727 24.4183C14.1136 24.4707 8.8639 24.281 8.81146 24.8219C8.76542 25.3705 13.9301 26.4382 13.3822 26.385Z" fill="#4D92D5"/>
<path d="M16.3317 24.9832C16.3317 25.8407 15.6366 26.5358 14.7791 26.5358C13.9217 26.5358 13.2266 25.8407 13.2266 24.9832C13.2266 24.1258 13.9217 23.4307 14.7791 23.4307C15.6366 23.4307 16.3317 24.1258 16.3317 24.9832Z" fill="#F7F9FD"/>
</g>
<defs>
<clipPath id="clip0_606_97316">
<rect width="134.585" height="41" fill="white"/>
</clipPath>
</defs>
</svg>
