<svg xmlns="http://www.w3.org/2000/svg" viewBox="0 0 803.57 217.64"><g id="Layer_1" data-name="Layer 1"><path d="M800.41,175.33c-9.28.09-16.16,7.16-16.09,16.52s7.15,16.08,16.59,15.94a16.23,16.23,0,0,0,16-16.17A16.42,16.42,0,0,0,800.41,175.33Z" transform="translate(-101.32 -87.38)" style="fill:#fff"/><path d="M858,87.43q-28.05-.06-56.11-.05-29.36,0-58.7,0a46.52,46.52,0,0,0-47.22,47.09c0,.83,0,1.66,0,2.49a41.91,41.91,0,0,0-5.78-.32H676.54c-4.17,0-11.94,0-18.14,6.17a22.08,22.08,0,0,0-6.2,14.41c-.23-4.1-1.28-9.94-6.15-14.68-6-5.83-13.38-5.87-17.35-5.9l-7.5,0-7.68,0c-13,.08-21.3,6.46-23.45,17.74-1-1.07-2.08-2.1-3.18-3.12-11.56-10.67-24.7-16.08-39-16.08a58.43,58.43,0,0,0-10.46,1c0-1.45,0-2.89,0-4.33-.09-14.22-9.33-23.61-23.53-23.91-1.94,0-3.89,0-5.84,0h-4.54l-3.49,0c-16.82,0-25.72,8.89-25.72,25.64v2.83l-1.6,0q-3,0-6,0l-5.1,0h-3.15c-5,0-11.27,0-17.12,4.13s-8,10.1-9.64,14.85q-1.9,5.58-3.83,11.17-2.32-6.5-4.68-12.95c-2.1-5.73-8.6-15.7-19.63-16.72-3.27-.3-6.73-.45-10.59-.45-4.41,0-8.78.2-12.63.37a22.13,22.13,0,0,0-9.67,2.64,18.58,18.58,0,0,0-7.1-2.56,80,80,0,0,0-10.83-.88,39.7,39.7,0,0,0-12.39,1.81,18.62,18.62,0,0,0-4.94,2.41A51.72,51.72,0,0,0,312.26,135a71.15,71.15,0,0,0-11.81,1A64.75,64.75,0,0,0,264.86,155l-.05.05.05-1.14c0-2.12,0-4.23,0-6.35,0-5,0-10.13,0-15.25-.14-14.9-9.44-24.23-24.26-24.35l-5.81,0-7.83,0c-4.06,0-12.52,0-18.95,6.62-5.22,5.35-6.09,12.07-6.23,16.5a52.45,52.45,0,0,0-31.43-11c-5.47-.09-11.23-.13-17.63-.13-7.37,0-14.6.06-20.7.11h-1.11c-1.39,0-2.61,0-3.69,0s-1.94,0-2.76,0c-3.28,0-11,0-17,6.07-6.21,6.24-6.16,13.58-6.11,21.36,0,1,0,2.18,0,3.44,0,28.25,0,58.57,0,92.69,0,4.06,0,11.62,6.07,17.6s13.39,5.88,17.4,5.89h1.12l5,0,4.72,0c2.34,0,4.24,0,6,.1l1.35,0c8.14,0,13.21-3.43,16-6.31,4.17-4.26,6.2-9.95,6-16.9-.12-5.33-.14-10.65-.13-16.13h.24a94.86,94.86,0,0,0,13-.75,49.91,49.91,0,0,0,23.57-9.79q0,12.42,0,24.85c0,3.89,0,12,6.15,18.34,6.31,6.52,14.5,6.58,18.43,6.61l6.75,0q3.25,0,6.5,0c4,0,12.34-.1,18.78-6.53a21.94,21.94,0,0,0,6.06-12.19,64.75,64.75,0,0,0,11,9.25c11.06,7.39,22.56,11.13,34.18,11.13a57.84,57.84,0,0,0,23.84-5.31,22.12,22.12,0,0,0,7,2.89,45.71,45.71,0,0,0,10.2,1c2.23,0,4.39-.12,6.29-.22,1.06-.05,2.12-.11,3.17-.14,13-.39,22.36-10,22.36-23V229.5q0-5.73,0-11.52c4.32,10.57,8.68,21.18,13,31.73-2.42,5.94-4.69,11.92-6.89,17.72l-2.28,6c-4,10.53-1.44,17.79,1.44,22s8.69,9.34,20,9.49c.81,0,1.63,0,2.44,0l3.91,0,3.61,0c1.8,0,3.24,0,4.54.08l1.22,0c10.54,0,18.84-5.84,22.77-16,7.13-18.47,14.75-37.89,22.65-57.72q2.68-6.72,5.4-13.48,0,9.47,0,18.93c0,1.32,0,2.49,0,3.53-.12,5.71-.28,13.52,6,20,6.76,6.91,15.67,6.93,24.29,6.95h1.67c4.89,0,10.59-.25,16.32-3.18l.38-.2a49.66,49.66,0,0,0,22,5,57.25,57.25,0,0,0,11.52-1.21C574.1,264,588,254.81,597,241.17a55.05,55.05,0,0,0,14,16.9c8.35,6.76,19.65,10.49,31.83,10.48A57.69,57.69,0,0,0,667.62,263c5.81,4.07,12.22,4.08,16.28,4.08h5.23a37.74,37.74,0,0,0,9.7-1c6.51,18,23.39,30.24,44.23,30.27q11.31,0,22.63,0h92.17c26.78,0,47-20.21,47-47q0-57.39,0-114.77C904.86,107.77,884.69,87.47,858,87.43ZM264.85,215.82" transform="translate(-101.32 -87.38)" style="fill:#fff"/><path d="M857.94,104.43q-57.37-.11-114.75,0c-17.25,0-30.22,12.9-30.25,30.13q0,7.09,0,14.18-.09,50.28,0,100.57a32.89,32.89,0,0,0,.32,4.6c2.06,15,14,25.43,29.83,25.46,19,0,38.08,0,57.13,0s38.41,0,57.62,0c17.58,0,30-12.42,30-30q0-57.37,0-114.75C887.86,117.22,875.3,104.46,857.94,104.43Zm-57,103.36c-9.44.14-16.51-6.66-16.59-15.94s6.81-16.43,16.09-16.52A16.42,16.42,0,0,1,817,191.62,16.23,16.23,0,0,1,800.91,207.79Z" transform="translate(-101.32 -87.38)"/><path d="M589.36,185.17a49.33,49.33,0,0,0-14-21.38c-15.77-14.54-34.37-15.24-55-2.85,0-9.84,0-19.41,0-29,0-5-1.88-6.91-6.89-7-4.49-.1-9,0-13.48,0-7.4,0-8.75,1.32-8.75,8.64v9.72q0,16.19,0,32.38,0,30.53,0,61c0,12.37-2.06,13.44,13.3,13.47,7,0,13.62.33,14.8-9.24,1.62,1.24,2.69,2,3.7,2.84C531.89,251,542,253.26,553,251c19.55-4.05,31.85-16.18,36.61-35.17.06-.23.11-.45.16-.68C592.33,204.56,592.33,194.45,589.36,185.17ZM542,225.6a23.73,23.73,0,0,1-23.61-23.9c.08-13.1,10.82-23.93,23.72-23.92,12.42,0,21.75,10.43,21.72,24.26C563.81,215.58,554.5,225.63,542,225.6Z" transform="translate(-101.32 -87.38)"/><path d="M365.33,176.15q0-8.39-.12-16.78c0-2-2.4-5.47-4-5.7l-.89-.12c-4.94-.65-10.26-1.07-14.79.38-2.48.8-3.45,6.2-5.15,9.5a6.75,6.75,0,0,1-1.14,1.22c-9.48-11.6-21.83-14.24-35.92-11.86-18,3.05-33.15,16.88-38.42,34.93h0c-.34,1.12-.63,2.26-.88,3.42a50.4,50.4,0,0,0,.87,24.67h0a49.66,49.66,0,0,0,20,27.62c17.1,11.42,33.9,10.9,50.95-.86,3.12,2.8,5.39,6.46,8.35,7.13,4.9,1.11,10.24.42,15.39.26,3.7-.11,5.87-2.09,5.87-6C365.39,221.39,365.44,198.77,365.33,176.15Zm-52.65,49.43c-12.71.14-22-9.89-22-23.7s9.35-24.1,21.79-24.1c13.13,0,23.76,10.94,23.66,24.34A23.53,23.53,0,0,1,312.68,225.58Z" transform="translate(-101.32 -87.38)"/><path d="M205.63,171.86a38.79,38.79,0,0,0-3.91-14.71,35.6,35.6,0,0,0-31.65-20.05c-12.64-.2-25.28-.13-37.92,0-15.11.13-13.79-2.35-13.81,13.82q0,46.32,0,92.66c0,6,.5,6.48,6.54,6.5,5.83,0,11.66-.18,17.47.07,4.36.18,5.79-1.47,5.69-5.81-.26-10.94-.09-21.88-.09-33.38,1.74-.11,2.87-.23,4-.25,8-.12,16.07.57,23.92-.48,11.42-1.54,20.81-9,25.84-19.05A37.52,37.52,0,0,0,205.63,171.86Zm-39.79,14.45c-5.73.52-11.53.11-17.58.11V161.84c6.24,0,12.37-.44,18.4.13,5.09.47,9,6.48,8.94,12.27C175.54,180.34,171.53,185.79,165.84,186.31Z" transform="translate(-101.32 -87.38)"/><path d="M428.07,218c6.81-19.79,13.23-38.44,19.63-57.1,2.49-7.23,2.82-7.48,10.72-7.5,4.66,0,9.32-.06,14,0,7.34.11,8.67,2,6,8.83C470,183.13,461.43,204,453.07,225q-11.51,28.88-22.72,57.89c-1.4,3.63-3.49,5.3-7.43,5.14-5-.21-10,0-15-.06-6.43-.09-8.08-2.52-5.8-8.46,3.26-8.52,6.42-17.09,9.91-25.52a10.7,10.7,0,0,0-.16-8.94c-11-26.68-21.9-53.42-32.81-80.14a43.84,43.84,0,0,1-1.88-5.13c-.91-3.32.18-5.87,3.8-6a153.73,153.73,0,0,1,20.92,0c1.93.18,4.37,3.34,5.22,5.64,6.45,17.6,12.55,35.32,18.78,53C426.48,213.94,427.11,215.46,428.07,218Z" transform="translate(-101.32 -87.38)"/><path d="M672.94,238.09c-14.62,16.81-39.29,16.45-51.24,6.77-11-8.93-14.82-21-15.13-34.39-.4-16.61-.14-33.23-.08-49.85,0-5.76,1.31-6.91,7.12-6.94q7.5,0,15,0c6,0,6.66.64,6.67,6.53q0,23.43,0,46.86c0,7.11,2.8,12.66,9.23,15.83s12.71,1.45,18.31-2.45c4.77-3.32,6.31-8.28,6.29-13.93-.07-15.12,0-30.24,0-45.37,0-6.61.88-7.44,7.55-7.47,4.49,0,9,0,13.48,0,7.23,0,8.23,1,8.26,8.47s0,14.62,0,21.93q0,28.42,0,56.84c0,8-1.13,9.15-9.33,9.14C675.38,250,676.67,251.22,672.94,238.09Z" transform="translate(-101.32 -87.38)"/><path d="M218.72,187.25q0-26.92,0-53.85c0-7.35,1.1-8.46,8.24-8.47,4.49,0,9,0,13.48,0,5.63,0,7.34,1.74,7.39,7.51.07,7.15,0,14.29,0,21.44q0,43.88,0,87.75c0,7.14-1.25,8.37-8.43,8.43-4.33,0-8.66,0-13,0-6.64-.05-7.7-1.12-7.7-8Q218.7,214.67,218.72,187.25Z" transform="translate(-101.32 -87.38)"/></g><g id="Layer_2" data-name="Layer 2"><rect x="748.36" y="128.52" width="33.07" height="57.41" rx="16.53" transform="translate(11.54 499.53) rotate(-45)" style="fill:#1ed6ff"/><rect x="749.24" y="198.47" width="33.07" height="57.41" rx="16.53" transform="translate(1045.3 841.91) rotate(-135)" style="fill:#ffc007"/><rect x="819.18" y="197.59" width="33.07" height="57.41" rx="16.53" transform="translate(1485.35 -292.01) rotate(135)" style="fill:#ff0f65"/><rect x="818.24" y="127.71" width="33.07" height="57.41" rx="16.53" transform="translate(253.78 -631.84) rotate(45)" style="fill:#00f719"/></g></svg>