<svg class=" h-[1.39581rem] w-[7.9625rem] fill-black " viewBox="0 0 128 23" fill="none"><g clip-path="url(#logo-full)"><path d="M17.6218 9.03304L21.3638 14.2698L31.3174 0.333008H23.8363L17.6211 9.03304H17.6218Z" fill="url(#paint0_linear_203_1826)"></path><path d="M13.6955 9.03304L9.95503 14.2698L0 0.333008H7.48103L13.6963 9.03304H13.6955Z" fill="currentFill"></path><path d="M19.3806 17.0281L15.6451 11.7979L11.9082 17.0281L15.6451 22.2598L19.3806 17.0281Z" fill="currentFill"></path><path d="M45.6999 6.54395L41.4093 18.2421H38.5601L34.2695 6.54395H36.7838L40.0016 15.8459L43.2029 6.54395H45.7006H45.6999Z" fill="currentFill"></path><path d="M47.0675 11.0677C47.4419 10.3419 47.9495 9.7832 48.5925 9.39151C49.2347 9.00053 49.9526 8.80469 50.7461 8.80469C51.4387 8.80469 52.045 8.94437 52.5641 9.22374C53.084 9.50311 53.5002 9.8552 53.8126 10.2793V8.95517H56.1758V18.2399H53.8126V16.8826C53.511 17.3182 53.0948 17.6782 52.5641 17.9634C52.0335 18.2478 51.4222 18.3911 50.7288 18.3911C49.9468 18.3911 49.2347 18.1902 48.5925 17.7877C47.9495 17.3852 47.4412 16.8185 47.0675 16.0863C46.6931 15.3547 46.5059 14.5137 46.5059 13.564C46.5059 12.6143 46.6931 11.7928 47.0675 11.067V11.0677ZM53.4778 12.1319C53.2539 11.7244 52.9522 11.4112 52.5721 11.193C52.1926 10.9756 51.7851 10.8661 51.3487 10.8661C50.9124 10.8661 50.5106 10.9727 50.142 11.1844C49.7733 11.3968 49.4745 11.7064 49.2455 12.1146C49.0166 12.5229 48.9021 13.006 48.9021 13.5648C48.9021 14.1235 49.0166 14.6117 49.2455 15.0314C49.4745 15.4505 49.7762 15.7716 50.1506 15.9948C50.525 16.218 50.9239 16.3304 51.3495 16.3304C51.775 16.3304 52.1933 16.2216 52.5728 16.0035C52.9529 15.786 53.2539 15.4728 53.4786 15.0653C53.701 14.6577 53.8134 14.1689 53.8134 13.5986C53.8134 13.0283 53.701 12.5402 53.4786 12.1319H53.4778Z" fill="currentFill"></path><path d="M62.0658 9.23238C62.5957 8.94725 63.2027 8.80469 63.8838 8.80469C64.6773 8.80469 65.3952 9.00053 66.0374 9.39151C66.6797 9.78248 67.1887 10.3383 67.5624 11.0591C67.9368 11.7798 68.124 12.615 68.124 13.5648C68.124 14.5145 67.9361 15.3554 67.5624 16.087C67.188 16.8193 66.6797 17.3859 66.0374 17.7884C65.3952 18.1909 64.6773 18.3918 63.8838 18.3918C63.2027 18.3918 62.6022 18.2521 62.0823 17.9727C61.5632 17.6934 61.1413 17.3413 60.8173 16.9172V22.6658H58.4707V8.95661H60.8173V10.2973C61.1189 9.8732 61.5351 9.51823 62.0658 9.2331V9.23238ZM65.3836 12.1153C65.154 11.7078 64.853 11.3975 64.4779 11.1851C64.1034 10.9727 63.6988 10.8668 63.2625 10.8668C62.8261 10.8668 62.4387 10.9756 62.0643 11.1937C61.6899 11.4119 61.3875 11.7273 61.1593 12.1405C60.9296 12.5538 60.8151 13.0406 60.8151 13.5986C60.8151 14.1566 60.9296 14.6433 61.1593 15.0566C61.3875 15.4699 61.6892 15.786 62.0643 16.0035C62.4387 16.2216 62.8376 16.3304 63.2625 16.3304C63.6873 16.3304 64.1034 16.2188 64.4779 15.9948C64.8523 15.7716 65.154 15.4527 65.3836 15.0394C65.6119 14.6268 65.7271 14.1343 65.7271 13.5648C65.7271 12.9952 65.6126 12.5229 65.3836 12.1146V12.1153Z" fill="currentFill"></path><path d="M71.5442 17.7973C70.8292 17.4006 70.2676 16.8397 69.8593 16.1132C69.4518 15.3874 69.248 14.5493 69.248 13.5989C69.248 12.6484 69.4569 11.811 69.8766 11.0845C70.2957 10.3588 70.8674 9.79713 71.5946 9.4004C72.3204 9.00367 73.1311 8.80566 74.0247 8.80566C74.9182 8.80566 75.729 9.00439 76.4548 9.4004C77.1805 9.79713 77.7537 10.3588 78.1727 11.0845C78.5925 11.811 78.8013 12.6491 78.8013 13.5989C78.8013 14.5486 78.586 15.3867 78.1562 16.1132C77.7256 16.8397 77.1445 17.4013 76.413 17.7973C75.6814 18.194 74.8628 18.3928 73.9584 18.3928C73.0541 18.3928 72.2592 18.194 71.5449 17.7973H71.5442ZM75.1551 16.0376C75.5295 15.8309 75.8283 15.5206 76.0515 15.1073C76.2747 14.6947 76.3871 14.1914 76.3871 13.5989C76.3871 12.7168 76.1545 12.0378 75.6915 11.5626C75.2278 11.0881 74.6605 10.8505 73.9901 10.8505C73.3198 10.8505 72.7589 11.0881 72.306 11.5626C71.8538 12.0371 71.627 12.7168 71.627 13.5989C71.627 14.4809 71.8473 15.1606 72.2887 15.6351C72.7301 16.1103 73.2867 16.3472 73.957 16.3472C74.3811 16.3472 74.7807 16.2442 75.1551 16.0368V16.0376Z" fill="currentFill"></path><path d="M84.0528 9.24083C84.5388 8.96146 85.0947 8.82178 85.7204 8.82178V11.285H85.1011C84.3631 11.285 83.808 11.4585 83.4328 11.8048C83.0584 12.1512 82.872 12.7545 82.872 13.615V18.2404H80.5254V8.95642H82.872V10.3979C83.1736 9.90613 83.5675 9.52092 84.0535 9.24155L84.0528 9.24083Z" fill="currentFill"></path><path d="M94.5209 6.54346V8.43712H89.6434V11.4374H93.3811V13.298H89.6434V18.2424H87.2969V6.54346H94.5201H94.5209Z" fill="currentFill"></path><path d="M104.947 8.95922V18.2439H102.584V17.071C102.283 17.4735 101.888 17.7888 101.402 18.0178C100.916 18.2468 100.388 18.3613 99.8187 18.3613C99.0922 18.3613 98.45 18.2079 97.8912 17.9005C97.3325 17.593 96.894 17.1408 96.5758 16.5425C96.2568 15.9449 96.0977 15.2328 96.0977 14.4055V8.9585H98.4442V14.0699C98.4442 14.8072 98.6285 15.3746 98.9972 15.7713C99.3666 16.1681 99.8691 16.3661 100.506 16.3661C101.142 16.3661 101.662 16.1681 102.031 15.7713C102.399 15.3746 102.584 14.808 102.584 14.0699V8.9585H104.947V8.95922Z" fill="currentFill"></path><path d="M115.081 9.86869C115.762 10.5671 116.103 11.542 116.103 12.7934V18.2404H113.756V13.1117C113.756 12.3744 113.572 11.807 113.203 11.4103C112.835 11.0135 112.332 10.8148 111.696 10.8148C111.059 10.8148 110.536 11.0135 110.161 11.4103C109.787 11.807 109.6 12.3736 109.6 13.1117V18.2404H107.254V8.9557H109.6V10.1121C109.914 9.70956 110.313 9.39419 110.799 9.16523C111.285 8.93626 111.818 8.82178 112.399 8.82178C113.506 8.82178 114.399 9.17099 115.081 9.86869H115.081Z" fill="currentFill"></path><path d="M118.295 11.0689C118.669 10.3431 119.18 9.78436 119.828 9.39267C120.476 9.00169 121.196 8.80585 121.991 8.80585C122.595 8.80585 123.169 8.93689 123.717 9.1997C124.264 9.46251 124.7 9.81172 125.024 10.2473V5.83936H127.404V18.2417H125.024V16.8672C124.733 17.3259 124.326 17.6938 123.8 17.9732C123.274 18.2525 122.666 18.3922 121.973 18.3922C121.191 18.3922 120.476 18.1913 119.828 17.7888C119.179 17.3864 118.668 16.8197 118.294 16.0874C117.92 15.3559 117.732 14.5149 117.732 13.5652C117.732 12.6155 117.92 11.7939 118.294 11.0682L118.295 11.0689ZM124.706 12.1331C124.482 11.7255 124.18 11.4123 123.8 11.1942C123.421 10.9767 123.013 10.8673 122.577 10.8673C122.14 10.8673 121.739 10.9738 121.37 11.1855C121.001 11.3979 120.703 11.7075 120.474 12.1158C120.245 12.524 120.13 13.0072 120.13 13.5659C120.13 14.1247 120.245 14.6128 120.474 15.0326C120.703 15.4517 121.004 15.7728 121.379 15.996C121.753 16.2192 122.152 16.3315 122.577 16.3315C123.003 16.3315 123.421 16.2228 123.801 16.0046C124.181 15.7872 124.482 15.474 124.707 15.0664C124.929 14.6589 125.041 14.17 125.041 13.5998C125.041 13.0295 124.929 12.5413 124.707 12.1331H124.706Z" fill="currentFill"></path></g><defs><linearGradient id="paint0_linear_203_1826" x1="21.2594" y1="-3.2995" x2="26.234" y2="9.06976" gradientUnits="userSpaceOnUse"><stop stop-color="#1A2980"></stop><stop offset="1" stop-color="#25C1C7"></stop></linearGradient><clipPath id="logo-full"><rect width="127.4" height="22.3329" fill="white" transform="translate(0 0.333496)"></rect></clipPath></defs></svg>